<?xml version="1.0" encoding="UTF-8"?><svg xmlns="http://www.w3.org/2000/svg" xmlns:xlink="http://www.w3.org/1999/xlink" viewBox="0 0 1920 1080"><defs><style>.cls-1{fill:#abc;}.cls-2,.cls-3,.cls-4,.cls-5,.cls-6,.cls-7,.cls-8,.cls-9,.cls-10,.cls-11,.cls-12,.cls-13,.cls-14,.cls-15{fill:#fff;}.cls-16,.cls-5,.cls-17,.cls-18,.cls-19,.cls-20,.cls-21,.cls-22{fill-rule:evenodd;}.cls-16,.cls-23{fill:#00758f;}.cls-24,.cls-17{fill:#f29111;}.cls-3{filter:url(#drop-shadow-48);}.cls-4{filter:url(#drop-shadow-51);}.cls-25{fill:#417ba2;}.cls-26{fill:#222;}.cls-27{fill:#f92672;}.cls-28{stroke:#231f20;stroke-width:2.6px;}.cls-28,.cls-29{fill:#231f20;}.cls-30{filter:url(#drop-shadow-16);}.cls-30,.cls-6,.cls-31,.cls-32,.cls-33,.cls-34{stroke-miterlimit:10;}.cls-30,.cls-31,.cls-35,.cls-36,.cls-37,.cls-32,.cls-33,.cls-34{fill:none;}.cls-30,.cls-31,.cls-32,.cls-34{stroke-width:30px;}.cls-30,.cls-32{stroke:#c02f74;}.cls-38{fill:#eaf1f9;filter:url(#drop-shadow-4);}.cls-39{fill:#c02f74;}.cls-6,.cls-33{stroke:#586470;stroke-width:3px;}.cls-31{filter:url(#drop-shadow-13);}.cls-31,.cls-34{stroke:#2f74c0;}.cls-40{fill:#123;}.cls-7{filter:url(#drop-shadow-46);}.cls-8{filter:url(#drop-shadow-47);}.cls-41{fill:#3178c6;}.cls-42{fill:#e83524;}.cls-43{fill:#007acc;}.cls-44{fill:#00dc82;}.cls-18{fill:#0edbda;}.cls-19{fill:#80eec0;}.cls-35,.cls-9,.cls-36,.cls-37,.cls-13{stroke:#fff;}.cls-35,.cls-36{stroke-linejoin:round;}.cls-35,.cls-36,.cls-37{stroke-width:.87px;}.cls-35,.cls-37{stroke-linecap:round;}.cls-9{stroke-width:.29px;}.cls-10{filter:url(#drop-shadow-44);}.cls-45{fill:#367faf;}.cls-46{fill:#012a35;}.cls-47{fill:url(#_名称未設定グラデーション_2);}.cls-48{fill:#0edada;}.cls-11{filter:url(#drop-shadow-50);}.cls-20{fill:#12eedf;}.cls-12{filter:url(#drop-shadow-45);}.cls-49{fill:#08c6d6;}.cls-50,.cls-21{fill:#0c344b;}.cls-37{stroke-linejoin:bevel;}.cls-51{fill:#2f74c0;}.cls-13{stroke-width:.14px;}.cls-52{fill:#586470;}.cls-14{filter:url(#drop-shadow-49);}.cls-53{fill:#283847;}.cls-54{fill:#001020;}.cls-32{filter:url(#drop-shadow-15);}.cls-15{filter:url(#drop-shadow-52);}.cls-55{filter:url(#drop-shadow-53);}.cls-22,.cls-56{fill:#0d0e59;}.cls-34{filter:url(#drop-shadow-14);}</style><filter id="drop-shadow-4" filterUnits="userSpaceOnUse"><feOffset dx="0" dy="3"/><feGaussianBlur result="blur" stdDeviation="6"/><feFlood flood-color="#0d0e59" flood-opacity=".2"/><feComposite in2="blur" operator="in"/><feComposite in="SourceGraphic"/></filter><filter id="drop-shadow-13" filterUnits="userSpaceOnUse"><feOffset dx="0" dy="3"/><feGaussianBlur result="blur-2" stdDeviation="6"/><feFlood flood-color="#080a35" flood-opacity=".1"/><feComposite in2="blur-2" operator="in"/><feComposite in="SourceGraphic"/></filter><filter id="drop-shadow-14" filterUnits="userSpaceOnUse"><feOffset dx="0" dy="3"/><feGaussianBlur result="blur-3" stdDeviation="6"/><feFlood flood-color="#080a35" flood-opacity=".1"/><feComposite in2="blur-3" operator="in"/><feComposite in="SourceGraphic"/></filter><filter id="drop-shadow-15" filterUnits="userSpaceOnUse"><feOffset dx="0" dy="3"/><feGaussianBlur result="blur-4" stdDeviation="6"/><feFlood flood-color="#080a35" flood-opacity=".1"/><feComposite in2="blur-4" operator="in"/><feComposite in="SourceGraphic"/></filter><filter id="drop-shadow-16" filterUnits="userSpaceOnUse"><feOffset dx="0" dy="3"/><feGaussianBlur result="blur-5" stdDeviation="6"/><feFlood flood-color="#080a35" flood-opacity=".1"/><feComposite in2="blur-5" operator="in"/><feComposite in="SourceGraphic"/></filter><filter id="drop-shadow-44" filterUnits="userSpaceOnUse"><feOffset dx="0" dy="3"/><feGaussianBlur result="blur-6" stdDeviation="6"/><feFlood flood-color="#0d0e59" flood-opacity=".2"/><feComposite in2="blur-6" operator="in"/><feComposite in="SourceGraphic"/></filter><filter id="drop-shadow-45" filterUnits="userSpaceOnUse"><feOffset dx="0" dy="3"/><feGaussianBlur result="blur-7" stdDeviation="6"/><feFlood flood-color="#0d0e59" flood-opacity=".2"/><feComposite in2="blur-7" operator="in"/><feComposite in="SourceGraphic"/></filter><filter id="drop-shadow-46" filterUnits="userSpaceOnUse"><feOffset dx="0" dy="3"/><feGaussianBlur result="blur-8" stdDeviation="6"/><feFlood flood-color="#0d0e59" flood-opacity=".2"/><feComposite in2="blur-8" operator="in"/><feComposite in="SourceGraphic"/></filter><filter id="drop-shadow-47" filterUnits="userSpaceOnUse"><feOffset dx="0" dy="3"/><feGaussianBlur result="blur-9" stdDeviation="6"/><feFlood flood-color="#0d0e59" flood-opacity=".2"/><feComposite in2="blur-9" operator="in"/><feComposite in="SourceGraphic"/></filter><filter id="drop-shadow-48" filterUnits="userSpaceOnUse"><feOffset dx="0" dy="3"/><feGaussianBlur result="blur-10" stdDeviation="6"/><feFlood flood-color="#0d0e59" flood-opacity=".2"/><feComposite in2="blur-10" operator="in"/><feComposite in="SourceGraphic"/></filter><filter id="drop-shadow-49" filterUnits="userSpaceOnUse"><feOffset dx="0" dy="3"/><feGaussianBlur result="blur-11" stdDeviation="6"/><feFlood flood-color="#0d0e59" flood-opacity=".2"/><feComposite in2="blur-11" operator="in"/><feComposite in="SourceGraphic"/></filter><filter id="drop-shadow-50" filterUnits="userSpaceOnUse"><feOffset dx="0" dy="3"/><feGaussianBlur result="blur-12" stdDeviation="6"/><feFlood flood-color="#0d0e59" flood-opacity=".2"/><feComposite in2="blur-12" operator="in"/><feComposite in="SourceGraphic"/></filter><filter id="drop-shadow-51" filterUnits="userSpaceOnUse"><feOffset dx="0" dy="3"/><feGaussianBlur result="blur-13" stdDeviation="6"/><feFlood flood-color="#0d0e59" flood-opacity=".2"/><feComposite in2="blur-13" operator="in"/><feComposite in="SourceGraphic"/></filter><filter id="drop-shadow-52" filterUnits="userSpaceOnUse"><feOffset dx="0" dy="3"/><feGaussianBlur result="blur-14" stdDeviation="6"/><feFlood flood-color="#0d0e59" flood-opacity=".2"/><feComposite in2="blur-14" operator="in"/><feComposite in="SourceGraphic"/></filter><filter id="drop-shadow-53" filterUnits="userSpaceOnUse"><feOffset dx="0" dy="3"/><feGaussianBlur result="blur-15" stdDeviation="6"/><feFlood flood-color="#0d0e59" flood-opacity=".2"/><feComposite in2="blur-15" operator="in"/><feComposite in="SourceGraphic"/></filter><linearGradient id="_名称未設定グラデーション_2" x1="17152.65" y1="-3821.11" x2="17365.87" y2="-3541.9" gradientTransform="translate(25.98 222.46) scale(.07 -.07)" gradientUnits="userSpaceOnUse"><stop offset="0" stop-color="#0cc7d4"/><stop offset="1" stop-color="#2ed5bf"/></linearGradient></defs><g id="back"><rect class="cls-38" x="60" y="60" width="1800" height="960" rx="30" ry="30"/></g><g id="lines"><line class="cls-31" x1="360" y1="450" x2="1560" y2="450"/><line class="cls-34" x1="120" y1="810" x2="360" y2="810"/><line class="cls-32" x1="120" y1="930" x2="360" y2="930"/><polyline class="cls-30" points="360 510 600 510 600 840 1320 840 1320 510 1680 510 1680 840"/><g><path class="cls-51" d="M201.14,761.94l-5.27,.58c-.15-.53-.41-1.03-.77-1.5s-.86-.85-1.48-1.13c-.62-.29-1.37-.43-2.27-.43-1.2,0-2.21,.26-3.03,.78-.82,.52-1.22,1.2-1.21,2.03-.01,.71,.25,1.29,.79,1.74,.54,.45,1.43,.82,2.68,1.1l4.19,.89c2.32,.5,4.05,1.29,5.19,2.38,1.13,1.09,1.71,2.51,1.72,4.27-.01,1.54-.46,2.91-1.35,4.08-.89,1.18-2.12,2.1-3.7,2.76-1.58,.66-3.39,.99-5.43,.99-3,0-5.42-.63-7.25-1.89-1.83-1.26-2.92-3.02-3.28-5.28l5.64-.54c.26,1.11,.8,1.94,1.63,2.51,.83,.57,1.91,.85,3.24,.85s2.48-.28,3.32-.85c.84-.56,1.25-1.26,1.25-2.09,0-.7-.27-1.28-.81-1.74-.54-.46-1.37-.81-2.5-1.05l-4.19-.88c-2.35-.49-4.1-1.32-5.23-2.48-1.13-1.17-1.69-2.65-1.68-4.43-.01-1.51,.4-2.83,1.24-3.94s2-1.98,3.5-2.59c1.5-.61,3.23-.92,5.19-.92,2.88,0,5.14,.61,6.8,1.84,1.66,1.23,2.68,2.88,3.08,4.97Z"/><path class="cls-51" d="M218.7,755.45v4.47h-14.11v-4.47h14.11Zm-10.63-5.88h5.79v23.04c0,.78,.12,1.37,.36,1.78s.56,.69,.95,.84,.83,.22,1.31,.22c.36,0,.7-.03,1-.08,.3-.05,.54-.1,.7-.14l.97,4.52c-.31,.11-.75,.22-1.32,.35-.57,.13-1.27,.2-2.08,.22-1.45,.04-2.75-.18-3.92-.66-1.16-.49-2.08-1.24-2.76-2.26-.68-1.02-1.01-2.3-1-3.83v-24Z"/><path class="cls-51" d="M230.6,780.5c-1.56,0-2.95-.28-4.19-.84-1.24-.56-2.22-1.39-2.94-2.48-.72-1.1-1.08-2.45-1.08-4.06,0-1.38,.26-2.53,.77-3.44s1.21-1.63,2.09-2.17c.88-.54,1.88-.96,3-1.24,1.11-.28,2.27-.49,3.46-.62,1.44-.15,2.6-.28,3.5-.41,.9-.12,1.55-.31,1.96-.58,.41-.26,.62-.67,.62-1.22v-.1c0-1.2-.36-2.14-1.07-2.8-.71-.66-1.74-.99-3.08-.99-1.42,0-2.54,.31-3.36,.93s-1.38,1.35-1.67,2.19l-5.4-.77c.43-1.49,1.13-2.74,2.11-3.75s2.18-1.76,3.6-2.27c1.42-.51,2.98-.76,4.7-.76,1.18,0,2.36,.14,3.53,.42,1.17,.28,2.24,.73,3.21,1.37,.97,.63,1.75,1.49,2.34,2.58,.59,1.09,.89,2.45,.89,4.08v16.43h-5.56v-3.37h-.19c-.35,.68-.84,1.32-1.48,1.91-.63,.59-1.43,1.07-2.38,1.42-.95,.36-2.07,.54-3.35,.54Zm1.5-4.25c1.16,0,2.17-.23,3.02-.7,.85-.46,1.51-1.08,1.97-1.85,.46-.77,.7-1.6,.7-2.51v-2.89c-.18,.15-.49,.29-.92,.42-.43,.13-.91,.24-1.45,.34s-1.06,.18-1.58,.26-.97,.14-1.36,.19c-.86,.12-1.64,.31-2.32,.58-.68,.27-1.22,.64-1.61,1.11-.39,.47-.59,1.08-.59,1.83,0,1.07,.39,1.87,1.17,2.41,.78,.54,1.77,.82,2.97,.82Z"/><path class="cls-51" d="M261.65,755.45v4.47h-14.11v-4.47h14.11Zm-10.63-5.88h5.79v23.04c0,.78,.12,1.37,.36,1.78s.56,.69,.95,.84,.83,.22,1.31,.22c.36,0,.7-.03,1-.08,.3-.05,.54-.1,.7-.14l.97,4.52c-.31,.11-.75,.22-1.32,.35-.57,.13-1.27,.2-2.08,.22-1.45,.04-2.75-.18-3.92-.66-1.16-.49-2.08-1.24-2.76-2.26-.68-1.02-1.01-2.3-1-3.83v-24Z"/><path class="cls-51" d="M269.4,751.97c-.93,0-1.72-.31-2.37-.92-.66-.61-.98-1.35-.98-2.21s.33-1.62,.99-2.23c.66-.61,1.45-.92,2.37-.92s1.7,.31,2.36,.92c.66,.61,.98,1.36,.98,2.23s-.33,1.6-.98,2.21c-.66,.61-1.44,.92-2.36,.92Zm-2.91,28.03v-24.55h5.79v24.55h-5.79Z"/><path class="cls-51" d="M288.93,780.48c-2.45,0-4.55-.54-6.3-1.61-1.75-1.08-3.1-2.56-4.04-4.47-.94-1.9-1.41-4.09-1.41-6.58s.48-4.7,1.44-6.61c.96-1.91,2.31-3.4,4.07-4.47,1.75-1.07,3.83-1.61,6.22-1.61,1.99,0,3.76,.37,5.3,1.09s2.77,1.76,3.68,3.08c.92,1.33,1.44,2.87,1.57,4.64h-5.53c-.22-1.18-.75-2.17-1.59-2.96-.84-.79-1.95-1.19-3.35-1.19-1.18,0-2.22,.32-3.12,.95s-1.59,1.54-2.09,2.72-.74,2.6-.74,4.25,.25,3.11,.74,4.31c.49,1.2,1.18,2.12,2.07,2.76,.89,.64,1.94,.97,3.14,.97,.85,0,1.62-.16,2.29-.49,.68-.33,1.24-.8,1.7-1.42,.46-.62,.77-1.37,.94-2.25h5.53c-.14,1.74-.65,3.27-1.53,4.61s-2.09,2.38-3.61,3.13-3.31,1.13-5.37,1.13Z"/></g><g><path class="cls-39" d="M159.22,900.43c-1.93,0-3.65-.5-5.18-1.49s-2.73-2.43-3.61-4.31-1.33-4.18-1.33-6.87,.45-5.03,1.35-6.91c.9-1.88,2.12-3.3,3.65-4.27,1.53-.96,3.24-1.45,5.13-1.45,1.44,0,2.62,.24,3.55,.73,.93,.48,1.66,1.07,2.21,1.74,.54,.68,.96,1.31,1.26,1.91h.24v-12.24h5.8v32.73h-5.69v-3.87h-.35c-.3,.6-.73,1.23-1.29,1.89-.56,.67-1.31,1.23-2.24,1.7s-2.09,.7-3.5,.7Zm1.61-4.75c1.23,0,2.27-.33,3.13-1s1.52-1.59,1.97-2.79c.45-1.19,.67-2.58,.67-4.17s-.22-2.97-.66-4.14c-.44-1.17-1.09-2.08-1.95-2.73-.86-.65-1.91-.97-3.16-.97s-2.36,.34-3.23,1.01c-.86,.67-1.51,1.6-1.95,2.78-.44,1.18-.66,2.54-.66,4.06s.22,2.9,.66,4.1c.44,1.2,1.1,2.14,1.97,2.83,.87,.69,1.94,1.03,3.2,1.03Z"/><path class="cls-39" d="M182.07,909.16c-.79,0-1.52-.06-2.18-.18-.67-.12-1.2-.27-1.59-.44l1.34-4.49c1.26,.36,2.31,.42,3.17,.18,.86-.24,1.56-1.04,2.12-2.39l.5-1.33-8.9-25.06h6.14l5.66,18.54h.26l5.67-18.54,6.18,.03-9.86,27.49c-.46,1.28-1.07,2.38-1.82,3.31-.76,.93-1.68,1.64-2.77,2.13-1.09,.5-2.39,.74-3.91,.74Z"/><path class="cls-39" d="M210.21,885.62v14.38h-5.79v-24.55h5.53v4.17h.29c.56-1.37,1.47-2.47,2.71-3.28s2.78-1.21,4.61-1.21c1.69,0,3.17,.36,4.43,1.09,1.26,.72,2.24,1.77,2.94,3.15,.7,1.37,1.04,3.04,1.03,5v15.63h-5.79v-14.73c0-1.64-.42-2.92-1.27-3.85-.85-.93-2.02-1.39-3.51-1.39-1.01,0-1.91,.22-2.69,.66-.78,.44-1.4,1.08-1.84,1.91-.44,.83-.66,1.84-.66,3.02Z"/><path class="cls-39" d="M238.93,900.5c-1.56,0-2.95-.28-4.19-.84-1.24-.56-2.22-1.39-2.94-2.48-.72-1.1-1.08-2.45-1.08-4.06,0-1.38,.26-2.53,.77-3.44s1.21-1.63,2.09-2.17c.88-.54,1.88-.96,3-1.24,1.11-.28,2.27-.49,3.46-.62,1.44-.15,2.6-.28,3.5-.41,.9-.12,1.55-.31,1.96-.58,.41-.26,.62-.67,.62-1.22v-.1c0-1.2-.36-2.14-1.07-2.8-.71-.66-1.74-.99-3.08-.99-1.42,0-2.54,.31-3.36,.93s-1.38,1.35-1.67,2.19l-5.4-.77c.43-1.49,1.13-2.74,2.11-3.75s2.18-1.76,3.6-2.27c1.42-.51,2.98-.76,4.7-.76,1.18,0,2.36,.14,3.53,.42,1.17,.28,2.24,.73,3.21,1.37,.97,.63,1.75,1.49,2.34,2.58,.59,1.09,.89,2.45,.89,4.08v16.43h-5.56v-3.37h-.19c-.35,.68-.84,1.32-1.48,1.91-.63,.59-1.43,1.07-2.38,1.42-.95,.36-2.07,.54-3.35,.54Zm1.5-4.25c1.16,0,2.17-.23,3.02-.7,.85-.46,1.51-1.08,1.97-1.85,.46-.77,.7-1.6,.7-2.51v-2.89c-.18,.15-.49,.29-.92,.42-.43,.13-.91,.24-1.45,.34s-1.06,.18-1.58,.26-.97,.14-1.36,.19c-.86,.12-1.64,.31-2.32,.58-.68,.27-1.22,.64-1.61,1.11-.39,.47-.59,1.08-.59,1.83,0,1.07,.39,1.87,1.17,2.41,.78,.54,1.77,.82,2.97,.82Z"/><path class="cls-39" d="M257.72,900v-24.55h5.53v4.17h.29c.51-1.41,1.36-2.51,2.54-3.3,1.18-.79,2.59-1.19,4.23-1.19s3.07,.4,4.21,1.21c1.15,.8,1.95,1.9,2.42,3.28h.26c.54-1.36,1.46-2.45,2.76-3.27s2.83-1.22,4.61-1.22c2.26,0,4.1,.71,5.53,2.14,1.43,1.43,2.14,3.51,2.14,6.25v16.48h-5.8v-15.58c0-1.52-.4-2.64-1.21-3.35-.81-.71-1.8-1.06-2.97-1.06-1.4,0-2.48,.43-3.27,1.3s-1.17,2-1.17,3.38v15.31h-5.67v-15.82c0-1.27-.38-2.28-1.14-3.04s-1.76-1.13-2.98-1.13c-.83,0-1.59,.21-2.27,.63-.68,.42-1.23,1.01-1.63,1.77s-.61,1.65-.61,2.66v14.93h-5.79Z"/><path class="cls-39" d="M301.03,871.97c-.93,0-1.72-.31-2.37-.92-.66-.61-.98-1.35-.98-2.21s.33-1.62,.99-2.23c.66-.61,1.45-.92,2.37-.92s1.7,.31,2.36,.92c.66,.61,.98,1.36,.98,2.23s-.33,1.6-.98,2.21c-.66,.61-1.44,.92-2.36,.92Zm-2.91,28.03v-24.55h5.79v24.55h-5.79Z"/><path class="cls-39" d="M320.56,900.48c-2.45,0-4.55-.54-6.3-1.61-1.75-1.08-3.1-2.56-4.04-4.47-.94-1.9-1.41-4.09-1.41-6.58s.48-4.7,1.44-6.61c.96-1.91,2.31-3.4,4.07-4.47,1.75-1.07,3.83-1.61,6.22-1.61,1.99,0,3.76,.37,5.3,1.09s2.77,1.76,3.68,3.08c.92,1.33,1.44,2.87,1.57,4.64h-5.53c-.22-1.18-.75-2.17-1.59-2.96-.84-.79-1.95-1.19-3.35-1.19-1.18,0-2.22,.32-3.12,.95s-1.59,1.54-2.09,2.72-.74,2.6-.74,4.25,.25,3.11,.74,4.31c.49,1.2,1.18,2.12,2.07,2.76,.89,.64,1.94,.97,3.14,.97,.85,0,1.62-.16,2.29-.49,.68-.33,1.24-.8,1.7-1.42,.46-.62,.77-1.37,.94-2.25h5.53c-.14,1.74-.65,3.27-1.53,4.61s-2.09,2.38-3.61,3.13-3.31,1.13-5.37,1.13Z"/></g></g><g id="papers"><rect class="cls-10" x="120" y="360" width="240" height="240" rx="15" ry="15"/><rect class="cls-12" x="480" y="360" width="240" height="240" rx="15" ry="15"/><rect class="cls-7" x="840" y="360" width="240" height="240" rx="15" ry="15"/><rect class="cls-8" x="480" y="720" width="240" height="240" rx="15" ry="15"/><rect class="cls-3" x="1200" y="360" width="240" height="240" rx="15" ry="15"/><rect class="cls-14" x="1560" y="360" width="240" height="240" rx="15" ry="15"/><rect class="cls-11" x="1200" y="720" width="240" height="240" rx="15" ry="15"/><rect class="cls-4" x="1560" y="720" width="240" height="240" rx="15" ry="15"/><rect class="cls-15" x="870" y="750" width="180" height="180" rx="15" ry="15"/></g><g id="objects"><g class="cls-55"><circle class="cls-6" cx="959.79" cy="839.79" r="58.21"/><ellipse class="cls-33" cx="959.79" cy="839.79" rx="29.1" ry="58.21"/><line class="cls-6" x1="959.79" y1="898" x2="959.79" y2="781.58"/><line class="cls-6" x1="909.38" y1="810.69" x2="1010.2" y2="810.69"/><line class="cls-6" x1="1010.2" y1="868.89" x2="909.38" y2="868.89"/><line class="cls-6" x1="901.58" y1="839.79" x2="1018" y2="839.79"/></g><g><polygon class="cls-43" points="532.45 490.11 510 490.11 520.94 456.43 543.39 456.43 532.45 490.11"/><polygon class="cls-54" points="553.99 490.11 538.11 490.11 544.68 469.91 560.55 469.91 559.02 474.64 547.87 474.64 544.38 485.38 555.53 485.38 553.99 490.11"/><polygon class="cls-54" points="560.57 490.11 555.84 490.11 562.41 469.91 567.13 469.91 560.57 490.11"/><polygon class="cls-54" points="588.67 490.11 566.24 490.11 567.78 485.38 585.48 485.38 586.46 482.37 568.75 482.37 572.8 469.91 595.23 469.91 593.7 474.64 575.99 474.64 575.01 477.65 592.72 477.65 588.67 490.11"/><polygon class="cls-54" points="594.72 503.57 589.99 503.57 600.93 469.91 605.65 469.91 594.72 503.57"/><polygon class="cls-54" points="616.8 490.11 600.91 490.11 602.45 485.38 613.61 485.38 617.1 474.64 605.94 474.64 607.47 469.91 623.37 469.91 616.8 490.11"/><polygon class="cls-54" points="627.21 490.11 622.48 490.11 629.04 469.91 633.77 469.91 627.21 490.11"/><polygon class="cls-43" points="634.35 468.13 629.62 468.13 632.04 460.69 636.77 460.69 634.35 468.13"/><polygon class="cls-54" points="648.81 490.11 632.87 490.11 639.43 469.91 655.37 469.91 653.83 474.64 642.62 474.64 639.13 485.38 650.34 485.38 648.81 490.11"/><polygon class="cls-54" points="655.36 490.11 650.63 490.11 661.57 456.44 666.3 456.44 655.36 490.11"/><polygon class="cls-54" points="676.91 490.11 661 490.11 667.57 469.91 683.47 469.91 681.93 474.64 670.76 474.64 667.27 485.38 678.44 485.38 676.91 490.11"/><polygon class="cls-54" points="683.44 490.11 678.71 490.11 685.27 469.91 690 469.91 683.44 490.11"/></g><g><path class="cls-56" d="M1303.96,469.49c.78,0,1.72,.31,2.43,.86l1.96-4.07c-1.33-.94-3.29-1.33-5.09-1.33-3.91,0-7.12,2.35-7.12,6.65v1.8h-2.58v3.91h2.58v14.71h5.56v-14.71h4.54v-3.91h-4.54v-1.64c0-1.49,1.02-2.27,2.27-2.27Z"/><path id="_1" class="cls-56" d="M1313.19,476.06v-3.52h-5.56v19.41h5.56v-9.39c0-3.29,2.5-5.4,6.5-5.09v-5.24c-2.97,.16-5.17,1.49-6.5,3.83Z"/><path id="_2" class="cls-56" d="M1330.49,472.38c-6.26,0-10.41,3.91-10.41,9.86s4.15,9.94,10.41,9.94,10.41-3.99,10.41-9.94c.08-5.87-4.15-9.86-10.41-9.86Zm0,4.62c2.9,0,4.85,2.11,4.85,5.32s-1.96,5.32-4.85,5.32-4.85-2.11-4.85-5.24,2.03-5.4,4.85-5.4Z"/><path id="_3" class="cls-56" d="M1356.63,472.54v9.55c0,2.82-1.64,4.93-4.3,4.93-2.27,0-3.68-1.49-3.68-3.91v-10.57h-5.56v12.21c0,4.54,2.74,7.43,7.04,7.43,2.9,0,5.17-1.17,6.5-3.68v3.44h5.56v-19.41h-5.56Z"/><path id="_4" class="cls-56" d="M1372.28,476.06v-3.52h-5.56v19.41h5.56v-9.39c0-3.29,2.43-5.4,6.42-5.09v-5.24c-2.97,.16-5.17,1.49-6.42,3.83Z"/><path id="_5" class="cls-56" d="M1383.63,464.24c-1.57,0-2.74,1.17-2.74,2.82s1.1,2.74,2.74,2.74,2.74-1.17,2.74-2.74c-.08-1.64-1.17-2.82-2.74-2.82Zm-2.82,8.3v19.41h5.56v-19.41h-5.56Z"/><path id="_6" class="cls-56" d="M1399.59,472.38c-6.26,0-10.41,3.91-10.41,9.86s4.15,9.94,10.41,9.94,10.41-3.99,10.41-9.94-4.23-9.86-10.41-9.86Zm0,4.62c2.9,0,4.85,2.11,4.85,5.32s-1.96,5.32-4.85,5.32-4.85-2.19-4.85-5.32c0-3.13,1.96-5.32,4.85-5.32Z"/><g id="_788993016"><polygon class="cls-22" points="1239 473.4 1259.03 466.59 1279.07 473.4 1259.03 480.21 1239 473.4"/><path class="cls-22" d="M1245.65,477.63c.23-2.58,.63-5.32,1.49-7.75,.08-.31,.23-.47,.31-.78-.7-1.1-1.25-2.35-1.41-3.68-.23-1.72,.31-3.91,2.35-4.23,1.33-.23,4.15,.55,5.95,1.1,3.13-1.25,6.1-1.41,9.16-.23,1.49-1.41,3.6-2.74,5.4-2.5,2.66,.47,3.13,4.62,2.82,6.73-.08,.94-.31,1.88-.78,2.74,.08,.31,.31,.55,.31,.86,.63,1.72,1.02,3.52,1.25,5.24,.78,2.9,.7,6.73,.47,9.63v.7h-32.09c.86-3.05,2.58-5.56,4.77-7.83Z"/><path class="cls-5" d="M1242.91,485.37c.7-2.43,2.35-4.7,4.62-6.97,.23-2.97,.7-5.79,1.41-7.98,.23-.55,.47-1.1,.86-1.64-2.11-2.35-2.27-5.63-1.1-5.87,1.1-.16,4.54,.94,5.71,1.33,3.44-1.57,6.57-1.49,9.55,0,1.33-1.72,3.52-3.05,4.62-2.9,1.17,.16,2.27,5.17,.08,7.43,.31,.47,.63,1.1,.86,1.64,.47,1.41,.86,3.13,1.1,4.93,.86,2.9,.63,7.2,.31,9.94h.08c0-.31,.08-.7,.08-1.1-.08,.39-.16,.7-.16,1.1h-28.02v.08Z"/><g><path class="cls-22" d="M1254.26,470.11c.94,0,1.72,1.1,1.72,2.5s-.7,2.5-1.72,2.5-1.72-1.1-1.72-2.5,.78-2.5,1.72-2.5Z"/><path class="cls-22" d="M1263.97,470.11c.94,0,1.72,1.1,1.72,2.5s-.78,2.5-1.72,2.5-1.72-1.1-1.72-2.5,.78-2.5,1.72-2.5Z"/></g><polygon class="cls-47" points="1279.07 473.4 1259.03 480.21 1256.61 491.32 1259.03 500.48 1279.07 493.67 1279.07 492.26 1279.07 476.22 1279.07 473.4"/><polygon class="cls-20" points="1259.03 480.21 1263.26 486.24 1283.06 479.11 1279.07 473.4 1259.03 480.21"/><rect class="cls-48" x="1233.68" y="491.01" width="5.24" height="5.24"/><rect class="cls-48" x="1230" y="487.17" width="3.76" height="3.76"/><polygon class="cls-18" points="1239 473.4 1259.03 480.21 1259.03 482.95 1259.03 499.07 1259.03 500.48 1243.77 495.24 1243.77 492.03 1245.42 492.03 1245.42 488.66 1242.13 488.66 1242.13 490.38 1239 490.38 1239 476.22 1239 473.4"/><polygon class="cls-20" points="1259.03 480.21 1254.73 486.24 1234.93 479.11 1239 473.4 1259.03 480.21"/></g></g><g><path class="cls-50" d="M1699.95,456.65h4.77v-17.5h-4.77v17.5Zm-.2-22.03c0-1.55,.87-2.33,2.6-2.33s2.6,.78,2.6,2.33c0,.74-.22,1.32-.65,1.73-.43,.41-1.08,.62-1.95,.62-1.73,0-2.6-.78-2.6-2.35Z"/><path class="cls-21" d="M1680.63,446.55c1.54-1.3,2.31-3.19,2.31-5.65s-.72-4.15-2.17-5.35c-1.45-1.19-3.56-1.79-6.33-1.79h-7.31v22.89h4.85v-8.14h2.08c2.84,0,5.03-.65,6.57-1.96Zm-7.05-2.02h-1.6v-6.79h2.21c1.33,0,2.3,.27,2.92,.81,.62,.54,.93,1.38,.93,2.52s-.37,1.98-1.11,2.57-1.86,.88-3.35,.88h0Z"/><path class="cls-50" d="M1697.42,438.96c-.43-.09-.97-.14-1.61-.14-1.09,0-2.09,.3-3.01,.9-.92,.6-1.68,1.41-2.2,2.37h-.23l-.7-2.94h-3.62v17.5h4.77v-8.91c0-1.41,.43-2.51,1.28-3.29,.85-.78,2.04-1.17,3.56-1.17,.55,0,1.02,.05,1.41,.16l.36-4.48Zm22.25,16.59c1.25-.94,1.87-2.31,1.87-4.1,0-.87-.15-1.61-.45-2.24-.3-.63-.77-1.18-1.41-1.66-.64-.48-1.64-1-3.01-1.55-1.53-.62-2.53-1.08-2.98-1.39s-.68-.68-.68-1.11c0-.76,.7-1.14,2.11-1.14,.79,0,1.57,.12,2.33,.36,.76,.24,1.58,.55,2.46,.92l1.44-3.44c-1.99-.92-4.04-1.38-6.15-1.38-2.21,0-3.92,.43-5.13,1.28-1.21,.85-1.81,2.05-1.81,3.61,0,.91,.14,1.67,.43,2.29,.29,.62,.75,1.17,1.38,1.65,.63,.48,1.62,1,2.97,1.57,.94,.4,1.69,.74,2.25,1.04,.56,.3,.96,.56,1.19,.8,.23,.23,.34,.54,.34,.92,0,1-.87,1.5-2.6,1.5-.85,0-1.82-.14-2.93-.42-1.11-.28-2.11-.63-3-1.05v3.95c.81,.34,1.66,.6,2.52,.76,.9,.17,1.98,.26,3.26,.26,2.48,0,4.35-.47,5.6-1.41h0Zm20.79,1.1h-4.77v-10.22c0-1.26-.21-2.21-.63-2.84-.42-.63-1.09-.95-2-.95-1.22,0-2.11,.45-2.66,1.35-.55,.9-.83,2.37-.83,4.43v8.23h-4.77v-17.5h3.65l.64,2.24h.27c.47-.8,1.15-1.43,2.03-1.89,.89-.45,1.9-.68,3.05-.68,2.62,0,4.39,.86,5.32,2.57h.42c.47-.81,1.16-1.45,2.07-1.89s1.94-.67,3.09-.67c1.98,0,3.48,.51,4.5,1.53,1.02,1.02,1.53,2.65,1.53,4.89v11.41h-4.79v-10.22c0-1.26-.21-2.21-.63-2.84-.42-.63-1.09-.95-2-.95-1.17,0-2.04,.42-2.62,1.25-.58,.84-.87,2.16-.87,3.98v8.78Z"/><path class="cls-21" d="M1765.74,454.27l.92,2.38h3.33v-11.66c0-2.09-.63-3.64-1.88-4.66-1.25-1.02-3.05-1.53-5.4-1.53s-4.69,.53-6.7,1.58l1.58,3.22c1.89-.85,3.53-1.27,4.93-1.27,1.82,0,2.72,.89,2.72,2.66v.77l-3.04,.09c-2.62,.09-4.58,.58-5.88,1.46-1.3,.88-1.95,2.25-1.95,4.11s.48,3.14,1.45,4.1c.97,.96,2.29,1.44,3.97,1.44,1.37,0,2.48-.2,3.33-.59,.85-.39,1.68-1.09,2.48-2.11h.13Zm-2.33-5.67l1.85-.06v1.44c0,1.05-.33,1.9-.99,2.54-.66,.64-1.55,.96-2.65,.96-1.54,0-2.32-.67-2.32-2.02,0-.94,.34-1.64,1.02-2.1,.68-.46,1.71-.71,3.1-.75Zm-120.65,16.77l-31.77,9.4c-.97,.29-1.9-.55-1.7-1.53l11.35-54.36c.21-1.02,1.62-1.18,2.06-.24l21.02,44.63c.4,.84-.06,1.83-.96,2.1h0Zm5.45-2.22l-24.33-51.67h0c-.62-1.3-1.89-2.15-3.33-2.22-1.48-.09-2.81,.63-3.56,1.84l-26.39,42.74c-.82,1.32-.8,2.99,.05,4.29l12.9,19.98c.77,1.19,2.1,1.88,3.49,1.88,.39,0,.79-.06,1.18-.17l37.45-11.08c1.14-.33,2.08-1.15,2.58-2.23,.49-1.07,.48-2.31-.02-3.38h0Z"/></g><g><path class="cls-23" d="M1648.85,824.44h-4.63c-.16-7.84-.61-15.2-1.35-22.11h-.04l-7.05,22.11h-3.53l-7.01-22.11h-.04c-.52,6.63-.85,14-.98,22.11h-4.22c.27-9.86,.96-19.11,2.05-27.74h5.74l6.68,20.38h.04l6.72-20.38h5.49c1.2,10.11,1.91,19.36,2.13,27.74"/><path class="cls-23" d="M1668.93,803.98c-1.89,10.26-4.37,17.71-7.46,22.36-2.41,3.58-5.04,5.37-7.91,5.37-.76,0-1.71-.23-2.83-.69v-2.47c.55,.08,1.19,.12,1.93,.12,1.34,0,2.42-.37,3.24-1.11,.98-.9,1.47-1.92,1.47-3.04,0-.77-.38-2.34-1.15-4.72l-5.08-15.82h4.55l3.65,11.83c.82,2.69,1.16,4.56,1.02,5.63,1.99-5.34,3.39-11.16,4.18-17.46h4.39"/><path class="cls-24" d="M1689.22,816.75c0,2.35-.86,4.28-2.58,5.79-1.72,1.5-4.03,2.26-6.92,2.26-2.71,0-5.33-.87-7.87-2.59l1.19-2.38c2.19,1.1,4.16,1.64,5.94,1.64,1.67,0,2.97-.37,3.91-1.11,.94-.74,1.51-1.77,1.51-3.08,0-1.65-1.15-3.05-3.25-4.24-1.94-1.07-5.82-3.3-5.82-3.3-2.1-1.54-3.15-3.19-3.15-5.9,0-2.25,.79-4.06,2.35-5.44,1.57-1.38,3.6-2.08,6.09-2.08s4.9,.69,7.01,2.06l-1.07,2.38c-1.8-.77-3.57-1.15-5.32-1.15-1.42,0-2.51,.34-3.28,1.03-.77,.68-1.24,1.56-1.24,2.63,0,1.64,1.17,3.07,3.33,4.27,1.96,1.07,5.94,3.34,5.94,3.34,2.16,1.53,3.24,3.17,3.24,5.86"/><path class="cls-17" d="M1697.49,818.89c-1.12-1.81-1.68-4.71-1.68-8.71,0-6.98,2.12-10.48,6.35-10.48,2.21,0,3.84,.84,4.88,2.51,1.12,1.81,1.68,4.69,1.68,8.63,0,7.04-2.12,10.56-6.35,10.56-2.21,0-3.84-.83-4.88-2.51m16.47,6.22l-5.08-2.51c.45-.37,.88-.77,1.27-1.24,2.16-2.54,3.24-6.31,3.24-11.3,0-9.18-3.59-13.77-10.78-13.77-3.52,0-6.27,1.16-8.24,3.49-2.16,2.55-3.24,6.3-3.24,11.26s.96,8.45,2.87,10.72c1.74,2.05,4.38,3.08,7.91,3.08,1.32,0,2.52-.16,3.62-.49l6.62,3.86,1.81-3.12"/><path class="cls-24" d="M1730.57,824.44h-13.15v-27.74h4.43v24.33h8.73v3.41"/><path class="cls-24" d="M1733.72,824.44h.73v-2.82h.96v-.58h-2.69v.58h1v2.82h0Zm5.58,0h.69v-3.4h-1.04l-.85,2.32-.92-2.32h-1v3.4h.65v-2.59h.04l.96,2.59h.5l.96-2.59v2.59"/><path class="cls-16" d="M1736.12,787.41c-2.68-.07-4.75,.2-6.48,.94-.5,.2-1.3,.2-1.37,.84,.27,.27,.3,.7,.54,1.07,.4,.67,1.1,1.57,1.74,2.04,.7,.54,1.4,1.07,2.14,1.54,1.3,.81,2.77,1.27,4.04,2.08,.74,.47,1.47,1.07,2.21,1.58,.37,.27,.6,.7,1.07,.87v-.1c-.24-.3-.3-.74-.53-1.07-.33-.33-.67-.64-1-.97-.97-1.31-2.17-2.45-3.48-3.38-1.07-.74-3.41-1.74-3.84-2.98,0,0-.03-.04-.07-.07,.74-.07,1.61-.34,2.31-.54,1.13-.3,2.17-.23,3.34-.53,.54-.14,1.07-.3,1.61-.47v-.3c-.6-.6-1.04-1.41-1.67-1.98-1.7-1.47-3.58-2.91-5.52-4.12-1.04-.67-2.37-1.1-3.48-1.68-.4-.2-1.07-.3-1.3-.64-.6-.74-.94-1.71-1.37-2.58-.97-1.84-1.91-3.88-2.74-5.83-.6-1.31-.97-2.61-1.7-3.82-3.44-5.7-7.19-9.15-12.94-12.53-1.24-.7-2.71-1.01-4.28-1.37-.84-.04-1.67-.1-2.51-.13-.54-.24-1.07-.87-1.54-1.17-1.91-1.21-6.82-3.82-8.22-.37-.9,2.18,1.34,4.32,2.11,5.43,.57,.77,1.3,1.64,1.7,2.51,.23,.57,.3,1.17,.54,1.78,.53,1.47,1.03,3.12,1.74,4.49,.37,.7,.77,1.44,1.23,2.08,.27,.37,.74,.54,.84,1.14-.47,.67-.5,1.67-.77,2.51-1.2,3.79-.74,8.48,.97,11.26,.53,.84,1.81,2.68,3.51,1.98,1.5-.6,1.17-2.51,1.6-4.19,.1-.41,.03-.67,.23-.94v.07c.47,.94,.94,1.84,1.37,2.78,1.04,1.64,2.84,3.35,4.35,4.49,.8,.61,1.44,1.64,2.44,2.01v-.1h-.07c-.2-.3-.5-.44-.77-.67-.6-.6-1.27-1.34-1.74-2.01-1.4-1.88-2.64-3.96-3.74-6.1-.54-1.04-1-2.18-1.44-3.22-.2-.4-.2-1.01-.53-1.21-.5,.74-1.24,1.37-1.6,2.28-.64,1.44-.7,3.22-.94,5.06-.13,.04-.07,0-.13,.07-1.07-.27-1.44-1.37-1.84-2.31-1-2.38-1.17-6.2-.3-8.95,.23-.7,1.24-2.91,.84-3.58-.2-.64-.87-1-1.24-1.51-.43-.64-.9-1.44-1.2-2.14-.8-1.88-1.21-3.95-2.07-5.83-.4-.87-1.1-1.78-1.67-2.58-.64-.91-1.34-1.54-1.84-2.61-.17-.37-.4-.97-.13-1.37,.07-.27,.2-.37,.47-.44,.43-.37,1.67,.1,2.1,.3,1.24,.5,2.27,.97,3.31,1.68,.47,.34,.97,.97,1.57,1.14h.7c1.07,.23,2.27,.07,3.28,.37,1.77,.57,3.37,1.41,4.81,2.31,4.38,2.78,7.99,6.74,10.43,11.46,.4,.77,.57,1.47,.94,2.28,.7,1.65,1.57,3.32,2.27,4.93,.7,1.58,1.37,3.18,2.38,4.49,.5,.7,2.51,1.07,3.41,1.44,.67,.3,1.7,.57,2.31,.94,1.14,.7,2.27,1.51,3.34,2.28,.53,.4,2.21,1.24,2.31,1.91"/><path class="cls-16" d="M1702.03,758.28c-.57,0-.97,.07-1.37,.17v.07h.06c.27,.53,.74,.91,1.07,1.37,.27,.54,.5,1.07,.77,1.61,.03-.03,.06-.07,.06-.07,.47-.33,.7-.87,.7-1.67-.2-.24-.23-.47-.4-.7-.2-.33-.63-.5-.9-.77"/></g><g><path class="cls-29" d="M1611.31,915.7h-7.62v-7.66h8.03c2.94,0,4.41,1.31,4.41,3.89s-1.61,3.77-4.82,3.77m5.48-7.75c-1.04-.93-2.5-1.4-4.38-1.4l-10.91,.06v18.33h2.2l-.02-7.8h8.12c2.04,0,3.64-.47,4.81-1.4,1.17-.93,1.75-2.23,1.75-3.89s-.52-2.96-1.57-3.89h0Zm14.22,13.14c-.21,.6-.57,1.14-1.04,1.56-.99,.96-2.49,1.44-4.52,1.44-1.82,0-3.21-.47-4.2-1.4-.99-.93-1.47-2.18-1.47-3.75,0-.82,.13-1.54,.38-2.17,.24-.61,.62-1.16,1.11-1.6,1.01-.92,2.4-1.38,4.17-1.38,3.94,0,5.89,1.72,5.89,5.15,0,.82-.11,1.53-.34,2.15m.4-6.76c-1.34-1.22-3.32-1.83-5.95-1.83-2.48,0-4.4,.62-5.75,1.87-1.22,1.13-1.83,2.65-1.83,4.57s.63,3.44,1.89,4.61c.7,.63,1.51,1.09,2.43,1.37s2.01,.44,3.26,.44c2.63,0,4.6-.6,5.98-1.81,1.22-1.1,1.83-2.63,1.83-4.59s-.62-3.51-1.85-4.61h-.01Zm16.64,7.28c0,2.48-2.21,3.7-6.63,3.7-1.35,0-2.49-.09-3.41-.26s-1.68-.46-2.25-.85c-.44-.3-.81-.7-1.06-1.17-.26-.47-.43-1.09-.51-1.83l2.04-.02c0,.97,.36,1.69,1.08,2.15,.77,.55,2.14,.83,4.11,.83,3.09,0,4.63-.77,4.63-2.32,0-.9-.52-1.53-1.55-1.87-.21-.07-1.46-.24-3.75-.52s-3.72-.54-4.28-.76c-1.22-.49-1.83-1.36-1.83-2.62-.05-1.16,.59-2.24,1.63-2.76,.54-.25,1.21-.44,2.02-.58s1.74-.21,2.81-.21c4.26,0,6.38,1.34,6.38,4.01h-1.96c0-1.88-1.5-2.82-4.49-2.82-1.52,0-2.66,.19-3.4,.58s-1.12,.96-1.12,1.75c0,.74,.5,1.27,1.51,1.6,.59,.17,1.95,.37,4.07,.59,1.9,.17,3.21,.41,3.92,.73,1.35,.53,2.04,1.42,2.04,2.68v-.03Zm8.08,3.36l-.84,.12-.52,.04c-1.34,0-2.31-.19-2.9-.58s-.88-1.07-.88-2.04v-8.36h-2.44v-1.23h2.42l.02-3.95h1.88v3.95h3.27v1.25l-3.27-.02v8.14c0,.61,.15,1.02,.48,1.26s.9,.35,1.72,.35c.12,.01,.25,0,.39-.01s.36-.07,.65-.15l.02,1.26h-.02Zm12.97-2.79c-.52,.42-1.11,.75-1.75,.96-.66,.22-1.41,.34-2.26,.34-3.92,0-5.88-1.61-5.88-4.86,0-1.51,.5-2.69,1.5-3.54,1-.85,2.42-1.28,4.24-1.28s3.23,.43,4.18,1.29,1.43,2.01,1.43,3.45c0,1.57-.49,2.77-1.46,3.64m3.33-9.28h-1.88l-.02,2.07c-.83-.84-1.42-1.37-1.77-1.59-1.05-.58-2.41-.87-4.07-.87-2.44,0-4.31,.56-5.59,1.67-1.22,1.02-1.83,2.51-1.83,4.45,0,.96,.15,1.81,.46,2.57s.76,1.39,1.35,1.92c1.29,1.08,3.11,1.61,5.46,1.61,2.83,0,4.82-.77,6.01-2.33v2.14c0,1.36-.43,2.42-1.29,3.17s-2.27,1.12-4.24,1.12c-1.85,0-3.17-.26-3.94-.76-.59-.39-1-1.07-1.22-2.04h-1.92c.21,1.35,.78,2.33,1.71,2.93,1.08,.69,2.9,1.04,5.46,1.04,4.9,0,7.35-1.82,7.35-5.46v-11.65h-.03Zm10.14,1.23c-.52-.09-1.05-.13-1.57-.14-3.08,0-4.62,1.69-4.62,5.07v5.88h-1.85l-.02-12.03,1.88,.02v2.15h.1c.32-.85,.81-1.49,1.5-1.92,.75-.44,1.86-.63,3.34-.63h1.26v1.61h0Zm1.75,4.04c.24-1.37,.77-2.43,1.59-3.18,.54-.43,1.15-.76,1.83-.98s1.45-.33,2.3-.33c1.67,0,3.03,.46,4.08,1.37s1.6,1.95,1.6,3.11h-11.39m11.58-3.71c-.69-.68-1.52-1.18-2.44-1.46-.97-.32-2.11-.47-3.41-.47-2.43,0-4.31,.56-5.65,1.69s-2.01,2.67-2.01,4.61,.64,3.5,1.93,4.63c1.39,1.26,3.35,1.89,5.89,1.89,1.01,0,1.95-.12,2.8-.34s1.61-.55,2.25-.97c1.13-.81,1.84-1.81,2.15-3h-2.04c-.7,2.04-2.43,3.09-5.2,3.09-1.96,0-3.46-.5-4.52-1.51-.9-.88-1.36-1.98-1.36-3.35h13.37c0-2.04-.58-3.64-1.79-4.82h.04Z"/><path class="cls-45" d="M1717.5,920.02c0,3.57-2.88,5.36-8.64,5.36-3.45,0-5.97-.61-7.56-1.85-1.31-1.01-1.95-2.55-1.95-4.63h2.33c0,3.33,2.39,5,7.19,5,2.3,0,3.96-.34,4.98-1.02,.87-.6,1.31-1.55,1.31-2.83s-.59-2.16-1.77-2.68c-.67-.29-2.31-.62-4.9-1.04-3.27-.5-5.39-1-6.36-1.49-1.4-.73-2.11-1.98-2.11-3.74,0-1.64,.58-2.86,1.79-3.66,1.28-.88,3.49-1.32,6.62-1.32,5.65,0,8.47,1.88,8.47,5.63h-2.35c0-2.81-2.1-4.21-6.28-4.21-2.1,0-3.64,.28-4.61,.85-.92,.6-1.38,1.49-1.38,2.66s.59,2.08,1.77,2.58c.63,.29,2.48,.69,5.55,1.2,2.89,.43,4.84,.94,5.84,1.52,1.38,.71,2.07,1.94,2.07,3.68h-.02Zm18.84,1.82c-.87,.7-1.87,1.23-2.94,1.56-1.09,.35-2.31,.52-3.67,.52-2.77,0-4.99-.73-6.69-2.23s-2.55-3.47-2.55-5.95,.84-4.59,2.53-6.03,3.94-2.16,6.71-2.16,5.05,.75,6.66,2.26c.85,.73,1.48,1.61,1.89,2.58,.41,.97,.61,2.1,.61,3.36,0,2.57-.86,4.6-2.56,6.09m1.23,1.22c1.21-.85,2.1-1.9,2.68-3.1s.87-2.63,.87-4.2c0-2.85-.95-5.13-2.84-6.86-1.01-.94-2.23-1.65-3.65-2.1s-3.06-.69-4.9-.69c-3.57,0-6.37,.87-8.41,2.6-2.04,1.73-3.05,4.08-3.05,7.04s1.03,5.21,3.06,6.98c2.04,1.77,4.86,2.66,8.42,2.66,1.39,0,2.6-.09,3.64-.28s1.92-.48,2.64-.87l3.43,2.37,1.43-1.31-3.32-2.25h0Zm20.91,1.88h-15.85v-18.35l2.18-.04v16.86h13.69l-.02,1.53h0Z"/><path class="cls-28" d="M1689.91,891.81c.29-2.39,.2-2.74,1.98-2.36l.44,.04c1.37,.06,3.16-.22,4.22-.71,2.27-1.05,3.61-2.81,1.38-2.35-5.1,1.05-5.45-.67-5.45-.67,5.38-7.99,7.63-18.13,5.69-20.61-5.3-6.77-14.47-3.57-14.62-3.48h-.05c-1.01-.2-2.14-.33-3.4-.35-2.31-.04-4.06,.6-5.4,1.61,0,0-16.36-6.74-15.62,8.48,.16,3.24,4.64,24.5,9.98,18.08,1.95-2.35,3.84-4.33,3.84-4.33,.94,.62,2.04,.94,3.24,.83l.09-.08c-.03,.3-.02,.61,.04,.91-1.38,1.54-.97,1.81-3.72,2.37-2.78,.57-1.15,1.6-.08,1.86,1.29,.32,4.29,.78,6.31-2.05l-.08,.32c.54,.43,.5,3.1,.58,5.01,.08,1.91,.2,3.69,.59,4.74,.39,1.05,.85,3.76,4.47,2.98,3.02-.65,5.33-1.58,5.54-10.25"/><path class="cls-25" d="M1697.93,886.44c-5.1,1.05-5.45-.67-5.45-.67,5.38-7.99,7.63-18.13,5.69-20.61-5.3-6.77-14.47-3.57-14.62-3.48h-.05c-1.01-.2-2.14-.33-3.4-.35-2.31-.04-4.06,.6-5.4,1.61,0,0-16.36-6.74-15.62,8.48,.16,3.24,4.64,24.5,9.98,18.08,1.95-2.35,3.84-4.33,3.84-4.33,.94,.62,2.06,.94,3.23,.83l.09-.08c-.03,.29-.01,.58,.04,.91-1.38,1.54-.97,1.81-3.72,2.37-2.78,.57-1.15,1.6-.08,1.86,1.29,.32,4.29,.78,6.31-2.05l-.08,.32c.54,.43,.92,2.81,.85,4.96s-.11,3.63,.32,4.79c.43,1.16,.85,3.76,4.47,2.98,3.02-.65,4.59-2.33,4.81-5.13,.15-1.99,.5-1.7,.53-3.47l.28-.84c.32-2.7,.05-3.57,1.91-3.16l.44,.04c1.37,.06,3.16-.22,4.22-.71,2.27-1.05,3.61-2.81,1.38-2.35h.04Z"/><g><g><path class="cls-35" d="M1679.03,887.98c-.14,5.02,.04,10.07,.53,11.3,.49,1.23,1.54,3.62,5.16,2.84,3.02-.65,4.12-1.9,4.6-4.67l1.12-8.85m-15.72-25.79s-16.37-6.69-15.62,8.53c.15,3.24,4.64,24.5,9.98,18.08,1.95-2.33,3.72-4.19,3.72-4.19m10.75-23.64c-.58,.18,9.11-3.54,14.61,3.5,1.94,2.48-.29,12.62-5.69,20.61"/><path class="cls-37" d="M1692.45,885.7s.35,1.73,5.45,.67c2.23-.46,.88,1.29-1.38,2.35-1.86,.86-6.03,1.08-6.1-.11-.18-3.08,2.19-2.14,2.02-2.91-.15-.69-1.21-1.38-1.91-3.07-.61-1.48-8.39-12.86,2.16-11.17,.39-.08-2.75-10.04-12.63-10.2s-9.55,12.14-9.55,12.14"/></g><g><path class="cls-36" d="M1676.26,886.75c-1.38,1.54-.97,1.81-3.72,2.37-2.78,.57-1.15,1.6-.08,1.86,1.29,.32,4.29,.78,6.31-2.05,.62-.86,0-2.24-.85-2.59-.41-.17-.96-.38-1.66,.4h0Z"/><path class="cls-35" d="M1676.17,886.72c-.14-.9,.3-1.98,.76-3.24,.7-1.89,2.33-3.78,1.03-9.77-.96-4.46-7.44-.93-7.44-.32s.29,3.07-.11,5.94c-.53,3.74,2.38,6.91,5.73,6.58"/></g></g><g><path class="cls-9" d="M1674.63,873.3c-.03,.21,.38,.76,.91,.83s.99-.36,1.01-.56-.38-.43-.91-.51-.99,.03-1.01,.24h0Z"/><path class="cls-13" d="M1690.79,872.88c.03,.21-.38,.76-.91,.83s-.99-.36-1.01-.56,.38-.43,.91-.51,.99,.03,1.01,.24h0Z"/></g><path class="cls-35" d="M1692.69,871.45c.09,1.62-.35,2.73-.4,4.45-.08,2.51,1.2,5.38-.73,8.26"/></g><g><path d="M1407.39,780.06l2.61-6.76-.11-.42-25.84,6.81c2.75-3.98,1.81-7.18,1.81-7.18,0,0-8.25,5.27-14.49,5.13-6.24-.14-8.25-1.8-17.82,1.25-9.57,3.05-12.27,12.41-15.04,14.42-2.77,2.01-11.48,8.56-11.48,8.56l.02,.12,7.85-2.5s-2.15,2.03-6.72,8.19c0,0-.08-.07-.21-.2v.04s3.68,5.62,7.29,4.58c.36-.11,.77-.28,1.22-.51,1.45,.81,3.35,1.6,5.44,1.82,0,0-1.42-1.65-2.6-3.52,.32-.21,.65-.42,.98-.64l-.15,.11,2.99,1.1-.33-2.81s.02-.01,.03-.02l2.94,1.08-.36-2.55c.37-.19,.74-.38,1.11-.55l3.06-11.58,12.65-8.63-1.01,2.53c-2.57,6.31-7.38,7.8-7.38,7.8l-2.01,.76c-1.49,1.77-2.12,2.2-2.64,8.14,1.21-.3,2.36-.38,3.4-.09,5.41,1.46,7.28,7.97,5.82,9.78-.36,.45-1.23,1.22-2.33,2.13h-2.2l-.03,1.78c-.08,.06-.15,.12-.22,.18h-2.23l-.03,1.74c-.2,.15-.39,.3-.58,.44-2.1,.04-4.76-1.79-4.76-1.79,0,1.67,1.39,4.23,1.39,4.23,0,0,.09-.04,.25-.12-.14,.1-.21,.15-.21,.15,0,0,5.62,3.74,9.15,2.36,3.14-1.23,11.28-7.65,18.31-10.69l21.26-5.6,2.8-7.26-16.2,4.27v-6.52l19.01-5.01,2.8-7.26-21.81,5.75v-6.53l24.61-6.49Zm-38.59,13.83l5.04-1.33,.07,.25-1.57,4.08-5.23,1.38,1.69-4.38Zm1.74,8.73l-5.23,1.38,1.69-4.38,5.04-1.33,.07,.25-1.57,4.08Zm6.81-1.46l-5.23,1.38,1.69-4.38,5.04-1.33,.07,.25-1.57,4.08Z"/><g><path d="M1233.92,788.84l.16-.83c.46-2.41,1.38-4.5,3.08-6.08,1.25-1.17,3.08-1.87,5.16-1.87,1.33,0,2.33,.21,2.96,.42l-1.17,4c-.5-.17-.96-.25-1.62-.25-1.87,0-2.96,1.96-3.29,3.75l-.17,.87h3.96l-.71,3.67h-3.87l-3.21,16.7h-5.21l3.21-16.7"/><path d="M1250.95,809.2c.04-1.08,.12-2.21,.16-3.41h-.12c-1.62,2.71-3.58,3.75-5.21,3.75-2.96,0-4.41-2.54-4.41-6.12,0-6.16,3.08-14.91,11.83-14.91,2.04,0,4.08,.33,5.33,.83l-2.25,11.32c-.5,2.37-.88,6.33-.83,8.54h-4.5Zm1.87-16.7c-.42-.08-.79-.12-1.08-.12-3.41,0-5.25,6.79-5.29,9.79,0,1.79,.25,3.08,1.54,3.08,1.42,0,2.75-2.33,3.5-6.04l1.33-6.71Z"/><path d="M1259.16,804.75c.83,.46,1.83,.87,3.29,.83,1.5-.04,2.33-1,2.33-2.29,0-1.12-.54-1.92-1.96-3.04-1.75-1.42-2.58-3.21-2.58-4.96,0-3.75,2.91-6.79,7.54-6.79,1.79,0,3.08,.33,3.83,.75l-1.12,3.79c-.58-.33-1.54-.62-2.41-.62-1.67,0-2.71,.87-2.71,2.25,0,1.04,.58,1.67,1.54,2.46,2.29,1.75,3.04,3.75,3.04,5.33,0,4.5-3.13,7-7.79,7-1.87,0-3.54-.54-4.25-1.04l1.25-3.67Z"/><path d="M1282.15,783.34l-1.04,5.5h8l-.67,3.67h-8.04l-1.79,9.45c-.12,.71-.17,1.33-.17,1.71,0,1.25,.62,1.71,1.58,1.71,.38,0,.92,0,1.42-.08l-.62,3.91c-.96,.25-2.12,.33-3.13,.33-3.12,0-4.67-1.75-4.67-4.5,0-.92,.17-2.04,.38-3.04l1.79-9.5h-2.37l.71-3.67h2.37l.83-4.21,5.41-1.29Z"/><path d="M1283.4,809.2l3.91-20.37h5.21l-3.91,20.37h-5.21Zm4.87-25.57c0-1.5,1.08-3.21,2.91-3.21,1.71,0,2.5,1.29,2.46,2.71-.04,2.08-1.46,3.25-3,3.25-1.67,0-2.41-1.21-2.37-2.75Z"/><path d="M1295.75,788.84l.16-.83c.46-2.41,1.38-4.5,3.08-6.08,1.25-1.17,3.08-1.87,5.16-1.87,1.33,0,2.33,.21,2.96,.42l-1.17,4c-.5-.17-.96-.25-1.62-.25-1.87,0-2.96,1.96-3.29,3.75l-.17,.87h6.04l-.71,3.67h-5.96l-3.21,16.7h-5.21l3.21-16.7"/><path d="M1310.16,788.84l.12,9.79c.04,1.92,.08,3.33,.04,4.83h.08c.42-1.67,.83-3.04,1.54-5.21l3.08-9.41h5.25l-6.66,16.03c-2,4.67-4.29,8.58-6.79,10.87-1.21,1.12-2.62,2-3.5,2.37l-2.08-4.25c.92-.46,1.87-1,2.71-1.67,1.17-.96,2.29-2.12,2.79-3.25,.08-.29,.16-.5,.12-.92l-2.17-19.2h5.46Z"/></g></g><path class="cls-26" d="M1243.95,890.17v-17.15h21.41v-1h-21.41v-15.65h22.77v-1h-23.77v35.81h23.97v-1h-22.97Zm42.27-24.77l-8.88,11.68-8.68-11.68h-1.3l9.38,12.44-10.28,13.34h1.2l9.68-12.59,9.73,12.59h1.25l-10.33-13.34,9.43-12.44h-1.2Zm5.11,34.6v-16.05h.1c.6,2.34,1.79,4.22,3.56,5.64,1.77,1.42,4.03,2.13,6.77,2.13,1.77,0,3.34-.36,4.71-1.08,1.37-.72,2.52-1.7,3.44-2.93,.92-1.24,1.62-2.67,2.11-4.31,.48-1.64,.73-3.36,.73-5.16,0-1.94-.25-3.73-.75-5.37-.5-1.64-1.23-3.06-2.18-4.26-.95-1.2-2.11-2.14-3.46-2.81-1.35-.67-2.88-1-4.59-1-1.3,0-2.52,.19-3.64,.58-1.12,.38-2.11,.93-2.98,1.63-.87,.71-1.64,1.54-2.26,2.48-.64,.95-1.12,2-1.45,3.13h-.1v-7.22h-1v34.6h1Zm10.43-9.23c-3.14,0-5.67-1.08-7.57-3.23-1.91-2.16-2.86-5.26-2.86-9.3,0-1.67,.23-3.26,.7-4.76,.47-1.5,1.14-2.83,2.03-3.96,.89-1.14,1.98-2.04,3.28-2.71,1.3-.67,2.78-1,4.41-1s3.13,.33,4.39,1c1.25,.67,2.29,1.58,3.11,2.73,.82,1.15,1.44,2.47,1.86,3.96,.42,1.49,.63,3.07,.63,4.74,0,1.5-.19,3-.58,4.49-.38,1.49-.98,2.83-1.78,4.01-.8,1.19-1.83,2.16-3.08,2.91-1.25,.75-2.77,1.13-4.54,1.13h0Zm16.5,.4v-14.59c0-1.4,.2-2.78,.6-4.11,.4-1.34,1.02-2.52,1.86-3.54,.84-1.02,1.9-1.82,3.18-2.41,1.29-.59,2.82-.83,4.59-.73v-1c-1.54-.03-2.88,.13-4.04,.5-1.15,.37-2.15,.87-2.98,1.5-.84,.64-1.5,1.38-2.01,2.23-.5,.85-.87,1.77-1.1,2.73h-.1v-6.37h-1v25.78h1Zm11.48-12.69h21.56c.07-1.77-.11-3.48-.53-5.11-.42-1.64-1.09-3.09-2.01-4.36-.92-1.27-2.11-2.29-3.56-3.06-1.45-.77-3.18-1.15-5.19-1.15-1.44,0-2.84,.3-4.21,.9-1.37,.6-2.57,1.48-3.61,2.63s-1.87,2.57-2.51,4.24c-.64,1.67-.95,3.58-.95,5.72,0,1.91,.22,3.69,.65,5.34s1.1,3.09,2.01,4.31c.9,1.22,2.06,2.16,3.49,2.83,1.42,.67,3.13,.99,5.14,.95,2.94,0,5.42-.83,7.42-2.48,2.01-1.66,3.19-3.99,3.56-7h-1c-.43,2.84-1.55,4.97-3.33,6.39-1.79,1.42-4.04,2.13-6.75,2.13-1.84,0-3.39-.32-4.66-.95-1.27-.64-2.31-1.5-3.11-2.61-.8-1.1-1.4-2.4-1.78-3.89-.38-1.49-.59-3.1-.63-4.84h0Zm20.56-1h-20.56c.1-1.81,.43-3.43,1-4.86,.57-1.44,1.31-2.67,2.23-3.69,.92-1.02,1.99-1.8,3.21-2.33,1.22-.53,2.53-.8,3.94-.8,1.67,0,3.14,.31,4.41,.93,1.27,.62,2.33,1.46,3.18,2.53,.85,1.07,1.5,2.32,1.93,3.74,.43,1.42,.65,2.92,.65,4.49h0Zm21.81-4.46h1c0-2.88-.84-4.96-2.51-6.27-1.67-1.3-3.95-1.96-6.82-1.96-1.6,0-2.96,.2-4.06,.6-1.1,.4-2.01,.92-2.71,1.55-.7,.64-1.2,1.34-1.5,2.11-.3,.77-.45,1.5-.45,2.21,0,1.4,.25,2.52,.75,3.36,.5,.84,1.29,1.49,2.36,1.96,.74,.33,1.57,.64,2.51,.9,.94,.27,2.02,.55,3.26,.85,1.1,.27,2.19,.54,3.26,.8,1.07,.27,2.01,.63,2.83,1.08,.82,.45,1.49,1.03,2.01,1.73,.52,.7,.78,1.62,.78,2.76s-.26,2.04-.78,2.81c-.51,.77-1.19,1.41-1.98,1.88-.8,.48-1.7,.84-2.68,1.05-.99,.22-1.95,.33-2.88,.33-3.04,0-5.37-.68-7-2.03-1.62-1.35-2.43-3.49-2.43-6.39h-1c0,3.24,.88,5.62,2.63,7.12,1.76,1.5,4.35,2.26,7.8,2.26,1.1,0,2.21-.13,3.33-.38,1.12-.25,2.12-.66,3.01-1.23,.88-.56,1.62-1.32,2.16-2.21,.55-.9,.83-2.01,.83-3.31s-.24-2.24-.73-3.01c-.48-.77-1.12-1.4-1.91-1.91-.79-.5-1.67-.89-2.66-1.18-.99-.29-1.99-.56-2.98-.83-1.23-.32-2.46-.64-3.69-.95-1.05-.27-2.03-.59-2.93-.95-.87-.37-1.56-.89-2.08-1.58-.52-.69-.78-1.66-.78-2.93,0-.23,.07-.65,.2-1.25,.13-.6,.45-1.21,.95-1.83,.5-.62,1.27-1.17,2.31-1.65,1.04-.48,2.46-.73,4.26-.73,1.24,0,2.37,.13,3.38,.4,1.02,.27,1.9,.69,2.63,1.28,.74,.59,1.3,1.33,1.71,2.23,.4,.9,.6,2.01,.6,3.31h0Zm23.22,0h1c0-2.88-.84-4.96-2.51-6.27s-3.94-1.96-6.82-1.96c-1.6,0-2.96,.2-4.06,.6-1.1,.4-2.01,.92-2.71,1.55-.7,.64-1.2,1.34-1.5,2.11-.3,.77-.45,1.5-.45,2.21,0,1.4,.25,2.52,.75,3.36,.5,.84,1.29,1.49,2.36,1.96,.74,.33,1.57,.64,2.51,.9,.94,.27,2.02,.55,3.26,.85,1.1,.27,2.19,.54,3.26,.8,1.07,.27,2.01,.63,2.83,1.08,.82,.45,1.49,1.03,2.01,1.73,.52,.7,.78,1.62,.78,2.76s-.26,2.04-.78,2.81c-.51,.76-1.19,1.41-1.98,1.88-.8,.48-1.7,.84-2.68,1.05-.99,.22-1.95,.33-2.88,.33-3.04,0-5.37-.68-7-2.03-1.62-1.35-2.43-3.49-2.43-6.39h-1c0,3.24,.88,5.62,2.63,7.12,1.76,1.5,4.35,2.26,7.8,2.26,1.1,0,2.21-.13,3.33-.38,1.12-.25,2.12-.66,3.01-1.23,.88-.56,1.62-1.32,2.16-2.21,.55-.9,.83-2.01,.83-3.31s-.24-2.24-.73-3.01c-.48-.77-1.12-1.4-1.91-1.91-.79-.5-1.67-.89-2.66-1.18-.99-.29-1.99-.56-2.98-.83-1.23-.32-2.46-.64-3.69-.95-1.05-.27-2.03-.59-2.93-.95-.87-.37-1.56-.89-2.08-1.58-.52-.69-.78-1.66-.78-2.93,0-.23,.07-.65,.2-1.25,.13-.6,.45-1.21,.95-1.83,.5-.62,1.27-1.17,2.31-1.65,1.04-.48,2.46-.73,4.26-.73,1.24,0,2.37,.13,3.38,.4,1.02,.27,1.9,.69,2.63,1.28s1.3,1.33,1.71,2.23c.4,.9,.6,2.01,.6,3.31h0Z"/><g><path class="cls-53" d="M551.37,818.01c-1.59,0-3.03-.29-4.3-.86s-2.28-1.42-3.01-2.55c-.74-1.12-1.11-2.51-1.11-4.16,0-1.42,.26-2.59,.79-3.52,.52-.93,1.24-1.67,2.15-2.23,.91-.56,1.93-.98,3.07-1.27,1.14-.29,2.32-.5,3.55-.63,1.47-.15,2.67-.29,3.59-.42,.92-.13,1.59-.32,2.01-.59s.63-.69,.63-1.25v-.1c0-1.23-.37-2.19-1.1-2.87s-1.79-1.02-3.16-1.02c-1.45,0-2.6,.32-3.45,.95-.85,.63-1.42,1.38-1.71,2.24l-5.54-.79c.44-1.53,1.16-2.81,2.16-3.84,1-1.03,2.23-1.81,3.69-2.33,1.45-.52,3.06-.78,4.82-.78,1.21,0,2.42,.14,3.62,.43s2.3,.75,3.29,1.4,1.79,1.53,2.4,2.65c.61,1.11,.91,2.51,.91,4.18v16.84h-5.7v-3.46h-.2c-.36,.7-.87,1.35-1.52,1.96-.65,.61-1.46,1.09-2.44,1.46-.98,.37-2.12,.55-3.43,.55Zm1.54-4.36c1.19,0,2.22-.24,3.1-.71,.87-.48,1.55-1.11,2.02-1.89s.71-1.64,.71-2.57v-2.96c-.19,.15-.5,.29-.94,.43-.44,.13-.94,.25-1.48,.34-.55,.1-1.09,.19-1.62,.26s-1,.14-1.39,.2c-.88,.12-1.68,.32-2.38,.59-.7,.27-1.25,.65-1.65,1.14-.4,.49-.61,1.11-.61,1.88,0,1.09,.4,1.92,1.2,2.47,.8,.56,1.81,.83,3.05,.83Z"/><path class="cls-53" d="M575.48,792.34l5.08,9.29,5.16-9.29h6.27l-7.58,12.58,7.72,12.58h-6.24l-5.32-9.06-5.27,9.06h-6.29l7.67-12.58-7.47-12.58h6.29Z"/><path class="cls-53" d="M599.56,788.77c-.95,0-1.76-.31-2.43-.94-.67-.63-1.01-1.38-1.01-2.27s.34-1.66,1.02-2.29,1.48-.94,2.42-.94,1.74,.31,2.42,.94c.67,.63,1.01,1.39,1.01,2.29s-.34,1.64-1.01,2.27c-.67,.63-1.48,.94-2.42,.94Zm-2.98,28.73v-25.16h5.93v25.16h-5.93Z"/><path class="cls-53" d="M619.57,817.99c-2.46,0-4.59-.54-6.39-1.62s-3.2-2.59-4.19-4.54c-.99-1.94-1.48-4.21-1.48-6.81s.49-4.88,1.48-6.83c.99-1.95,2.38-3.47,4.19-4.55s3.93-1.62,6.39-1.62,4.59,.54,6.39,1.62,3.2,2.6,4.19,4.55c.99,1.96,1.48,4.23,1.48,6.83s-.49,4.87-1.48,6.81c-.99,1.94-2.38,3.46-4.19,4.54s-3.93,1.62-6.39,1.62Zm.03-4.75c1.33,0,2.45-.37,3.34-1.11,.9-.74,1.56-1.73,2.01-2.97,.44-1.24,.66-2.63,.66-4.16s-.22-2.93-.66-4.19c-.44-1.25-1.11-2.25-2.01-2.99-.9-.74-2.01-1.11-3.34-1.11s-2.5,.37-3.4,1.11c-.9,.74-1.57,1.74-2.01,2.99-.44,1.25-.66,2.65-.66,4.19s.22,2.92,.66,4.16c.44,1.25,1.11,2.24,2.01,2.97s2.03,1.11,3.4,1.11Z"/><path class="cls-53" d="M656.53,798.99l-5.41,.59c-.15-.55-.42-1.06-.79-1.54-.38-.48-.88-.87-1.52-1.16s-1.41-.44-2.33-.44c-1.23,0-2.27,.27-3.1,.8-.84,.54-1.25,1.23-1.24,2.08-.01,.73,.26,1.33,.81,1.79,.55,.46,1.47,.83,2.74,1.13l4.29,.92c2.38,.51,4.15,1.33,5.32,2.44,1.16,1.11,1.75,2.57,1.76,4.37-.01,1.58-.47,2.98-1.38,4.19-.91,1.21-2.18,2.15-3.79,2.83-1.62,.68-3.47,1.02-5.57,1.02-3.08,0-5.56-.65-7.44-1.94-1.88-1.29-3-3.1-3.36-5.41l5.78-.56c.26,1.14,.82,1.99,1.67,2.57,.85,.58,1.96,.87,3.33,.87s2.54-.29,3.4-.87c.86-.58,1.29-1.29,1.29-2.15,0-.72-.28-1.32-.83-1.79-.55-.47-1.41-.83-2.56-1.08l-4.29-.9c-2.41-.5-4.2-1.35-5.36-2.55-1.16-1.2-1.73-2.71-1.72-4.55-.01-1.55,.41-2.9,1.27-4.04,.86-1.14,2.05-2.03,3.59-2.65,1.53-.63,3.31-.94,5.31-.94,2.95,0,5.27,.63,6.97,1.88,1.7,1.26,2.75,2.95,3.15,5.09Z"/></g><g><path class="cls-53" d="M557.21,874.84v4.59h-14.87v-4.59h14.87Zm-11.15,25.16v-27.54c0-1.69,.35-3.1,1.06-4.23,.7-1.12,1.65-1.97,2.84-2.52,1.19-.56,2.51-.83,3.96-.83,1.03,0,1.94,.08,2.74,.25,.8,.16,1.39,.31,1.77,.44l-1.18,4.59c-.25-.08-.57-.16-.95-.24s-.81-.12-1.28-.12c-1.1,0-1.88,.26-2.33,.79-.45,.53-.68,1.29-.68,2.27v27.14h-5.95Z"/><path class="cls-53" d="M573,900.49c-2.52,0-4.7-.53-6.53-1.58s-3.23-2.55-4.22-4.49-1.47-4.22-1.47-6.86,.49-4.86,1.48-6.82c.99-1.96,2.37-3.49,4.15-4.59,1.78-1.1,3.87-1.65,6.27-1.65,1.55,0,3.02,.25,4.4,.75s2.6,1.26,3.67,2.3c1.06,1.04,1.9,2.36,2.51,3.96,.61,1.6,.92,3.5,.92,5.71v1.82h-20.62v-4h14.94c-.01-1.14-.26-2.15-.74-3.04-.48-.89-1.15-1.59-2.01-2.1-.86-.51-1.85-.77-2.99-.77-1.21,0-2.28,.29-3.19,.88-.92,.58-1.63,1.35-2.14,2.29-.51,.95-.77,1.98-.78,3.1v3.49c0,1.46,.27,2.72,.8,3.76,.53,1.04,1.28,1.84,2.24,2.39,.96,.55,2.09,.83,3.37,.83,.86,0,1.64-.12,2.34-.37,.7-.25,1.31-.61,1.82-1.09s.9-1.08,1.16-1.79l5.54,.62c-.35,1.46-1.01,2.74-1.99,3.83-.98,1.09-2.23,1.93-3.74,2.52s-3.25,.89-5.21,.89Z"/><path class="cls-53" d="M601.76,874.84v4.59h-14.46v-4.59h14.46Zm-10.89-6.03h5.93v23.62c0,.8,.12,1.41,.37,1.83,.25,.42,.57,.71,.97,.86,.4,.15,.85,.23,1.34,.23,.37,0,.71-.03,1.02-.08,.31-.05,.55-.1,.71-.15l1,4.63c-.32,.11-.77,.23-1.35,.36-.58,.13-1.3,.21-2.14,.23-1.49,.04-2.82-.18-4.01-.68-1.19-.5-2.13-1.27-2.83-2.32-.69-1.05-1.03-2.36-1.02-3.93v-24.6Z"/><path class="cls-53" d="M617.7,900.49c-2.51,0-4.67-.55-6.46-1.65-1.8-1.1-3.18-2.63-4.14-4.58-.97-1.95-1.45-4.2-1.45-6.74s.49-4.81,1.47-6.77,2.37-3.49,4.17-4.59c1.8-1.1,3.92-1.65,6.38-1.65,2.04,0,3.85,.37,5.43,1.12,1.58,.75,2.84,1.8,3.78,3.16,.94,1.36,1.47,2.95,1.61,4.76h-5.67c-.23-1.21-.77-2.23-1.63-3.04-.86-.81-2-1.22-3.43-1.22-1.21,0-2.28,.32-3.19,.97-.92,.65-1.63,1.58-2.14,2.79-.51,1.21-.76,2.67-.76,4.36s.25,3.19,.75,4.41,1.21,2.17,2.12,2.83c.91,.66,1.98,.99,3.22,.99,.87,0,1.66-.17,2.35-.5,.69-.33,1.27-.82,1.74-1.45,.47-.63,.79-1.4,.97-2.31h5.67c-.14,1.78-.67,3.36-1.57,4.73-.91,1.37-2.14,2.44-3.7,3.21-1.56,.77-3.4,1.15-5.5,1.15Z"/><path class="cls-53" d="M639.29,885.26v14.74h-5.93v-33.55h5.8v12.66h.29c.59-1.42,1.5-2.54,2.74-3.37,1.24-.82,2.82-1.24,4.74-1.24,1.75,0,3.27,.37,4.57,1.1,1.3,.73,2.31,1.8,3.02,3.21,.71,1.41,1.07,3.13,1.07,5.16v16.02h-5.93v-15.1c0-1.69-.43-3.01-1.3-3.96-.87-.94-2.08-1.42-3.64-1.42-1.05,0-1.98,.23-2.81,.68-.82,.45-1.47,1.11-1.93,1.96s-.7,1.88-.7,3.1Z"/></g><g><g><path class="cls-52" d="M933.99,846.77l-3.99-13.54h2.72l2.65,9.95h.13l2.66-9.95h2.72l2.65,9.9h.13l2.64-9.9h2.72l-3.98,13.54h-2.69l-2.75-9.78h-.2l-2.75,9.78h-2.68Z"/><path class="cls-52" d="M954.47,846.77l-3.99-13.54h2.72l2.65,9.95h.13l2.66-9.95h2.72l2.64,9.9h.13l2.64-9.9h2.72l-3.98,13.54h-2.69l-2.75-9.78h-.2l-2.75,9.78h-2.68Z"/><path class="cls-52" d="M974.95,846.77l-3.99-13.54h2.72l2.65,9.95h.13l2.66-9.95h2.72l2.64,9.9h.13l2.64-9.9h2.72l-3.98,13.54h-2.69l-2.75-9.78h-.2l-2.75,9.78h-2.68Z"/></g><g><polygon class="cls-2" points="930.99 850.77 924.65 829.23 954.38 829.23 948.05 850.77 930.99 850.77"/><polygon class="cls-2" points="951.47 850.77 945.14 829.23 974.86 829.23 968.54 850.77 951.47 850.77"/><polygon class="cls-2" points="971.96 850.77 965.62 829.23 995.34 829.23 989.02 850.77 971.96 850.77"/></g><g><path class="cls-52" d="M933.99,846.77l-3.99-13.54h2.72l2.65,9.95h.13l2.66-9.95h2.72l2.65,9.9h.13l2.64-9.9h2.72l-3.98,13.54h-2.69l-2.75-9.78h-.2l-2.75,9.78h-2.68Z"/><path class="cls-52" d="M954.47,846.77l-3.99-13.54h2.72l2.65,9.95h.13l2.66-9.95h2.72l2.64,9.9h.13l2.64-9.9h2.72l-3.98,13.54h-2.69l-2.75-9.78h-.2l-2.75,9.78h-2.68Z"/><path class="cls-52" d="M974.95,846.77l-3.99-13.54h2.72l2.65,9.95h.13l2.66-9.95h2.72l2.64,9.9h.13l2.64-9.9h2.72l-3.98,13.54h-2.69l-2.75-9.78h-.2l-2.75,9.78h-2.68Z"/></g></g><g><path class="cls-42" d="M1599.53,509.65h-9.53v-3.39h22.82v3.39h-9.53v26.82h-3.77v-26.82h0Z"/><path class="cls-42" d="M1616.38,543.63v-2.97c.31,.06,.73,.13,1.17,.13,2.3,0,3.58-.59,4.46-3.06l.44-1.24-8.08-21.8h3.89l6.01,18.13h.08l6.03-18.13h3.83l-8.5,23.14c-1.55,4.17-3.45,5.97-7.39,5.97-.71,0-1.49-.08-1.95-.17Z"/><path class="cls-42" d="M1637.09,514.7h3.64v3.69h.08c1.36-2.53,3.79-4.1,6.91-4.1,5.57,0,9.25,4.44,9.25,11.31v.02c0,6.87-3.73,11.29-9.19,11.29-3.08,0-5.61-1.55-6.97-4.06h-.08v10.97h-3.64v-29.1h0Zm16.16,10.91v-.02c0-5-2.39-8.08-6.24-8.08s-6.3,3.2-6.3,8.08v.02c0,4.86,2.64,8.06,6.3,8.06,3.85,0,6.24-3.1,6.24-8.06Z"/><path class="cls-42" d="M1659.58,525.67v-.02c0-6.74,3.85-11.37,9.8-11.37s9.57,4.42,9.57,10.95v1.34h-15.68c.08,4.48,2.55,7.1,6.43,7.1,2.76,0,4.71-1.38,5.34-3.25l.06-.19h3.58l-.04,.21c-.71,3.6-4.27,6.45-9.02,6.45-6.26,0-10.03-4.38-10.03-11.22h0Zm3.75-1.95h11.91c-.36-4.23-2.7-6.22-5.88-6.22s-5.63,2.16-6.03,6.22Z"/><path d="M1682,521.38v-.04c0-9.57,5.38-15.58,13.94-15.58s13.9,6.01,13.9,15.58v.04c0,9.59-5.34,15.6-13.9,15.6s-13.94-6.01-13.94-15.6Zm23.99,0v-.04c0-7.41-3.89-12.1-10.05-12.1s-10.09,4.67-10.09,12.1v.04c0,7.43,3.89,12.12,10.09,12.12s10.05-4.75,10.05-12.12Z"/><path d="M1714.54,506.26h11.33c5.82,0,9.63,3.56,9.63,9v.04c0,4.19-2.3,7.43-6.07,8.63l6.99,12.54h-4.42l-6.47-11.96h-7.22v11.96h-3.77v-30.21h0Zm10.99,14.93c3.87,0,6.07-2.09,6.07-5.8v-.04c0-3.6-2.37-5.74-6.24-5.74h-7.06v11.57h7.22Z"/><path d="M1740.23,506.26h4.36l10.47,25.46h.13l10.47-25.46h4.36v30.21h-3.52v-23.35h-.13l-9.65,23.35h-3.18l-9.65-23.35h-.13v23.35h-3.52v-30.21h0Z"/></g><g><path class="cls-46" d="M210.61,513.73h5.39l11.42,18.26v-18.26h4.97v25.87h-5.35l-11.46-18.22v18.22h-4.97v-25.87Zm44.01,25.87h-4.63v-2.89c-1.06,2.03-3.2,3.18-5.92,3.18-4.3,0-7.09-3.03-7.09-7.39v-11.52h4.63v10.57c0,2.55,1.58,4.32,3.96,4.32,2.6,0,4.41-2,4.41-4.73v-10.16h4.63v18.63h0Zm16.13-.29l-4.45-6.21-4.45,6.21h-4.94l6.86-9.72-6.33-8.91h5.05l3.81,5.36,3.77-5.36h5.09l-6.37,8.91,6.86,9.72h-4.9Zm14.32-23.95v5.62h5.28v3.81h-5.28v9.25c0,.31,.13,.61,.35,.83,.22,.22,.53,.34,.84,.34h4.08v4.39h-3.05c-4.15,0-6.86-2.37-6.86-6.5v-8.31h-3.73v-3.81h2.34c1.09,0,1.73-.64,1.73-1.69v-3.92s4.3,0,4.3,0Zm16.96,18.39v-20.01h4.97v18.48c0,4.99-2.45,7.39-6.59,7.39h-5.79v-4.39h5.92c.4,0,.78-.15,1.06-.43,.28-.27,.44-.65,.44-1.04m7.95-2.83h4.79c.27,2.89,2.22,4.73,5.39,4.73,2.83,0,4.79-1.11,4.79-3.4,0-5.54-14.18-1.7-14.18-11.61,0-4.25,3.73-7.2,9.09-7.2s9.35,3.14,9.58,7.98h-4.76c-.22-2.25-2.03-3.77-4.82-3.77-2.6,0-4.22,1.18-4.22,2.99,0,5.73,14.36,1.44,14.36,11.53,0,4.8-4.03,7.72-9.84,7.72s-9.91-3.55-10.17-8.98"/><path class="cls-19" d="M171.91,508.55c-1.39-2.39-4.87-2.39-6.26,0l-15.16,26.07c-1.39,2.39,.35,5.38,3.13,5.38h11.84c-1.19-1.04-1.63-2.84-.73-4.38l11.48-19.68-4.3-7.39Z"/><path class="cls-44" d="M181.52,514.27c1.15-1.96,4.03-1.96,5.18,0l12.55,21.33c1.15,1.96-.29,4.4-2.59,4.4h-25.1c-2.3,0-3.74-2.45-2.59-4.4l12.55-21.33h0Z"/></g><g><path d="M264.72,419.77h26.13v4.82h-10.36v25.37h-5.18v-25.37h-10.58v-4.82Zm-42.97,0v4.82h-20.94v7.76h16.84v4.82h-16.84v7.97h20.94v4.82h-26.13v-25.37h0v-4.82h26.13Zm13.05,.01h-6.78l24.29,30.19h6.8l-12.15-15.09,12.13-15.08h-6.78s-8.74,10.87-8.74,10.87l-8.77-10.89Zm6.96,21.57l-3.4-4.22-10.36,12.87h6.8l6.96-8.65Z"/><path d="M195.8,449.96l-24.32-30.21h-6.48v30.19h5.18v-23.74l19.11,23.75h6.51Z"/><path d="M292.01,449.78c-.36,0-.72-.14-.97-.39-.27-.26-.4-.58-.4-.96,0-.37,.13-.68,.4-.94,.26-.26,.61-.4,.97-.39,.37,0,.68,.13,.95,.39,.27,.26,.41,.58,.41,.94,0,.24-.07,.48-.19,.68-.12,.2-.3,.37-.5,.49-.2,.12-.44,.19-.67,.18Zm8.85-12.72h2.3v8.85c0,.81-.18,1.51-.52,2.09-.35,.58-.83,1.03-1.45,1.35-.61,.31-1.33,.47-2.15,.47-.75,0-1.42-.14-2.02-.4-.6-.26-1.07-.66-1.42-1.18-.35-.52-.52-1.17-.52-1.94h2.3c0,.34,.08,.63,.23,.88,.15,.24,.36,.44,.61,.56,.26,.13,.57,.2,.91,.2,.37,0,.68-.08,.94-.23,.26-.15,.45-.38,.59-.68,.13-.3,.2-.67,.21-1.12v-8.85h0Zm11.75,3.46c-.06-.54-.3-.96-.73-1.25-.43-.3-.99-.45-1.68-.45-.48,0-.9,.07-1.24,.21-.34,.15-.61,.34-.79,.58-.18,.25-.27,.53-.28,.84,0,.26,.06,.49,.19,.68,.13,.2,.3,.37,.5,.49,.22,.14,.46,.25,.7,.34,.26,.09,.52,.17,.78,.23l1.2,.29c.48,.11,.94,.26,1.39,.45,.43,.18,.84,.42,1.2,.71,.35,.28,.64,.64,.84,1.04,.21,.41,.31,.88,.31,1.43,0,.74-.19,1.38-.57,1.94-.38,.56-.93,.99-1.66,1.31-.72,.31-1.59,.47-2.62,.47s-1.85-.15-2.58-.46c-.73-.3-1.3-.74-1.71-1.32-.41-.58-.63-1.29-.66-2.12h2.28c.03,.44,.17,.8,.41,1.09,.24,.29,.56,.51,.94,.65,.39,.14,.82,.21,1.31,.21s.94-.08,1.33-.22c.38-.15,.68-.36,.89-.63,.22-.27,.33-.58,.33-.94,0-.33-.1-.6-.29-.82-.19-.21-.46-.39-.8-.54-.39-.16-.79-.29-1.2-.39l-1.45-.37c-1.05-.27-1.88-.67-2.49-1.21-.61-.54-.91-1.26-.91-2.17,0-.74,.2-1.39,.61-1.95,.41-.56,.97-.99,1.67-1.3,.71-.31,1.51-.46,2.4-.46s1.7,.15,2.38,.46c.68,.31,1.22,.74,1.61,1.28,.39,.55,.59,1.17,.6,1.88h-2.23Z"/></g></g><g id="API_Type_Definition"><g><path class="cls-1" d="M863.54,433.79h2.41v-5.77c0-.22,0-.41,.02-.58,.01-.17,.02-.26,.02-.27h-.02s-.1,.1-.16,.15c-.05,.04-.1,.09-.16,.13-.06,.05-.12,.09-.19,.13l-1.76,1.17v-1.35l2-1.4h1.64v7.79h1.99v1.21h-5.77v-1.21Z"/><path class="cls-1" d="M863.23,448.46c0-.39,.09-.75,.23-1.06,.15-.32,.35-.59,.61-.81,.26-.23,.58-.4,.94-.52,.37-.12,.77-.19,1.21-.19s.81,.06,1.16,.18c.35,.12,.64,.29,.89,.52,.25,.22,.44,.5,.58,.81,.13,.32,.2,.67,.2,1.06,0,.65-.17,1.27-.52,1.86s-.91,1.21-1.67,1.86l-1.4,1.17c-.07,.06-.14,.11-.21,.16-.07,.05-.15,.09-.21,.13-.07,.04-.15,.08-.23,.11v.05l.38-.02c.12,0,.24,0,.38,0s.26,0,.38,0h3.23v1.25h-5.86v-1.48l2.66-2.21c.3-.26,.56-.5,.77-.74,.22-.23,.39-.46,.53-.69,.14-.23,.24-.45,.3-.68s.09-.46,.09-.71c0-.43-.13-.78-.39-1.03-.26-.25-.61-.38-1.05-.38-.48,0-.86,.12-1.15,.38-.29,.25-.44,.58-.44,1h-1.4Z"/><path class="cls-1" d="M866.2,475.12c-.41,0-.79-.06-1.14-.17-.35-.11-.65-.27-.91-.49-.25-.21-.46-.47-.62-.77-.16-.3-.25-.64-.29-1.01h1.38c.07,.38,.24,.68,.52,.91,.28,.23,.63,.34,1.05,.34,.48,0,.87-.15,1.16-.44,.29-.29,.44-.68,.44-1.16s-.15-.87-.45-1.17c-.3-.3-.7-.44-1.2-.44h-1.07v-1.35l1.59-1.56c.09-.09,.19-.17,.29-.25,.1-.08,.2-.15,.29-.21,.1-.07,.2-.13,.3-.2v-.05c-.1,.02-.21,.03-.33,.04-.1,.02-.21,.03-.34,.04-.13,0-.26,.01-.41,.01h-2.88v-1.19h5.19v1.39l-1.95,1.79c-.07,.05-.13,.1-.19,.14-.06,.05-.11,.09-.16,.13-.06,.04-.11,.08-.16,.11,.44,0,.84,.08,1.19,.22s.65,.33,.9,.57,.44,.53,.58,.86c.13,.33,.2,.71,.2,1.12s-.07,.81-.21,1.15c-.14,.34-.34,.64-.6,.88-.26,.25-.57,.43-.94,.56-.37,.13-.77,.19-1.22,.19Z"/><path class="cls-1" d="M866.98,486h1.51l-3.74,5.45v.49h2.75v-2.06h1.38v5.12h-1.38v-1.85h-4.08v-1.95l3.55-5.2Z"/><path class="cls-1" d="M864.75,513.02c.08,.27,.26,.5,.52,.66,.26,.17,.59,.25,.99,.25,.47,0,.85-.14,1.13-.41,.28-.27,.42-.64,.42-1.09v-.56c0-.46-.14-.82-.42-1.09-.28-.27-.66-.41-1.14-.41-.61,0-1.05,.2-1.31,.59h-1.37l.06-4.96h5.2v1.23h-3.89l-.04,2.95h.06c.08-.17,.19-.33,.34-.47,.13-.12,.31-.22,.54-.32,.23-.1,.52-.14,.88-.14,.38,0,.73,.06,1.04,.19,.31,.12,.57,.3,.79,.53,.22,.23,.38,.51,.5,.83,.12,.32,.17,.69,.17,1.09v.56c0,.41-.07,.78-.21,1.11-.14,.33-.34,.62-.59,.85-.25,.23-.56,.41-.93,.54s-.77,.19-1.23,.19c-.4,0-.77-.05-1.1-.15s-.63-.24-.88-.43c-.25-.18-.46-.4-.62-.66s-.26-.55-.31-.86h1.41Z"/><path class="cls-1" d="M863.25,532.26c0-.55,.12-1.11,.36-1.68,.24-.57,.57-1.2,.99-1.89l1.67-2.7h1.6l-1.95,3c-.19,.29-.35,.52-.46,.7-.12,.17-.21,.31-.27,.4-.08,.11-.13,.18-.16,.21h.15c.08-.15,.2-.28,.35-.4,.12-.1,.27-.19,.47-.27,.2-.08,.44-.12,.73-.12,.38,0,.72,.07,1.02,.2,.31,.13,.57,.32,.79,.56,.22,.24,.39,.53,.52,.86s.19,.71,.19,1.13-.07,.81-.22,1.16c-.15,.35-.35,.65-.61,.91-.26,.25-.58,.45-.94,.59-.37,.14-.77,.21-1.21,.21s-.86-.07-1.23-.21c-.37-.14-.69-.33-.95-.58-.26-.25-.47-.55-.61-.91-.15-.35-.22-.74-.22-1.17Zm1.38,.01c0,.5,.15,.9,.45,1.21,.3,.3,.7,.46,1.19,.46s.86-.15,1.16-.46c.3-.3,.45-.71,.45-1.21s-.15-.91-.45-1.22c-.3-.3-.69-.46-1.16-.46s-.88,.15-1.18,.46c-.3,.31-.46,.71-.46,1.21Z"/><path class="cls-1" d="M863.35,548.6v-2.6h5.81v1.47l-3.18,7.53h-1.51l3.01-6.92c.12-.26,.21-.45,.29-.58,.05-.08,.1-.14,.14-.2v-.06c-.13,0-.26,.01-.38,.01-.11,0-.22,0-.33,0-.11,0-.21,0-.29,0h-2.25v1.34h-1.31Z"/><path class="cls-1" d="M863.25,572.53c0-.58,.17-1.06,.51-1.46,.34-.4,.8-.65,1.36-.74v-.06c-.25-.03-.48-.11-.69-.23-.21-.12-.39-.26-.54-.44-.15-.18-.26-.38-.34-.61-.08-.22-.12-.47-.12-.72,0-.36,.07-.69,.2-.98,.13-.3,.32-.55,.57-.76,.25-.21,.54-.37,.89-.48s.73-.17,1.16-.17,.81,.06,1.16,.17,.64,.27,.89,.48c.25,.21,.44,.46,.57,.76s.2,.62,.2,.98c0,.26-.04,.5-.12,.72-.08,.23-.19,.43-.34,.61-.15,.18-.33,.33-.54,.44-.21,.12-.44,.19-.69,.23v.06c.58,.09,1.03,.33,1.37,.72s.51,.88,.51,1.45c0,.39-.07,.75-.21,1.07-.14,.32-.34,.6-.6,.83-.26,.23-.57,.41-.94,.54s-.79,.19-1.24,.19-.87-.06-1.24-.19c-.37-.12-.69-.3-.94-.53-.26-.23-.46-.5-.6-.83-.14-.32-.21-.67-.21-1.06Zm3-1.71c-.48,0-.87,.15-1.16,.44s-.44,.67-.44,1.15,.15,.85,.44,1.15,.68,.45,1.16,.45,.87-.15,1.16-.45c.29-.3,.44-.68,.44-1.15s-.15-.86-.44-1.15c-.29-.29-.68-.44-1.16-.44Zm0-3.86c-.45,0-.8,.13-1.06,.38-.26,.25-.39,.59-.39,.99s.13,.78,.39,1.06c.26,.28,.61,.42,1.06,.42s.78-.14,1.05-.42,.4-.64,.4-1.06-.13-.74-.39-.99c-.26-.25-.61-.38-1.06-.38Z"/></g><g><path class="cls-27" d="M885.86,430.66c0-.41,.07-.78,.2-1.11,.13-.33,.33-.61,.58-.84,.25-.23,.55-.41,.91-.53s.76-.19,1.2-.19,.84,.06,1.19,.19c.35,.12,.66,.3,.91,.53,.25,.23,.44,.51,.57,.84,.13,.33,.2,.7,.2,1.11v1.26h-4.4v.49c0,.49,.14,.88,.41,1.15,.27,.27,.64,.41,1.12,.41,.35,0,.65-.05,.91-.16s.45-.27,.56-.49h1.35c-.08,.27-.2,.52-.36,.74s-.37,.41-.62,.57c-.25,.16-.52,.28-.84,.36s-.65,.12-1.01,.12c-.44,0-.84-.06-1.19-.19s-.66-.3-.91-.54c-.25-.23-.44-.51-.58-.84-.14-.33-.21-.7-.21-1.11v-1.79Zm1.36,.26h3.05v-.26c0-.48-.13-.85-.4-1.11-.27-.27-.64-.4-1.12-.4s-.86,.13-1.12,.4c-.27,.27-.4,.64-.4,1.11v.26Z"/><path class="cls-27" d="M895.46,431.46l-2.32-3.34h1.6l1.28,1.94c.07,.1,.13,.2,.16,.31,.03,.05,.04,.1,.05,.14h.06s.02-.09,.05-.14c.02-.08,.08-.19,.16-.31l1.29-1.94h1.57l-2.31,3.33,2.46,3.55h-1.6l-1.39-2.11c-.04-.06-.08-.12-.11-.18-.03-.06-.05-.11-.07-.15-.02-.05-.05-.1-.06-.15h-.08s-.04,.1-.06,.16c-.02,.04-.04,.09-.06,.14-.02,.05-.06,.11-.1,.17l-1.41,2.11h-1.59l2.48-3.54Z"/><path class="cls-27" d="M901,428.12h1.31v1.19h.1c.09-.42,.3-.74,.63-.97,.33-.23,.74-.34,1.24-.34,.35,0,.67,.06,.96,.19,.29,.12,.54,.3,.74,.54s.36,.51,.48,.84,.17,.7,.17,1.12v1.73c0,.42-.06,.79-.17,1.13-.11,.34-.27,.62-.48,.86-.2,.23-.45,.41-.74,.54-.29,.12-.61,.19-.96,.19-.5,0-.91-.11-1.24-.34-.33-.23-.54-.55-.63-.97h-.1s0,.05,.01,.14c0,.08,.01,.18,.02,.3,0,.12,.01,.24,.02,.38s.01,.26,.01,.38v2.12h-1.38v-9Zm1.38,2.59v1.7c0,.46,.13,.82,.38,1.1,.25,.27,.6,.41,1.03,.41,.46,0,.82-.14,1.08-.41,.26-.28,.39-.65,.39-1.11v-1.69c0-.48-.13-.85-.39-1.12-.26-.27-.62-.41-1.08-.41-.43,0-.77,.14-1.02,.41-.26,.27-.39,.65-.39,1.11Z"/><path class="cls-27" d="M911.25,435.12c-.44,0-.84-.06-1.19-.19-.35-.13-.66-.31-.91-.55-.25-.24-.44-.52-.58-.86-.14-.33-.21-.7-.21-1.11v-1.71c0-.41,.07-.78,.21-1.11,.14-.33,.33-.62,.58-.86,.25-.24,.55-.42,.91-.55,.35-.13,.75-.19,1.19-.19s.84,.06,1.19,.19c.35,.12,.66,.31,.91,.54s.44,.52,.58,.85c.14,.33,.21,.7,.21,1.12v1.73c0,.41-.07,.78-.2,1.12-.13,.34-.33,.62-.58,.86s-.55,.41-.91,.54c-.36,.13-.76,.19-1.2,.19Zm-1.51-2.71c0,.47,.13,.83,.4,1.1,.27,.27,.64,.4,1.11,.4s.84-.13,1.11-.4c.27-.27,.41-.63,.41-1.1v-1.71c0-.47-.14-.83-.41-1.1-.27-.27-.64-.4-1.11-.4s-.84,.13-1.11,.4c-.27,.27-.41,.63-.41,1.1v1.71Z"/><path class="cls-27" d="M917.58,428.12v1.19h.11c.09-.42,.31-.74,.64-.97,.34-.23,.76-.34,1.27-.34,.73,0,1.31,.23,1.73,.68,.42,.45,.62,1.09,.62,1.89v.45h-1.41v-.31c0-.48-.13-.86-.39-1.13-.26-.27-.61-.41-1.06-.41s-.79,.14-1.05,.41-.39,.65-.39,1.12v4.29h-1.38v-6.88h1.3Z"/><path class="cls-27" d="M923.15,428.12h1.94v-2.12h1.38v2.12h2.64v1.24h-2.64v3.66c0,.23,.07,.4,.2,.53,.13,.13,.32,.19,.56,.19h1.75v1.25h-1.81c-.64,0-1.15-.18-1.52-.54-.37-.36-.56-.84-.56-1.44v-3.66h-1.94v-1.24Z"/><path class="cls-27" d="M938.15,428.12h1.94v-2.12h1.38v2.12h2.64v1.24h-2.64v3.66c0,.23,.07,.4,.2,.53,.13,.13,.32,.19,.56,.19h1.75v1.25h-1.81c-.64,0-1.15-.18-1.52-.54-.37-.36-.56-.84-.56-1.44v-3.66h-1.94v-1.24Z"/><path class="cls-27" d="M945.52,428.12h1.5l1.45,3.79c.07,.17,.12,.33,.16,.49,.04,.16,.07,.31,.09,.46,.03,.16,.05,.31,.06,.45h.1c0-.14,.02-.29,.05-.45,.03-.13,.06-.28,.09-.45s.08-.33,.14-.5l1.35-3.79h1.45l-3.3,9h-1.45l.95-2.56-2.65-6.44Z"/><path class="cls-27" d="M953.5,428.12h1.31v1.19h.1c.09-.42,.3-.74,.63-.97,.33-.23,.74-.34,1.24-.34,.35,0,.67,.06,.96,.19s.54,.3,.74,.54c.2,.23,.36,.51,.47,.84s.17,.7,.17,1.12v1.73c0,.42-.06,.79-.17,1.13-.11,.34-.27,.62-.47,.86-.21,.23-.45,.41-.74,.54s-.61,.19-.96,.19c-.5,0-.91-.11-1.24-.34s-.54-.55-.63-.97h-.1s0,.05,.01,.14c0,.08,.01,.18,.02,.3s.01,.24,.02,.38c0,.13,.01,.26,.01,.38v2.12h-1.38v-9Zm1.38,2.59v1.7c0,.46,.13,.82,.38,1.1,.25,.27,.6,.41,1.03,.41,.46,0,.82-.14,1.08-.41,.26-.28,.39-.65,.39-1.11v-1.69c0-.48-.13-.85-.39-1.12-.26-.27-.62-.41-1.08-.41-.42,0-.77,.14-1.02,.41-.26,.27-.39,.65-.39,1.11Z"/><path class="cls-27" d="M960.86,430.66c0-.41,.07-.78,.2-1.11,.13-.33,.33-.61,.58-.84,.25-.23,.55-.41,.91-.53s.76-.19,1.2-.19,.84,.06,1.19,.19c.35,.12,.66,.3,.91,.53,.25,.23,.44,.51,.58,.84,.13,.33,.2,.7,.2,1.11v1.26h-4.4v.49c0,.49,.14,.88,.41,1.15,.27,.27,.64,.41,1.12,.41,.35,0,.65-.05,.91-.16,.26-.11,.45-.27,.56-.49h1.35c-.08,.27-.2,.52-.36,.74-.17,.22-.37,.41-.62,.57s-.53,.28-.84,.36-.65,.12-1.01,.12c-.44,0-.84-.06-1.19-.19-.35-.12-.66-.3-.91-.54-.25-.23-.44-.51-.58-.84-.14-.33-.21-.7-.21-1.11v-1.79Zm1.36,.26h3.05v-.26c0-.48-.13-.85-.4-1.11-.27-.27-.64-.4-1.12-.4s-.86,.13-1.12,.4c-.27,.27-.4,.64-.4,1.11v.26Z"/><path class="cls-49" d="M977.45,426l1,2.94c.04,.12,.08,.26,.12,.41,.04,.15,.06,.28,.08,.41,.03,.15,.06,.3,.07,.44h.1c.02-.14,.05-.29,.09-.44,.03-.12,.05-.26,.09-.41,.03-.15,.07-.28,.11-.41l.92-2.94h1.68v9h-1.24v-6.05c0-.23,0-.45,.03-.68s.03-.43,.05-.62c.02-.22,.04-.42,.06-.62h-.14c-.05,.19-.1,.39-.15,.59-.04,.18-.09,.37-.15,.58s-.12,.42-.19,.62l-.69,2.21h-1.08l-.71-2.21c-.07-.23-.13-.44-.19-.66s-.12-.4-.17-.57c-.05-.2-.1-.39-.14-.56h-.11c.02,.2,.04,.41,.06,.62,.02,.19,.03,.4,.04,.62,.01,.23,.02,.45,.02,.68v6.05h-1.23v-9h1.65Z"/><path class="cls-49" d="M983.36,430.66c0-.41,.07-.78,.2-1.11,.13-.33,.33-.61,.58-.84,.25-.23,.55-.41,.91-.53s.76-.19,1.2-.19,.84,.06,1.19,.19c.35,.12,.66,.3,.91,.53,.25,.23,.44,.51,.58,.84,.13,.33,.2,.7,.2,1.11v1.26h-4.4v.49c0,.49,.14,.88,.41,1.15,.27,.27,.64,.41,1.12,.41,.35,0,.65-.05,.91-.16,.26-.11,.45-.27,.56-.49h1.35c-.08,.27-.2,.52-.36,.74-.17,.22-.37,.41-.62,.57s-.53,.28-.84,.36-.65,.12-1.01,.12c-.44,0-.84-.06-1.19-.19-.35-.12-.66-.3-.91-.54-.25-.23-.44-.51-.58-.84-.14-.33-.21-.7-.21-1.11v-1.79Zm1.36,.26h3.05v-.26c0-.48-.13-.85-.4-1.11-.27-.27-.64-.4-1.12-.4s-.86,.13-1.12,.4c-.27,.27-.4,.64-.4,1.11v.26Z"/><path class="cls-49" d="M990.65,428.12h1.94v-2.12h1.38v2.12h2.64v1.24h-2.64v3.66c0,.23,.07,.4,.2,.53,.13,.13,.32,.19,.56,.19h1.75v1.25h-1.81c-.64,0-1.15-.18-1.52-.54-.37-.36-.56-.84-.56-1.44v-3.66h-1.94v-1.24Z"/><path class="cls-49" d="M998.49,435v-9h1.38v2.12c0,.12,0,.24-.01,.38,0,.14-.02,.27-.03,.39-.01,.12-.02,.26-.03,.42h.11c.09-.42,.3-.74,.62-.97,.32-.23,.73-.34,1.22-.34,.34,0,.65,.06,.93,.17,.28,.12,.52,.28,.71,.5,.2,.22,.35,.48,.46,.78,.11,.3,.16,.64,.16,1.02v4.52h-1.36v-4.34c0-.47-.12-.83-.37-1.09-.25-.26-.58-.39-1.01-.39s-.78,.14-1.03,.41-.38,.65-.38,1.12v4.29h-1.38Z"/><path class="cls-49" d="M1008.75,435.12c-.44,0-.84-.06-1.19-.19-.35-.13-.66-.31-.91-.55-.25-.24-.44-.52-.58-.86-.14-.33-.21-.7-.21-1.11v-1.71c0-.41,.07-.78,.21-1.11,.14-.33,.33-.62,.58-.86,.25-.24,.55-.42,.91-.55,.35-.13,.75-.19,1.19-.19s.84,.06,1.19,.19c.35,.12,.66,.31,.91,.54s.44,.52,.58,.85c.14,.33,.21,.7,.21,1.12v1.73c0,.41-.07,.78-.2,1.12-.13,.34-.33,.62-.58,.86s-.55,.41-.91,.54c-.36,.13-.76,.19-1.2,.19Zm-1.51-2.71c0,.47,.13,.83,.4,1.1s.64,.4,1.11,.4,.83-.13,1.11-.4c.27-.27,.41-.63,.41-1.1v-1.71c0-.47-.14-.83-.41-1.1-.27-.27-.64-.4-1.11-.4s-.84,.13-1.11,.4-.41,.63-.41,1.1v1.71Z"/><path class="cls-49" d="M1013.36,430.69c0-.42,.06-.79,.17-1.12s.27-.61,.47-.84,.45-.41,.74-.54,.61-.19,.96-.19c.5,0,.91,.11,1.24,.34,.33,.23,.54,.55,.63,.97h.11c0-.14-.02-.28-.03-.42-.02-.12-.03-.26-.03-.39,0-.14,0-.26,0-.37v-2.12h1.36v9h-1.3v-1.19h-.11c-.09,.42-.3,.74-.63,.97s-.74,.34-1.24,.34c-.35,0-.67-.06-.96-.19s-.54-.3-.74-.54c-.2-.23-.36-.52-.47-.86-.11-.34-.17-.71-.17-1.13v-1.73Zm1.38,.02v1.69c0,.47,.13,.84,.39,1.11,.26,.27,.62,.41,1.08,.41,.43,0,.78-.14,1.04-.41,.26-.28,.39-.64,.39-1.1v-1.7c0-.47-.13-.84-.39-1.11-.26-.27-.61-.41-1.03-.41-.46,0-.82,.14-1.08,.41-.26,.27-.39,.64-.39,1.12Z"/><path class="cls-49" d="M1020.83,433.27h1.42c.05,.23,.19,.4,.42,.54,.23,.13,.51,.2,.84,.2h.45c.41,0,.73-.08,.96-.25,.23-.17,.34-.4,.34-.69,0-.5-.37-.8-1.1-.9l-1-.14c-.74-.1-1.29-.31-1.64-.64-.35-.33-.53-.79-.53-1.39,0-.63,.22-1.12,.67-1.48,.45-.35,1.08-.52,1.91-.52h.44c.72,0,1.31,.16,1.77,.48s.72,.76,.81,1.31h-1.41c-.05-.21-.18-.37-.39-.49-.21-.12-.47-.18-.78-.18h-.44c-.39,0-.69,.07-.9,.22-.21,.15-.31,.36-.31,.66,0,.24,.08,.43,.23,.56,.15,.13,.4,.22,.74,.26l1.02,.14c.78,.11,1.36,.33,1.73,.66,.37,.33,.55,.81,.55,1.43,0,.67-.23,1.18-.69,1.54-.46,.36-1.12,.54-1.97,.54h-.45c-.77,0-1.39-.16-1.87-.49s-.75-.78-.82-1.36Z"/><path class="cls-40" d="M1041.5,428.73v1.25h-5.5v-1.25h5.5Zm-5.5,3.05h5.5v1.25h-5.5v-1.25Z"/><path class="cls-40" d="M1052.46,429.89c.45,0,.75-.09,.91-.28,.16-.18,.23-.47,.21-.85l-.12-2c-.04-.68,.15-1.2,.57-1.58s.99-.56,1.72-.56h.72v1.25h-.6c-.35,0-.61,.08-.79,.24-.18,.16-.26,.4-.24,.73l.12,2.01c.03,.46-.09,.84-.37,1.14-.28,.3-.67,.46-1.16,.48v.06c.5,.02,.89,.18,1.16,.49,.28,.31,.4,.7,.36,1.16l-.12,1.99c-.02,.32,.07,.56,.25,.73,.18,.17,.45,.25,.79,.25h.6v1.24h-.72c-.72,0-1.3-.19-1.72-.57s-.61-.91-.57-1.58l.12-1.96c.02-.38-.05-.67-.21-.85s-.46-.27-.91-.27h-1.44v-1.25h1.44Z"/><path class="cls-56" d="M901,448.12h1.31v1.19h.1c.09-.42,.3-.74,.63-.97,.33-.23,.74-.34,1.24-.34,.35,0,.67,.06,.96,.19,.29,.12,.54,.3,.74,.54s.36,.51,.48,.84,.17,.7,.17,1.12v1.73c0,.42-.06,.79-.17,1.13-.11,.34-.27,.62-.48,.86-.2,.23-.45,.41-.74,.54-.29,.12-.61,.19-.96,.19-.5,0-.91-.11-1.24-.34-.33-.23-.54-.55-.63-.97h-.1s0,.05,.01,.14c0,.08,.01,.18,.02,.3,0,.12,.01,.24,.02,.38s.01,.26,.01,.38v2.12h-1.38v-9Zm1.38,2.59v1.7c0,.46,.13,.82,.38,1.1,.25,.27,.6,.41,1.03,.41,.46,0,.82-.14,1.08-.41,.26-.28,.39-.65,.39-1.11v-1.69c0-.48-.13-.85-.39-1.12-.26-.27-.62-.41-1.08-.41-.43,0-.77,.14-1.02,.41-.26,.27-.39,.65-.39,1.11Z"/><path class="cls-56" d="M911.25,455.12c-.44,0-.84-.06-1.19-.19-.35-.13-.66-.31-.91-.55-.25-.24-.44-.52-.58-.86-.14-.33-.21-.7-.21-1.11v-1.71c0-.41,.07-.78,.21-1.11,.14-.33,.33-.62,.58-.86,.25-.24,.55-.42,.91-.55,.35-.13,.75-.19,1.19-.19s.84,.06,1.19,.19c.35,.12,.66,.31,.91,.54s.44,.52,.58,.85c.14,.33,.21,.7,.21,1.12v1.73c0,.41-.07,.78-.2,1.12-.13,.34-.33,.62-.58,.86s-.55,.41-.91,.54c-.36,.13-.76,.19-1.2,.19Zm-1.51-2.71c0,.47,.13,.83,.4,1.1,.27,.27,.64,.4,1.11,.4s.84-.13,1.11-.4c.27-.27,.41-.63,.41-1.1v-1.71c0-.47-.14-.83-.41-1.1-.27-.27-.64-.4-1.11-.4s-.84,.13-1.11,.4c-.27,.27-.41,.63-.41,1.1v1.71Z"/><path class="cls-56" d="M915.83,453.27h1.42c.05,.23,.19,.4,.42,.54,.23,.13,.51,.2,.84,.2h.45c.41,0,.73-.08,.96-.25,.23-.17,.34-.4,.34-.69,0-.5-.37-.8-1.1-.9l-1-.14c-.74-.1-1.29-.31-1.64-.64-.35-.33-.53-.79-.53-1.39,0-.63,.22-1.12,.67-1.48s1.08-.52,1.91-.52h.44c.73,0,1.31,.16,1.77,.48s.72,.76,.81,1.31h-1.41c-.05-.21-.18-.37-.39-.49-.21-.12-.47-.18-.77-.18h-.44c-.39,0-.69,.07-.9,.22-.21,.15-.31,.36-.31,.66,0,.24,.08,.43,.23,.56,.15,.13,.4,.22,.74,.26l1.02,.14c.78,.11,1.36,.33,1.73,.66,.37,.33,.55,.81,.55,1.43,0,.67-.23,1.18-.69,1.54-.46,.36-1.12,.54-1.98,.54h-.45c-.77,0-1.39-.16-1.87-.49-.48-.33-.75-.78-.82-1.36Z"/><path class="cls-56" d="M923.15,448.12h1.94v-2.12h1.38v2.12h2.64v1.24h-2.64v3.66c0,.23,.07,.4,.2,.53,.13,.13,.32,.19,.56,.19h1.75v1.25h-1.81c-.64,0-1.15-.18-1.52-.54-.37-.36-.56-.84-.56-1.44v-3.66h-1.94v-1.24Z"/><path class="cls-40" d="M932.65,449.1c0-.33,.1-.59,.31-.79,.2-.2,.47-.31,.79-.31s.59,.1,.79,.31c.2,.2,.31,.47,.31,.79s-.1,.57-.31,.77c-.2,.2-.47,.29-.79,.29s-.59-.1-.79-.29-.31-.45-.31-.77Zm0,4.95c0-.32,.1-.59,.31-.79,.2-.2,.47-.3,.79-.3s.59,.1,.79,.3c.2,.2,.31,.46,.31,.79s-.1,.58-.31,.78c-.2,.2-.47,.3-.79,.3s-.59-.1-.79-.3c-.2-.2-.31-.46-.31-.78Z"/><path class="cls-40" d="M947.46,449.89c.45,0,.75-.09,.91-.28,.16-.18,.23-.47,.21-.85l-.12-2c-.04-.68,.15-1.2,.57-1.58s.99-.56,1.72-.56h.72v1.25h-.6c-.35,0-.61,.08-.79,.24-.18,.16-.26,.4-.24,.73l.12,2.01c.03,.46-.09,.84-.37,1.14-.28,.3-.67,.46-1.16,.48v.06c.5,.02,.89,.18,1.16,.49,.28,.31,.4,.7,.36,1.16l-.12,1.99c-.02,.32,.07,.56,.25,.73,.18,.17,.45,.25,.79,.25h.6v1.24h-.72c-.72,0-1.3-.19-1.72-.57s-.61-.91-.57-1.58l.12-1.96c.02-.38-.05-.67-.21-.85s-.46-.27-.91-.27h-1.44v-1.25h1.44Z"/><path class="cls-56" d="M917.58,468.12v1.19h.11c.09-.42,.31-.74,.64-.97,.34-.23,.76-.34,1.27-.34,.73,0,1.31,.23,1.73,.68,.42,.45,.62,1.09,.62,1.89v.45h-1.41v-.31c0-.48-.13-.86-.39-1.13-.26-.27-.61-.41-1.06-.41s-.79,.14-1.05,.41-.39,.65-.39,1.12v4.29h-1.38v-6.88h1.3Z"/><path class="cls-56" d="M923.36,470.66c0-.41,.07-.78,.2-1.11,.13-.33,.33-.61,.58-.84,.25-.23,.55-.41,.91-.53s.76-.19,1.2-.19,.84,.06,1.19,.19c.35,.12,.66,.3,.91,.53,.25,.23,.44,.51,.57,.84,.13,.33,.2,.7,.2,1.11v1.26h-4.4v.49c0,.49,.14,.88,.41,1.15,.27,.27,.64,.41,1.12,.41,.35,0,.65-.05,.91-.16s.45-.27,.56-.49h1.35c-.08,.27-.2,.52-.36,.74s-.37,.41-.62,.57c-.25,.16-.52,.28-.84,.36s-.65,.12-1.01,.12c-.44,0-.84-.06-1.19-.19s-.66-.3-.91-.54c-.25-.23-.44-.51-.58-.84-.14-.33-.21-.7-.21-1.11v-1.79Zm1.36,.26h3.05v-.26c0-.48-.13-.85-.4-1.11-.27-.27-.64-.4-1.12-.4s-.86,.13-1.12,.4c-.27,.27-.4,.64-.4,1.11v.26Z"/><path class="cls-56" d="M930.94,470.6c0-.39,.06-.75,.17-1.07,.11-.32,.27-.59,.47-.82s.45-.4,.74-.52,.61-.19,.96-.19c.5,0,.91,.11,1.24,.34,.33,.23,.54,.55,.63,.97h.11v-1.19h1.31v9h-1.38v-2.12c0-.12,0-.24,.01-.38s.01-.26,.02-.38c0-.12,.01-.22,.02-.3,0-.08,.01-.13,.01-.14h-.11c-.09,.42-.3,.74-.63,.97s-.74,.34-1.24,.34c-.35,0-.67-.06-.96-.19s-.53-.3-.74-.53c-.2-.23-.36-.5-.47-.83-.11-.32-.17-.68-.17-1.08v-1.9Zm1.37,1.8c0,.47,.13,.84,.39,1.11,.26,.27,.62,.41,1.07,.41,.43,0,.78-.14,1.04-.41,.26-.28,.39-.64,.39-1.1v-1.7c0-.47-.13-.84-.39-1.11-.26-.27-.61-.41-1.03-.41-.46,0-.82,.14-1.07,.41-.26,.27-.39,.64-.39,1.12v1.69Z"/><path class="cls-56" d="M938.51,466h2.76c.88,0,1.58,.21,2.08,.62,.5,.42,.75,.99,.75,1.73,0,.54-.15,.98-.46,1.32-.3,.34-.71,.53-1.23,.58v.09c.57,.04,1.03,.25,1.36,.61s.49,.86,.49,1.49c0,.79-.26,1.42-.77,1.88-.51,.46-1.21,.69-2.11,.69h-2.88v-9Zm2.75,3.8c.43,0,.78-.12,1.04-.36,.26-.24,.39-.56,.39-.96s-.13-.72-.38-.96-.6-.36-1.04-.36h-1.4v2.62h1.4Zm-1.4,1.15v2.86h1.43c.49,0,.88-.13,1.15-.38,.27-.25,.41-.61,.41-1.06s-.14-.8-.41-1.05c-.27-.25-.66-.38-1.15-.38h-1.43Z"/><path class="cls-56" d="M948.75,475.12c-.44,0-.84-.06-1.19-.19-.35-.13-.66-.31-.91-.55-.25-.24-.44-.52-.58-.86-.14-.33-.21-.7-.21-1.11v-1.71c0-.41,.07-.78,.21-1.11,.14-.33,.33-.62,.58-.86,.25-.24,.55-.42,.91-.55,.35-.13,.75-.19,1.19-.19s.84,.06,1.19,.19c.35,.12,.66,.31,.91,.54s.44,.52,.58,.85c.14,.33,.21,.7,.21,1.12v1.73c0,.41-.07,.78-.2,1.12-.13,.34-.33,.62-.58,.86s-.55,.41-.91,.54c-.36,.13-.76,.19-1.2,.19Zm-1.51-2.71c0,.47,.13,.83,.4,1.1s.64,.4,1.11,.4,.83-.13,1.11-.4c.27-.27,.41-.63,.41-1.1v-1.71c0-.47-.14-.83-.41-1.1-.27-.27-.64-.4-1.11-.4s-.84,.13-1.11,.4-.41,.63-.41,1.1v1.71Z"/><path class="cls-56" d="M953.36,470.69c0-.42,.06-.79,.17-1.12s.27-.61,.47-.84,.45-.41,.74-.54,.61-.19,.96-.19c.5,0,.91,.11,1.24,.34,.33,.23,.54,.55,.63,.97h.11c0-.14-.02-.28-.03-.42-.02-.12-.03-.26-.03-.39,0-.14,0-.26,0-.37v-2.12h1.36v9h-1.3v-1.19h-.11c-.09,.42-.3,.74-.63,.97s-.74,.34-1.24,.34c-.35,0-.67-.06-.96-.19s-.54-.3-.74-.54c-.2-.23-.36-.52-.47-.86-.11-.34-.17-.71-.17-1.13v-1.73Zm1.38,.02v1.69c0,.47,.13,.84,.39,1.11,.26,.27,.62,.41,1.08,.41,.43,0,.78-.14,1.04-.41,.26-.28,.39-.64,.39-1.1v-1.7c0-.47-.13-.84-.39-1.11-.26-.27-.61-.41-1.03-.41-.46,0-.82,.14-1.08,.41-.26,.27-.39,.64-.39,1.12Z"/><path class="cls-56" d="M960.53,468.12h1.5l1.45,3.79c.07,.17,.12,.33,.16,.49,.04,.16,.07,.31,.09,.46,.03,.16,.05,.31,.06,.45h.1c0-.14,.02-.29,.05-.45,.03-.13,.06-.28,.09-.45s.08-.33,.14-.5l1.35-3.79h1.45l-3.3,9h-1.45l.95-2.56-2.65-6.44Z"/><path class="cls-40" d="M970.15,469.1c0-.33,.1-.59,.31-.79,.2-.2,.47-.31,.79-.31s.59,.1,.79,.31c.2,.2,.31,.47,.31,.79s-.1,.57-.31,.77-.47,.29-.79,.29-.59-.1-.79-.29-.31-.45-.31-.77Zm0,4.95c0-.32,.1-.59,.31-.79,.2-.2,.47-.3,.79-.3s.59,.1,.79,.3c.2,.2,.31,.46,.31,.79s-.1,.58-.31,.78c-.2,.2-.47,.3-.79,.3s-.59-.1-.79-.3c-.2-.2-.31-.46-.31-.78Z"/><path class="cls-49" d="M985.15,466v7.74h4.06v1.26h-5.44v-9h1.38Z"/><path class="cls-49" d="M993.75,475.12c-.44,0-.84-.06-1.19-.19-.35-.13-.66-.31-.91-.55-.25-.24-.44-.52-.58-.86-.14-.33-.21-.7-.21-1.11v-1.71c0-.41,.07-.78,.21-1.11,.14-.33,.33-.62,.58-.86,.25-.24,.55-.42,.91-.55,.35-.13,.75-.19,1.19-.19s.84,.06,1.19,.19c.35,.12,.66,.31,.91,.54s.44,.52,.58,.85c.14,.33,.21,.7,.21,1.12v1.73c0,.41-.07,.78-.2,1.12-.13,.34-.33,.62-.58,.86s-.55,.41-.91,.54c-.36,.13-.76,.19-1.2,.19Zm-1.51-2.71c0,.47,.13,.83,.4,1.1s.64,.4,1.11,.4,.83-.13,1.11-.4c.27-.27,.41-.63,.41-1.1v-1.71c0-.47-.14-.83-.41-1.1-.27-.27-.64-.4-1.11-.4s-.84,.13-1.11,.4-.41,.63-.41,1.1v1.71Z"/><path class="cls-49" d="M998.31,470.65c0-.4,.05-.76,.16-1.09,.11-.33,.27-.61,.48-.84,.21-.23,.46-.41,.75-.53,.29-.12,.62-.19,.97-.19,.51,0,.93,.12,1.28,.36,.34,.24,.56,.58,.66,1.01h.09v-1.25h1.3v6.46c0,.78-.25,1.4-.74,1.86-.5,.45-1.18,.68-2.04,.68h-1.78v-1.17h1.78c.44,0,.79-.12,1.04-.36,.25-.24,.38-.57,.38-1v-.24l.05-1.25h-.08c-.11,.43-.33,.77-.67,1.01-.34,.24-.77,.36-1.28,.36-.36,0-.68-.06-.97-.19-.29-.12-.53-.3-.74-.53s-.36-.51-.47-.83c-.11-.32-.17-.69-.17-1.09v-1.19Zm1.39,1.16c0,.46,.13,.82,.39,1.08,.26,.26,.62,.39,1.07,.39s.82-.13,1.08-.39c.26-.26,.39-.62,.39-1.08v-1.15c0-.46-.13-.82-.39-1.08-.26-.26-.62-.39-1.08-.39s-.81,.13-1.07,.39c-.26,.26-.39,.62-.39,1.08v1.15Z"/><path class="cls-49" d="M1006.11,473.75h2.48v-4.39h-2.16v-1.24h3.5v5.62h2.01v1.25h-5.83v-1.25Zm1.98-7.51c0-.24,.08-.44,.23-.58,.15-.15,.36-.22,.62-.22h.3c.26,0,.46,.07,.62,.22,.15,.15,.23,.34,.23,.58s-.08,.43-.23,.58-.37,.21-.63,.21h-.29c-.26,0-.46-.07-.62-.21s-.23-.33-.23-.58Z"/><path class="cls-49" d="M1013.49,468.12h1.3v1.19h.11c.09-.42,.29-.75,.61-.98,.32-.23,.72-.34,1.22-.34,.36,0,.68,.06,.96,.18,.28,.12,.52,.29,.71,.51,.2,.22,.34,.48,.44,.78,.1,.3,.15,.64,.15,1.01v4.52h-1.38v-4.34c0-.48-.12-.84-.36-1.1-.24-.26-.58-.39-1-.39s-.78,.14-1.03,.41-.38,.65-.38,1.12v4.29h-1.38v-6.88Z"/><path class="cls-49" d="M1021.01,466h2.76c.88,0,1.57,.21,2.07,.62,.5,.42,.75,.99,.75,1.73,0,.54-.15,.98-.46,1.32-.3,.34-.71,.53-1.23,.58v.09c.58,.04,1.03,.25,1.36,.61s.49,.86,.49,1.49c0,.79-.26,1.42-.77,1.88-.51,.46-1.21,.69-2.11,.69h-2.88v-9Zm2.75,3.8c.43,0,.78-.12,1.04-.36,.26-.24,.39-.56,.39-.96s-.13-.72-.38-.96c-.25-.24-.6-.36-1.04-.36h-1.4v2.62h1.4Zm-1.4,1.15v2.86h1.42c.49,0,.88-.13,1.15-.38,.28-.25,.41-.61,.41-1.06s-.14-.8-.41-1.05-.66-.38-1.15-.38h-1.42Z"/><path class="cls-49" d="M1031.25,475.12c-.44,0-.84-.06-1.19-.19-.35-.13-.66-.31-.91-.55-.25-.24-.44-.52-.58-.86-.14-.33-.21-.7-.21-1.11v-1.71c0-.41,.07-.78,.21-1.11,.14-.33,.33-.62,.58-.86,.25-.24,.55-.42,.91-.55,.35-.13,.75-.19,1.19-.19s.84,.06,1.19,.19c.35,.12,.66,.31,.91,.54s.44,.52,.58,.85c.14,.33,.21,.7,.21,1.12v1.73c0,.41-.07,.78-.2,1.12-.13,.34-.33,.62-.58,.86s-.55,.41-.91,.54c-.36,.13-.76,.19-1.2,.19Zm-1.51-2.71c0,.47,.13,.83,.4,1.1s.64,.4,1.11,.4,.83-.13,1.11-.4c.27-.27,.41-.63,.41-1.1v-1.71c0-.47-.14-.83-.41-1.1-.27-.27-.64-.4-1.11-.4s-.84,.13-1.11,.4-.41,.63-.41,1.1v1.71Z"/><path class="cls-49" d="M1035.86,470.69c0-.42,.06-.79,.17-1.12s.27-.61,.47-.84,.45-.41,.74-.54,.61-.19,.96-.19c.5,0,.91,.11,1.24,.34,.33,.23,.54,.55,.63,.97h.11c0-.14-.02-.28-.03-.42-.02-.12-.03-.26-.03-.39,0-.14,0-.26,0-.37v-2.12h1.36v9h-1.3v-1.19h-.11c-.09,.42-.3,.74-.63,.97s-.74,.34-1.24,.34c-.35,0-.67-.06-.96-.19s-.54-.3-.74-.54c-.2-.23-.36-.52-.47-.86-.11-.34-.17-.71-.17-1.13v-1.73Zm1.38,.02v1.69c0,.47,.13,.84,.39,1.11,.26,.27,.62,.41,1.08,.41,.43,0,.78-.14,1.04-.41,.26-.28,.39-.64,.39-1.1v-1.7c0-.47-.13-.84-.39-1.11-.26-.27-.61-.41-1.03-.41-.46,0-.82,.14-1.08,.41-.26,.27-.39,.64-.39,1.12Z"/><path class="cls-49" d="M1043.03,468.12h1.5l1.45,3.79c.07,.17,.12,.33,.16,.49,.04,.16,.07,.31,.09,.46,.03,.16,.05,.31,.06,.45h.1c0-.14,.02-.29,.05-.45,.03-.13,.06-.28,.09-.45s.08-.33,.14-.5l1.35-3.79h1.45l-3.3,9h-1.45l.95-2.56-2.65-6.44Z"/><path class="cls-56" d="M917.58,488.12v1.19h.11c.09-.42,.31-.74,.64-.97,.34-.23,.76-.34,1.27-.34,.73,0,1.31,.23,1.73,.68,.42,.45,.62,1.09,.62,1.89v.45h-1.41v-.31c0-.48-.13-.86-.39-1.13-.26-.27-.61-.41-1.06-.41s-.79,.14-1.05,.41-.39,.65-.39,1.12v4.29h-1.38v-6.88h1.3Z"/><path class="cls-56" d="M923.36,490.66c0-.41,.07-.78,.2-1.11,.13-.33,.33-.61,.58-.84,.25-.23,.55-.41,.91-.53s.76-.19,1.2-.19,.84,.06,1.19,.19c.35,.12,.66,.3,.91,.53,.25,.23,.44,.51,.57,.84,.13,.33,.2,.7,.2,1.11v1.26h-4.4v.49c0,.49,.14,.88,.41,1.15,.27,.27,.64,.41,1.12,.41,.35,0,.65-.05,.91-.16s.45-.27,.56-.49h1.35c-.08,.27-.2,.52-.36,.74s-.37,.41-.62,.57c-.25,.16-.52,.28-.84,.36s-.65,.12-1.01,.12c-.44,0-.84-.06-1.19-.19s-.66-.3-.91-.54c-.25-.23-.44-.51-.58-.84-.14-.33-.21-.7-.21-1.11v-1.79Zm1.36,.26h3.05v-.26c0-.48-.13-.85-.4-1.11-.27-.27-.64-.4-1.12-.4s-.86,.13-1.12,.4c-.27,.27-.4,.64-.4,1.11v.26Z"/><path class="cls-56" d="M930.83,493.27h1.42c.05,.23,.19,.4,.42,.54,.23,.13,.51,.2,.84,.2h.45c.41,0,.73-.08,.96-.25,.23-.17,.34-.4,.34-.69,0-.5-.37-.8-1.1-.9l-1-.14c-.74-.1-1.29-.31-1.64-.64-.35-.33-.53-.79-.53-1.39,0-.63,.22-1.12,.67-1.48s1.08-.52,1.91-.52h.44c.73,0,1.31,.16,1.77,.48s.72,.76,.81,1.31h-1.41c-.05-.21-.18-.37-.39-.49-.21-.12-.47-.18-.77-.18h-.44c-.39,0-.69,.07-.9,.22-.21,.15-.31,.36-.31,.66,0,.24,.08,.43,.23,.56,.15,.13,.4,.22,.74,.26l1.02,.14c.78,.11,1.36,.33,1.73,.66,.37,.33,.55,.81,.55,1.43,0,.67-.23,1.18-.69,1.54-.46,.36-1.12,.54-1.98,.54h-.45c-.77,0-1.39-.16-1.87-.49-.48-.33-.75-.78-.82-1.36Z"/><path class="cls-56" d="M938.51,486h2.76c.88,0,1.58,.21,2.08,.62,.5,.42,.75,.99,.75,1.73,0,.54-.15,.98-.46,1.32-.3,.34-.71,.53-1.23,.58v.09c.57,.04,1.03,.25,1.36,.61s.49,.86,.49,1.49c0,.79-.26,1.42-.77,1.88-.51,.46-1.21,.69-2.11,.69h-2.88v-9Zm2.75,3.8c.43,0,.78-.12,1.04-.36,.26-.24,.39-.56,.39-.96s-.13-.72-.38-.96-.6-.36-1.04-.36h-1.4v2.62h1.4Zm-1.4,1.15v2.86h1.43c.49,0,.88-.13,1.15-.38,.27-.25,.41-.61,.41-1.06s-.14-.8-.41-1.05c-.27-.25-.66-.38-1.15-.38h-1.43Z"/><path class="cls-56" d="M948.75,495.12c-.44,0-.84-.06-1.19-.19-.35-.13-.66-.31-.91-.55-.25-.24-.44-.52-.58-.86-.14-.33-.21-.7-.21-1.11v-1.71c0-.41,.07-.78,.21-1.11,.14-.33,.33-.62,.58-.86,.25-.24,.55-.42,.91-.55,.35-.13,.75-.19,1.19-.19s.84,.06,1.19,.19c.35,.12,.66,.31,.91,.54s.44,.52,.58,.85c.14,.33,.21,.7,.21,1.12v1.73c0,.41-.07,.78-.2,1.12-.13,.34-.33,.62-.58,.86s-.55,.41-.91,.54c-.36,.13-.76,.19-1.2,.19Zm-1.51-2.71c0,.47,.13,.83,.4,1.1s.64,.4,1.11,.4,.83-.13,1.11-.4c.27-.27,.41-.63,.41-1.1v-1.71c0-.47-.14-.83-.41-1.1-.27-.27-.64-.4-1.11-.4s-.84,.13-1.11,.4-.41,.63-.41,1.1v1.71Z"/><path class="cls-56" d="M953.36,490.69c0-.42,.06-.79,.17-1.12s.27-.61,.47-.84,.45-.41,.74-.54,.61-.19,.96-.19c.5,0,.91,.11,1.24,.34,.33,.23,.54,.55,.63,.97h.11c0-.14-.02-.28-.03-.42-.02-.12-.03-.26-.03-.39,0-.14,0-.26,0-.37v-2.12h1.36v9h-1.3v-1.19h-.11c-.09,.42-.3,.74-.63,.97s-.74,.34-1.24,.34c-.35,0-.67-.06-.96-.19s-.54-.3-.74-.54c-.2-.23-.36-.52-.47-.86-.11-.34-.17-.71-.17-1.13v-1.73Zm1.38,.02v1.69c0,.47,.13,.84,.39,1.11,.26,.27,.62,.41,1.08,.41,.43,0,.78-.14,1.04-.41,.26-.28,.39-.64,.39-1.1v-1.7c0-.47-.13-.84-.39-1.11-.26-.27-.61-.41-1.03-.41-.46,0-.82,.14-1.08,.41-.26,.27-.39,.64-.39,1.12Z"/><path class="cls-56" d="M960.53,488.12h1.5l1.45,3.79c.07,.17,.12,.33,.16,.49,.04,.16,.07,.31,.09,.46,.03,.16,.05,.31,.06,.45h.1c0-.14,.02-.29,.05-.45,.03-.13,.06-.28,.09-.45s.08-.33,.14-.5l1.35-3.79h1.45l-3.3,9h-1.45l.95-2.56-2.65-6.44Z"/><path class="cls-40" d="M970.15,489.1c0-.33,.1-.59,.31-.79,.2-.2,.47-.31,.79-.31s.59,.1,.79,.31c.2,.2,.31,.47,.31,.79s-.1,.57-.31,.77-.47,.29-.79,.29-.59-.1-.79-.29-.31-.45-.31-.77Zm0,4.95c0-.32,.1-.59,.31-.79,.2-.2,.47-.3,.79-.3s.59,.1,.79,.3c.2,.2,.31,.46,.31,.79s-.1,.58-.31,.78c-.2,.2-.47,.3-.79,.3s-.59-.1-.79-.3c-.2-.2-.31-.46-.31-.78Z"/><path class="cls-40" d="M984.96,489.89c.45,0,.75-.09,.91-.28,.16-.18,.23-.47,.21-.85l-.12-2c-.04-.68,.15-1.2,.57-1.58s.99-.56,1.72-.56h.72v1.25h-.6c-.35,0-.61,.08-.79,.24-.18,.16-.26,.4-.24,.73l.12,2.01c.03,.46-.09,.84-.37,1.14-.28,.3-.67,.46-1.16,.48v.06c.5,.02,.89,.18,1.16,.49,.28,.31,.4,.7,.36,1.16l-.12,1.99c-.02,.32,.07,.56,.25,.73,.18,.17,.45,.25,.79,.25h.6v1.24h-.72c-.72,0-1.3-.19-1.72-.57s-.61-.91-.57-1.58l.12-1.96c.02-.38-.05-.67-.21-.85s-.46-.27-.91-.27h-1.44v-1.25h1.44Z"/><path class="cls-56" d="M930.65,508.12h1.94v-2.12h1.38v2.12h2.64v1.24h-2.64v3.66c0,.23,.07,.4,.2,.53,.13,.13,.32,.19,.56,.19h1.75v1.25h-1.81c-.64,0-1.15-.18-1.52-.54-.37-.36-.56-.84-.56-1.44v-3.66h-1.94v-1.24Z"/><path class="cls-56" d="M941.25,515.12c-.44,0-.84-.06-1.19-.19-.35-.13-.66-.31-.91-.55-.25-.24-.44-.52-.58-.86-.14-.33-.21-.7-.21-1.11v-1.71c0-.41,.07-.78,.21-1.11,.14-.33,.33-.62,.58-.86,.25-.24,.55-.42,.91-.55,.35-.13,.75-.19,1.19-.19s.84,.06,1.19,.19c.35,.12,.66,.31,.91,.54s.44,.52,.58,.85c.14,.33,.21,.7,.21,1.12v1.73c0,.41-.07,.78-.2,1.12-.13,.34-.33,.62-.58,.86s-.55,.41-.91,.54c-.36,.13-.76,.19-1.2,.19Zm-1.51-2.71c0,.47,.13,.83,.4,1.1,.27,.27,.64,.4,1.11,.4s.84-.13,1.11-.4c.27-.27,.41-.63,.41-1.1v-1.71c0-.47-.14-.83-.41-1.1-.27-.27-.64-.4-1.11-.4s-.84,.13-1.11,.4c-.27,.27-.41,.63-.41,1.1v1.71Z"/><path class="cls-56" d="M946.06,506h1.37v4.91h1.21l1.89-2.79h1.55l-2.26,3.34,2.3,3.54h-1.59l-1.89-2.9h-1.21v2.9h-1.37v-9Z"/><path class="cls-56" d="M953.36,510.66c0-.41,.07-.78,.2-1.11,.13-.33,.33-.61,.58-.84,.25-.23,.55-.41,.91-.53s.76-.19,1.2-.19,.84,.06,1.19,.19c.35,.12,.66,.3,.91,.53,.25,.23,.44,.51,.58,.84,.13,.33,.2,.7,.2,1.11v1.26h-4.4v.49c0,.49,.14,.88,.41,1.15,.27,.27,.64,.41,1.12,.41,.35,0,.65-.05,.91-.16,.26-.11,.45-.27,.56-.49h1.35c-.08,.27-.2,.52-.36,.74-.17,.22-.37,.41-.62,.57s-.53,.28-.84,.36-.65,.12-1.01,.12c-.44,0-.84-.06-1.19-.19-.35-.12-.66-.3-.91-.54-.25-.23-.44-.51-.58-.84-.14-.33-.21-.7-.21-1.11v-1.79Zm1.36,.26h3.05v-.26c0-.48-.13-.85-.4-1.11-.27-.27-.64-.4-1.12-.4s-.86,.13-1.12,.4c-.27,.27-.4,.64-.4,1.11v.26Z"/><path class="cls-56" d="M960.99,508.12h1.3v1.19h.11c.09-.42,.29-.75,.61-.98,.32-.23,.72-.34,1.22-.34,.36,0,.68,.06,.96,.18,.28,.12,.52,.29,.71,.51,.2,.22,.34,.48,.44,.78,.1,.3,.15,.64,.15,1.01v4.52h-1.38v-4.34c0-.48-.12-.84-.36-1.1-.24-.26-.58-.39-1-.39s-.78,.14-1.03,.41-.38,.65-.38,1.12v4.29h-1.38v-6.88Z"/><path class="cls-40" d="M970.15,509.1c0-.33,.1-.59,.31-.79,.2-.2,.47-.31,.79-.31s.59,.1,.79,.31c.2,.2,.31,.47,.31,.79s-.1,.57-.31,.77-.47,.29-.79,.29-.59-.1-.79-.29-.31-.45-.31-.77Zm0,4.95c0-.32,.1-.59,.31-.79,.2-.2,.47-.3,.79-.3s.59,.1,.79,.3c.2,.2,.31,.46,.31,.79s-.1,.58-.31,.78c-.2,.2-.47,.3-.79,.3s-.59-.1-.79-.3c-.2-.2-.31-.46-.31-.78Z"/><path class="cls-49" d="M983.33,513.27h1.42c.05,.23,.19,.4,.42,.54,.23,.13,.51,.2,.84,.2h.45c.41,0,.73-.08,.96-.25,.23-.17,.34-.4,.34-.69,0-.5-.37-.8-1.1-.9l-1-.14c-.74-.1-1.29-.31-1.64-.64-.35-.33-.53-.79-.53-1.39,0-.63,.22-1.12,.67-1.48,.45-.35,1.08-.52,1.91-.52h.44c.72,0,1.31,.16,1.77,.48s.72,.76,.81,1.31h-1.41c-.05-.21-.18-.37-.39-.49-.21-.12-.47-.18-.78-.18h-.44c-.39,0-.69,.07-.9,.22-.21,.15-.31,.36-.31,.66,0,.24,.08,.43,.23,.56,.15,.13,.4,.22,.74,.26l1.02,.14c.78,.11,1.36,.33,1.73,.66,.37,.33,.55,.81,.55,1.43,0,.67-.23,1.18-.69,1.54-.46,.36-1.12,.54-1.97,.54h-.45c-.77,0-1.39-.16-1.87-.49s-.75-.78-.82-1.36Z"/><path class="cls-49" d="M990.65,508.12h1.94v-2.12h1.38v2.12h2.64v1.24h-2.64v3.66c0,.23,.07,.4,.2,.53,.13,.13,.32,.19,.56,.19h1.75v1.25h-1.81c-.64,0-1.15-.18-1.52-.54-.37-.36-.56-.84-.56-1.44v-3.66h-1.94v-1.24Z"/><path class="cls-49" d="M1000.08,508.12v1.19h.11c.09-.42,.31-.74,.64-.97,.34-.23,.76-.34,1.27-.34,.73,0,1.31,.23,1.73,.68,.42,.45,.62,1.09,.62,1.89v.45h-1.41v-.31c0-.48-.13-.86-.39-1.13-.26-.27-.61-.41-1.06-.41s-.79,.14-1.05,.41c-.26,.27-.39,.65-.39,1.12v4.29h-1.38v-6.88h1.3Z"/><path class="cls-49" d="M1006.11,513.75h2.48v-4.39h-2.16v-1.24h3.5v5.62h2.01v1.25h-5.83v-1.25Zm1.98-7.51c0-.24,.08-.44,.23-.58,.15-.15,.36-.22,.62-.22h.3c.26,0,.46,.07,.62,.22,.15,.15,.23,.34,.23,.58s-.08,.43-.23,.58-.37,.21-.63,.21h-.29c-.26,0-.46-.07-.62-.21s-.23-.33-.23-.58Z"/><path class="cls-49" d="M1013.49,508.12h1.3v1.19h.11c.09-.42,.29-.75,.61-.98,.32-.23,.72-.34,1.22-.34,.36,0,.68,.06,.96,.18,.28,.12,.52,.29,.71,.51,.2,.22,.34,.48,.44,.78,.1,.3,.15,.64,.15,1.01v4.52h-1.38v-4.34c0-.48-.12-.84-.36-1.1-.24-.26-.58-.39-1-.39s-.78,.14-1.03,.41-.38,.65-.38,1.12v4.29h-1.38v-6.88Z"/><path class="cls-49" d="M1020.81,510.65c0-.4,.05-.76,.16-1.09,.11-.33,.27-.61,.48-.84,.21-.23,.46-.41,.75-.53,.29-.12,.62-.19,.97-.19,.51,0,.93,.12,1.28,.36,.34,.24,.56,.58,.66,1.01h.09v-1.25h1.3v6.46c0,.78-.25,1.4-.74,1.86-.5,.45-1.18,.68-2.04,.68h-1.78v-1.17h1.78c.44,0,.79-.12,1.04-.36,.25-.24,.38-.57,.38-1v-.24l.05-1.25h-.08c-.11,.43-.33,.77-.67,1.01-.34,.24-.77,.36-1.28,.36-.36,0-.68-.06-.97-.19-.29-.12-.53-.3-.74-.53s-.36-.51-.47-.83c-.11-.32-.17-.69-.17-1.09v-1.19Zm1.39,1.16c0,.46,.13,.82,.39,1.08,.26,.26,.62,.39,1.07,.39s.82-.13,1.08-.39c.26-.26,.39-.62,.39-1.08v-1.15c0-.46-.13-.82-.39-1.08-.26-.26-.62-.39-1.08-.39s-.81,.13-1.07,.39c-.26,.26-.39,.62-.39,1.08v1.15Z"/><path class="cls-40" d="M916.77,524.62c.73,0,1.3,.19,1.72,.57s.61,.91,.57,1.58l-.12,1.98c-.02,.38,.04,.67,.21,.85,.16,.18,.47,.27,.92,.27h1.44v1.25h-1.44c-.45,0-.76,.09-.92,.27-.16,.18-.23,.47-.21,.85l.12,2c.04,.67-.15,1.19-.57,1.56s-.99,.56-1.72,.56h-.74v-1.24h.61c.34,0,.6-.08,.79-.24,.18-.16,.27-.41,.25-.73l-.12-2c-.03-.46,.09-.84,.36-1.14,.28-.3,.66-.46,1.16-.48v-.06c-.25,0-.47-.06-.67-.14-.2-.09-.36-.2-.49-.35-.13-.15-.23-.32-.29-.52-.06-.2-.09-.41-.07-.64l.12-2c.02-.32-.07-.56-.25-.72-.18-.16-.45-.24-.79-.24h-.61v-1.25h.74Z"/><path class="cls-40" d="M901.77,544.62c.73,0,1.3,.19,1.72,.57,.42,.38,.61,.91,.57,1.58l-.12,1.98c-.02,.38,.04,.67,.21,.85,.16,.18,.47,.28,.92,.28h1.44v1.25h-1.44c-.45,0-.76,.09-.92,.27-.16,.18-.23,.47-.21,.85l.12,2c.04,.67-.15,1.19-.57,1.56s-.99,.56-1.72,.56h-.74v-1.24h.61c.34,0,.6-.08,.79-.24,.18-.16,.27-.41,.25-.73l-.12-2c-.03-.46,.09-.84,.36-1.14,.28-.3,.66-.46,1.16-.47v-.06c-.25,0-.47-.06-.67-.14-.2-.09-.36-.2-.49-.35-.13-.15-.23-.32-.29-.52s-.09-.41-.07-.64l.12-2c.02-.32-.07-.56-.25-.72-.18-.16-.45-.24-.79-.24h-.61v-1.25h.74Z"/><path class="cls-40" d="M886.77,564.62c.73,0,1.3,.19,1.72,.57,.42,.38,.61,.91,.57,1.58l-.12,1.97c-.02,.38,.04,.67,.21,.85,.16,.18,.47,.28,.92,.28h1.44v1.25h-1.44c-.45,0-.76,.09-.92,.28-.16,.18-.23,.47-.21,.85l.12,2c.04,.67-.15,1.19-.57,1.56s-.99,.56-1.72,.56h-.74v-1.24h.61c.34,0,.6-.08,.79-.24,.18-.16,.27-.41,.25-.73l-.12-2c-.03-.46,.09-.84,.36-1.14,.28-.3,.66-.46,1.16-.48v-.06c-.25,0-.47-.06-.67-.14-.2-.09-.36-.2-.49-.35-.13-.15-.23-.32-.29-.52-.06-.2-.09-.41-.07-.64l.12-2c.02-.32-.07-.56-.25-.72-.18-.16-.45-.24-.79-.24h-.61v-1.25h.74Z"/></g><g><path class="cls-53" d="M873.21,405h-2.73l4.97-14.11h3.16l4.98,14.11h-2.73l-3.77-11.22h-.11l-3.76,11.22Zm.09-5.53h7.44v2.05h-7.44v-2.05Z"/><path class="cls-53" d="M885.44,405v-14.11h5.29c1.08,0,1.99,.2,2.73,.61s1.3,.96,1.67,1.66,.57,1.51,.57,2.4-.19,1.71-.57,2.41c-.38,.7-.94,1.26-1.69,1.66s-1.66,.6-2.75,.6h-3.51v-2.1h3.16c.63,0,1.15-.11,1.56-.33s.7-.52,.9-.91c.19-.39,.29-.83,.29-1.33s-.1-.94-.29-1.32c-.2-.38-.5-.68-.9-.89-.41-.21-.93-.32-1.57-.32h-2.34v11.98h-2.56Z"/><path class="cls-53" d="M900.48,390.89v14.11h-2.56v-14.11h2.56Z"/><path class="cls-53" d="M907.45,393.03v-2.14h11.26v2.14h-4.36v11.97h-2.54v-11.97h-4.36Z"/><path class="cls-53" d="M922.32,408.95c-.34,0-.65-.03-.94-.08s-.52-.12-.69-.19l.58-1.94c.54,.16,1,.18,1.37,.08,.37-.1,.67-.45,.91-1.03l.21-.57-3.84-10.81h2.65l2.44,7.99h.11l2.45-7.99h2.67s-4.25,11.87-4.25,11.87c-.2,.55-.46,1.03-.79,1.43-.33,.4-.73,.71-1.2,.92-.47,.21-1.03,.32-1.69,.32Z"/><path class="cls-53" d="M931.96,408.97v-14.55h2.45v1.75h.15c.13-.26,.31-.53,.54-.82,.23-.29,.55-.54,.95-.75,.4-.21,.91-.31,1.53-.31,.82,0,1.56,.21,2.22,.62,.66,.42,1.18,1.03,1.57,1.84,.39,.81,.58,1.8,.58,2.98s-.19,2.15-.57,2.96-.9,1.43-1.56,1.86c-.66,.43-1.4,.64-2.23,.64-.61,0-1.11-.1-1.51-.3-.4-.2-.72-.45-.96-.73s-.43-.56-.56-.82h-.1v5.64h-2.49Zm2.45-9.26c0,.68,.1,1.28,.29,1.8s.48,.92,.85,1.2c.37,.29,.82,.43,1.35,.43s1.01-.15,1.39-.44c.37-.3,.65-.7,.84-1.22,.19-.52,.29-1.11,.29-1.77s-.09-1.24-.28-1.75c-.19-.51-.47-.91-.84-1.2s-.84-.43-1.39-.43-.99,.14-1.36,.42-.65,.67-.84,1.18c-.19,.51-.29,1.1-.29,1.78Z"/><path class="cls-53" d="M948.76,405.21c-1.06,0-1.98-.22-2.75-.67-.77-.44-1.36-1.07-1.77-1.89-.41-.82-.62-1.78-.62-2.88s.21-2.05,.62-2.87c.42-.82,1-1.47,1.75-1.93,.75-.46,1.63-.69,2.64-.69,.65,0,1.27,.1,1.85,.31,.58,.21,1.1,.53,1.54,.97,.45,.44,.8,.99,1.06,1.66,.26,.67,.39,1.47,.39,2.4v.76h-8.68v-1.68h6.28c0-.48-.11-.9-.31-1.28s-.48-.67-.84-.89c-.36-.22-.78-.32-1.26-.32-.51,0-.96,.12-1.34,.37-.39,.25-.69,.57-.9,.96-.21,.4-.32,.83-.33,1.31v1.47c0,.62,.11,1.14,.34,1.58,.23,.44,.54,.77,.94,1.01s.88,.35,1.42,.35c.36,0,.69-.05,.99-.16,.29-.1,.55-.26,.76-.46,.22-.2,.38-.45,.49-.75l2.33,.26c-.15,.62-.43,1.15-.84,1.61-.41,.46-.94,.81-1.57,1.06-.64,.25-1.37,.38-2.19,.38Z"/><path class="cls-53" d="M965.29,405h-4.78v-14.11h4.88c1.4,0,2.61,.28,3.62,.84,1.01,.56,1.78,1.37,2.33,2.42,.54,1.05,.81,2.31,.81,3.78s-.27,2.73-.82,3.79-1.33,1.87-2.35,2.43-2.25,.85-3.68,.85Zm-2.23-2.21h2.1c.98,0,1.8-.18,2.46-.54s1.15-.9,1.48-1.62c.33-.72,.5-1.62,.5-2.7s-.17-1.98-.5-2.69c-.33-.71-.82-1.25-1.46-1.61-.65-.36-1.45-.53-2.4-.53h-2.18v9.69Z"/><path class="cls-53" d="M979.14,405.21c-1.06,0-1.98-.22-2.75-.67-.77-.44-1.36-1.07-1.78-1.89s-.62-1.78-.62-2.88,.21-2.05,.62-2.87c.42-.82,1-1.47,1.75-1.93,.75-.46,1.63-.69,2.64-.69,.65,0,1.27,.1,1.85,.31,.58,.21,1.1,.53,1.54,.97,.45,.44,.8,.99,1.06,1.66,.26,.67,.38,1.47,.38,2.4v.76h-8.68v-1.68h6.29c0-.48-.11-.9-.31-1.28-.2-.37-.48-.67-.84-.89-.36-.22-.78-.32-1.26-.32-.51,0-.96,.12-1.34,.37-.38,.25-.69,.57-.9,.96-.21,.4-.32,.83-.33,1.31v1.47c0,.62,.11,1.14,.34,1.58,.22,.44,.54,.77,.95,1.01,.4,.23,.88,.35,1.42,.35,.36,0,.69-.05,.99-.16,.29-.1,.55-.26,.77-.46,.21-.2,.38-.45,.49-.75l2.33,.26c-.15,.62-.43,1.15-.84,1.61-.41,.46-.94,.81-1.57,1.06-.64,.25-1.37,.38-2.19,.38Z"/><path class="cls-53" d="M991.32,394.42v1.93h-6.26v-1.93h6.26Zm-4.69,10.58v-11.58c0-.71,.15-1.3,.45-1.78s.7-.83,1.2-1.06c.5-.23,1.06-.35,1.67-.35,.43,0,.81,.03,1.15,.1,.34,.07,.58,.13,.74,.19l-.5,1.93c-.11-.03-.24-.07-.4-.1-.16-.03-.34-.05-.54-.05-.46,0-.79,.11-.98,.33-.19,.22-.29,.54-.29,.95v11.42h-2.5Z"/><path class="cls-53" d="M994.53,392.91c-.4,0-.74-.13-1.02-.4-.28-.26-.42-.58-.42-.95s.14-.7,.43-.96,.62-.4,1.02-.4,.73,.13,1.02,.4c.28,.26,.42,.58,.42,.96s-.14,.69-.42,.95c-.28,.26-.62,.4-1.02,.4Zm-1.25,12.09v-10.58h2.49v10.58h-2.49Z"/><path class="cls-53" d="M1000.83,398.8v6.2h-2.49v-10.58h2.38v1.8h.12c.24-.59,.63-1.06,1.17-1.41s1.2-.52,1.99-.52c.73,0,1.37,.16,1.91,.47s.97,.76,1.27,1.36,.45,1.31,.45,2.16v6.74h-2.5v-6.35c0-.71-.18-1.26-.55-1.66-.37-.4-.87-.6-1.51-.6-.44,0-.82,.1-1.16,.29-.34,.19-.6,.47-.79,.82-.19,.36-.29,.79-.29,1.3Z"/><path class="cls-53" d="M1011.42,392.91c-.4,0-.74-.13-1.02-.4-.28-.26-.42-.58-.42-.95s.14-.7,.43-.96c.29-.26,.62-.4,1.02-.4s.73,.13,1.02,.4,.42,.58,.42,.96-.14,.69-.42,.95c-.28,.26-.62,.4-1.02,.4Zm-1.25,12.09v-10.58h2.49v10.58h-2.49Z"/><path class="cls-53" d="M1020.51,394.42v1.93h-6.08v-1.93h6.08Zm-4.58-2.54h2.49v9.94c0,.34,.05,.59,.15,.77,.1,.18,.24,.3,.41,.36,.17,.06,.36,.1,.57,.1,.16,0,.3-.01,.43-.03,.13-.02,.23-.04,.3-.06l.42,1.95c-.13,.05-.32,.1-.57,.15s-.54,.09-.9,.1c-.62,.02-1.19-.08-1.69-.29s-.9-.53-1.19-.98c-.29-.44-.43-.99-.43-1.65v-10.35Z"/><path class="cls-53" d="M1023.85,392.91c-.4,0-.74-.13-1.02-.4-.28-.26-.42-.58-.42-.95s.14-.7,.43-.96,.62-.4,1.02-.4,.73,.13,1.02,.4c.28,.26,.42,.58,.42,.96s-.14,.69-.42,.95c-.28,.26-.62,.4-1.02,.4Zm-1.25,12.09v-10.58h2.49v10.58h-2.49Z"/><path class="cls-53" d="M1032.27,405.21c-1.03,0-1.93-.23-2.69-.68-.76-.45-1.34-1.09-1.76-1.91s-.62-1.77-.62-2.87,.21-2.05,.62-2.87,1-1.46,1.76-1.92c.76-.45,1.65-.68,2.69-.68s1.93,.23,2.69,.68c.76,.46,1.35,1.09,1.76,1.92s.62,1.78,.62,2.87-.21,2.05-.62,2.87-1,1.45-1.76,1.91c-.76,.46-1.65,.68-2.69,.68Zm.01-2c.56,0,1.03-.16,1.41-.47s.66-.73,.84-1.25c.19-.52,.28-1.11,.28-1.75s-.09-1.23-.28-1.76c-.19-.53-.47-.95-.84-1.26-.38-.31-.85-.47-1.41-.47s-1.05,.16-1.43,.47c-.38,.31-.66,.73-.85,1.26-.19,.53-.28,1.11-.28,1.76s.09,1.23,.28,1.75c.19,.52,.47,.94,.85,1.25s.86,.47,1.43,.47Z"/><path class="cls-53" d="M1041.94,398.8v6.2h-2.49v-10.58h2.38v1.8h.12c.24-.59,.63-1.06,1.17-1.41s1.2-.52,1.99-.52c.73,0,1.37,.16,1.91,.47s.97,.76,1.27,1.36,.45,1.31,.45,2.16v6.74h-2.5v-6.35c0-.71-.18-1.26-.55-1.66-.37-.4-.87-.6-1.51-.6-.44,0-.82,.1-1.16,.29-.34,.19-.6,.47-.79,.82-.19,.36-.29,.79-.29,1.3Z"/></g></g><g id="title"><g><path class="cls-41" d="M611.71,150h96.57c6.46,0,11.71,5.26,11.71,11.71v96.57c0,6.46-5.26,11.71-11.71,11.71h-96.57c-6.46,0-11.71-5.26-11.71-11.71v-96.57c0-6.46,5.26-11.71,11.71-11.71Z"/><path class="cls-5" d="M674.29,245.49v11.71c1.89,.97,4.17,1.71,6.74,2.17,2.63,.51,5.37,.74,8.23,.74s5.49-.29,8-.8,4.74-1.43,6.69-2.69c1.89-1.26,3.43-2.86,4.51-4.86s1.66-4.46,1.66-7.37c0-2.11-.34-4-.97-5.6s-1.54-3.03-2.74-4.29-2.63-2.34-4.29-3.37c-1.66-.97-3.54-1.94-5.66-2.8-1.54-.63-2.91-1.26-4.17-1.83-1.2-.57-2.29-1.2-3.14-1.83-.86-.63-1.54-1.26-2-2-.46-.69-.69-1.49-.69-2.34,0-.8,.23-1.54,.63-2.17,.4-.63,1.03-1.2,1.77-1.66s1.71-.8,2.8-1.09c1.09-.23,2.34-.4,3.66-.4,.97,0,2,.06,3.09,.23s2.17,.4,3.26,.69,2.17,.69,3.2,1.14,2,1.03,2.86,1.6v-10.97c-1.77-.69-3.71-1.2-5.83-1.54-2.11-.34-4.51-.51-7.26-.51s-5.43,.29-7.94,.91c-2.51,.57-4.69,1.54-6.57,2.8-1.89,1.26-3.37,2.91-4.51,4.86-1.09,1.94-1.66,4.34-1.66,7.09,0,3.49,1.03,6.46,3.03,8.97,2,2.46,5.09,4.57,9.2,6.29,1.6,.69,3.14,1.31,4.51,1.94s2.57,1.31,3.6,2,1.83,1.43,2.4,2.23,.86,1.71,.86,2.74c0,.74-.17,1.49-.57,2.11-.34,.63-.91,1.2-1.66,1.71-.74,.46-1.66,.86-2.8,1.14-1.09,.29-2.4,.4-3.89,.4-2.57,0-5.09-.46-7.54-1.31-2.34-.91-4.69-2.29-6.8-4.06h0Zm-19.71-28.91h15.03v-9.6h-41.94v9.66h14.97v42.86h11.94v-42.91Z"/></g><g><path class="cls-41" d="M810.84,241c-8.22,0-14.93-2.68-20.11-8.03-5.18-5.35-7.77-12.33-7.77-20.93,0-9.08,2.63-16.42,7.89-22.03,5.26-5.61,12.23-8.41,20.91-8.41,8.2,0,14.82,2.68,19.88,8.05,5.06,5.37,7.59,12.44,7.59,21.23s-2.62,16.3-7.87,21.83c-5.25,5.53-12.09,8.29-20.53,8.29Zm.56-48.26c-4.54,0-8.14,1.7-10.81,5.11-2.67,3.4-4,7.91-4,13.52s1.33,10.19,4,13.5c2.67,3.31,6.17,4.97,10.49,4.97s8-1.61,10.61-4.83c2.62-3.22,3.92-7.68,3.92-13.4s-1.27-10.59-3.8-13.9c-2.54-3.31-6.01-4.97-10.41-4.97Z"/><path class="cls-41" d="M887.14,240h-12.62v-22.79c0-6.35-2.27-9.53-6.81-9.53-2.19,0-3.99,.84-5.41,2.52-1.42,1.68-2.12,3.82-2.12,6.41v23.39h-12.66v-41.01h12.66v6.49h.16c3.02-4.99,7.41-7.49,13.18-7.49,9.08,0,13.62,5.63,13.62,16.9v25.11Z"/><path class="cls-41" d="M933.99,223.1h-26.75c.43,5.95,4.18,8.93,11.25,8.93,4.51,0,8.48-1.07,11.9-3.2v9.13c-3.79,2.03-8.72,3.04-14.78,3.04-6.62,0-11.76-1.84-15.42-5.51-3.66-3.67-5.49-8.79-5.49-15.36s1.98-12.2,5.93-16.18c3.95-3.98,8.81-5.97,14.58-5.97s10.61,1.78,13.88,5.33c3.27,3.55,4.91,8.37,4.91,14.46v5.33Zm-11.73-7.77c0-5.87-2.38-8.81-7.13-8.81-2.03,0-3.78,.84-5.27,2.52s-2.38,3.78-2.7,6.29h15.1Z"/><path class="cls-41" d="M1005.72,193.1h-16.38v46.9h-12.98v-46.9h-16.3v-10.53h45.66v10.53Z"/><path class="cls-41" d="M1051.26,198.99l-16.66,44.3c-4.01,10.65-10.04,15.98-18.1,15.98-3.07,0-5.59-.35-7.57-1.04v-10.09c1.68,.99,3.51,1.48,5.49,1.48,3.26,0,5.53-1.54,6.81-4.61l2.16-5.09-16.66-40.93h14.02l7.65,24.95c.48,1.55,.86,3.38,1.12,5.49h.16c.24-1.55,.68-3.35,1.32-5.41l7.73-25.03h12.54Z"/><path class="cls-41" d="M1069.17,235.23h-.16v23.63h-12.66v-59.88h12.66v6.17h.16c3.12-4.78,7.52-7.17,13.18-7.17,5.31,0,9.42,1.82,12.32,5.47,2.9,3.65,4.35,8.6,4.35,14.88,0,6.84-1.69,12.32-5.07,16.46-3.38,4.14-7.87,6.21-13.48,6.21-4.94,0-8.71-1.92-11.29-5.77Zm-.36-16.82v3.28c0,2.83,.75,5.14,2.24,6.93,1.5,1.79,3.46,2.68,5.89,2.68,2.88,0,5.12-1.11,6.71-3.34,1.59-2.23,2.38-5.39,2.38-9.47,0-7.21-2.8-10.81-8.41-10.81-2.59,0-4.71,.98-6.35,2.94-1.64,1.96-2.46,4.56-2.46,7.79Z"/><path class="cls-41" d="M1144.06,223.1h-26.75c.43,5.95,4.18,8.93,11.25,8.93,4.51,0,8.48-1.07,11.89-3.2v9.13c-3.79,2.03-8.72,3.04-14.78,3.04-6.62,0-11.76-1.84-15.42-5.51-3.66-3.67-5.49-8.79-5.49-15.36s1.98-12.2,5.93-16.18c3.95-3.98,8.81-5.97,14.58-5.97s10.61,1.78,13.88,5.33c3.27,3.55,4.91,8.37,4.91,14.46v5.33Zm-11.73-7.77c0-5.87-2.38-8.81-7.13-8.81-2.03,0-3.79,.84-5.27,2.52-1.48,1.68-2.38,3.78-2.7,6.29h15.1Z"/><path class="cls-41" d="M1150.19,237.8v-12.82c2.32,1.95,4.85,3.41,7.57,4.39,2.72,.97,5.47,1.46,8.25,1.46,1.63,0,3.05-.15,4.27-.44,1.21-.29,2.23-.7,3.04-1.22,.81-.52,1.42-1.13,1.82-1.84,.4-.71,.6-1.48,.6-2.3,0-1.12-.32-2.12-.96-3-.64-.88-1.52-1.7-2.62-2.44-1.11-.75-2.42-1.47-3.95-2.16-1.52-.69-3.16-1.4-4.93-2.12-4.49-1.87-7.83-4.15-10.03-6.85-2.2-2.7-3.3-5.95-3.3-9.77,0-2.99,.6-5.56,1.8-7.71,1.2-2.15,2.84-3.92,4.91-5.31,2.07-1.39,4.46-2.41,7.19-3.06,2.72-.65,5.61-.98,8.65-.98s5.64,.18,7.95,.54c2.31,.36,4.44,.92,6.39,1.66v11.98c-.96-.67-2.01-1.25-3.14-1.76-1.14-.51-2.3-.93-3.5-1.26-1.2-.33-2.4-.58-3.58-.74-1.19-.16-2.32-.24-3.38-.24-1.47,0-2.8,.14-4,.42-1.2,.28-2.22,.67-3.04,1.18-.83,.51-1.47,1.12-1.92,1.82s-.68,1.5-.68,2.38c0,.96,.25,1.82,.76,2.58,.51,.76,1.23,1.48,2.16,2.16,.93,.68,2.07,1.35,3.4,2,1.33,.65,2.84,1.33,4.53,2.02,2.3,.96,4.36,1.98,6.19,3.06,1.83,1.08,3.4,2.3,4.71,3.66,1.31,1.36,2.31,2.92,3,4.67,.69,1.75,1.04,3.78,1.04,6.11,0,3.2-.61,5.89-1.82,8.07-1.22,2.18-2.86,3.94-4.95,5.29-2.08,1.35-4.51,2.32-7.27,2.9s-5.68,.88-8.75,.88-6.15-.27-8.99-.8-5.31-1.33-7.39-2.4Z"/><path class="cls-41" d="M1228.65,238.52c-2.86,1.66-6.98,2.48-12.38,2.48-6.3,0-11.4-1.91-15.3-5.73-3.9-3.82-5.85-8.74-5.85-14.78,0-6.97,2.09-12.46,6.27-16.48s9.77-6.03,16.76-6.03c4.83,0,8.33,.64,10.49,1.92v10.73c-2.64-1.98-5.59-2.96-8.85-2.96-3.63,0-6.51,1.06-8.63,3.18s-3.18,5.05-3.18,8.79,1.01,6.48,3.04,8.55c2.03,2.07,4.82,3.1,8.37,3.1,3.15,0,6.23-.99,9.25-2.96v10.17Z"/><path class="cls-41" d="M1263.69,210.4c-1.52-.83-3.3-1.24-5.33-1.24-2.75,0-4.9,1.01-6.45,3.02-1.55,2.02-2.32,4.76-2.32,8.23v19.58h-12.66v-41.01h12.66v7.61h.16c2-5.55,5.61-8.33,10.81-8.33,1.33,0,2.38,.16,3.12,.48v11.65Z"/><path class="cls-41" d="M1275.99,192.5c-2.14,0-3.88-.63-5.25-1.9-1.36-1.27-2.04-2.82-2.04-4.67s.68-3.44,2.04-4.65c1.36-1.2,3.11-1.8,5.25-1.8s3.92,.6,5.27,1.8c1.35,1.2,2.02,2.75,2.02,4.65s-.67,3.5-2.02,4.73c-1.35,1.23-3.1,1.84-5.27,1.84Zm6.25,47.5h-12.66v-41.01h12.66v41.01Z"/><path class="cls-41" d="M1305.71,235.23h-.16v23.63h-12.66v-59.88h12.66v6.17h.16c3.12-4.78,7.52-7.17,13.18-7.17,5.31,0,9.42,1.82,12.32,5.47,2.9,3.65,4.35,8.6,4.35,14.88,0,6.84-1.69,12.32-5.07,16.46-3.38,4.14-7.87,6.21-13.48,6.21-4.94,0-8.71-1.92-11.29-5.77Zm-.36-16.82v3.28c0,2.83,.75,5.14,2.24,6.93,1.5,1.79,3.46,2.68,5.89,2.68,2.88,0,5.12-1.11,6.71-3.34,1.59-2.23,2.38-5.39,2.38-9.47,0-7.21-2.8-10.81-8.41-10.81-2.59,0-4.71,.98-6.35,2.94-1.64,1.96-2.46,4.56-2.46,7.79Z"/><path class="cls-41" d="M1368.54,239.52c-1.87,.99-4.69,1.48-8.45,1.48-8.92,0-13.38-4.63-13.38-13.9v-18.78h-6.65v-9.33h6.65v-8.85l12.62-3.6v12.46h9.21v9.33h-9.21v16.58c0,4.27,1.7,6.41,5.09,6.41,1.33,0,2.71-.39,4.12-1.16v9.37Z"/></g></g></svg>