<?xml version="1.0" encoding="UTF-8"?><svg xmlns="http://www.w3.org/2000/svg" xmlns:xlink="http://www.w3.org/1999/xlink" viewBox="0 0 1920 840"><defs><style>.cls-1{filter:url(#drop-shadow-29);}.cls-1,.cls-2,.cls-3,.cls-4,.cls-5,.cls-6,.cls-7,.cls-8,.cls-9,.cls-10,.cls-11{fill:#fff;}.cls-12,.cls-4,.cls-13,.cls-14,.cls-15{fill-rule:evenodd;}.cls-12,.cls-16{fill:#00758f;}.cls-17,.cls-13{fill:#f29111;}.cls-3{filter:url(#drop-shadow-30);}.cls-18{fill:#417ba2;}.cls-19{fill:#222;}.cls-20{filter:url(#drop-shadow-54);}.cls-21{stroke:#231f20;stroke-width:2.6px;}.cls-21,.cls-22{fill:#231f20;}.cls-23{filter:url(#drop-shadow-18);}.cls-23,.cls-5,.cls-24,.cls-25,.cls-26,.cls-27,.cls-28{stroke-miterlimit:10;}.cls-23,.cls-24,.cls-29,.cls-25,.cls-30,.cls-26,.cls-27,.cls-31,.cls-28{fill:none;}.cls-23,.cls-24,.cls-25,.cls-26,.cls-27{stroke-width:30px;}.cls-23,.cls-24,.cls-27{stroke:#2f74c0;}.cls-32{fill:#c02f74;}.cls-5,.cls-28{stroke:#586470;stroke-width:3px;}.cls-24{filter:url(#drop-shadow-20);}.cls-33{fill:#3178c6;}.cls-34{fill:#e83524;}.cls-35{fill:#00dc82;}.cls-6{filter:url(#drop-shadow-32);}.cls-14{fill:#80eec0;}.cls-29,.cls-7,.cls-30,.cls-31,.cls-10{stroke:#fff;}.cls-29,.cls-30{stroke-linejoin:round;}.cls-29,.cls-30,.cls-31{stroke-width:.87px;}.cls-29,.cls-31{stroke-linecap:round;}.cls-7{stroke-width:.29px;}.cls-25{filter:url(#drop-shadow-21);}.cls-25,.cls-26{stroke:#c02f74;}.cls-36{fill:#367faf;}.cls-37{fill:#012a35;}.cls-8{filter:url(#drop-shadow-34);}.cls-26{filter:url(#drop-shadow-22);}.cls-27{filter:url(#drop-shadow-19);}.cls-9{filter:url(#drop-shadow-31);}.cls-38,.cls-15{fill:#0c344b;}.cls-31{stroke-linejoin:bevel;}.cls-39{fill:#2f74c0;}.cls-10{stroke-width:.14px;}.cls-40{fill:#586470;}.cls-11{filter:url(#drop-shadow-33);}.cls-41{fill:#283847;}.cls-42{fill:#f9eaf1;filter:url(#drop-shadow-2);}</style><filter id="drop-shadow-2" filterUnits="userSpaceOnUse"><feOffset dx="0" dy="3"/><feGaussianBlur result="blur" stdDeviation="6"/><feFlood flood-color="#0d0e59" flood-opacity=".2"/><feComposite in2="blur" operator="in"/><feComposite in="SourceGraphic"/></filter><filter id="drop-shadow-18" filterUnits="userSpaceOnUse"><feOffset dx="0" dy="3"/><feGaussianBlur result="blur-2" stdDeviation="6"/><feFlood flood-color="#080a35" flood-opacity=".1"/><feComposite in2="blur-2" operator="in"/><feComposite in="SourceGraphic"/></filter><filter id="drop-shadow-19" filterUnits="userSpaceOnUse"><feOffset dx="0" dy="3"/><feGaussianBlur result="blur-3" stdDeviation="6"/><feFlood flood-color="#080a35" flood-opacity=".1"/><feComposite in2="blur-3" operator="in"/><feComposite in="SourceGraphic"/></filter><filter id="drop-shadow-20" filterUnits="userSpaceOnUse"><feOffset dx="0" dy="3"/><feGaussianBlur result="blur-4" stdDeviation="6"/><feFlood flood-color="#080a35" flood-opacity=".1"/><feComposite in2="blur-4" operator="in"/><feComposite in="SourceGraphic"/></filter><filter id="drop-shadow-21" filterUnits="userSpaceOnUse"><feOffset dx="0" dy="3"/><feGaussianBlur result="blur-5" stdDeviation="6"/><feFlood flood-color="#080a35" flood-opacity=".1"/><feComposite in2="blur-5" operator="in"/><feComposite in="SourceGraphic"/></filter><filter id="drop-shadow-22" filterUnits="userSpaceOnUse"><feOffset dx="0" dy="3"/><feGaussianBlur result="blur-6" stdDeviation="6"/><feFlood flood-color="#080a35" flood-opacity=".1"/><feComposite in2="blur-6" operator="in"/><feComposite in="SourceGraphic"/></filter><filter id="drop-shadow-29" filterUnits="userSpaceOnUse"><feOffset dx="0" dy="3"/><feGaussianBlur result="blur-7" stdDeviation="6"/><feFlood flood-color="#0d0e59" flood-opacity=".2"/><feComposite in2="blur-7" operator="in"/><feComposite in="SourceGraphic"/></filter><filter id="drop-shadow-30" filterUnits="userSpaceOnUse"><feOffset dx="0" dy="3"/><feGaussianBlur result="blur-8" stdDeviation="6"/><feFlood flood-color="#0d0e59" flood-opacity=".2"/><feComposite in2="blur-8" operator="in"/><feComposite in="SourceGraphic"/></filter><filter id="drop-shadow-31" filterUnits="userSpaceOnUse"><feOffset dx="0" dy="3"/><feGaussianBlur result="blur-9" stdDeviation="6"/><feFlood flood-color="#0d0e59" flood-opacity=".2"/><feComposite in2="blur-9" operator="in"/><feComposite in="SourceGraphic"/></filter><filter id="drop-shadow-32" filterUnits="userSpaceOnUse"><feOffset dx="0" dy="3"/><feGaussianBlur result="blur-10" stdDeviation="6"/><feFlood flood-color="#0d0e59" flood-opacity=".2"/><feComposite in2="blur-10" operator="in"/><feComposite in="SourceGraphic"/></filter><filter id="drop-shadow-33" filterUnits="userSpaceOnUse"><feOffset dx="0" dy="3"/><feGaussianBlur result="blur-11" stdDeviation="6"/><feFlood flood-color="#0d0e59" flood-opacity=".2"/><feComposite in2="blur-11" operator="in"/><feComposite in="SourceGraphic"/></filter><filter id="drop-shadow-34" filterUnits="userSpaceOnUse"><feOffset dx="0" dy="3"/><feGaussianBlur result="blur-12" stdDeviation="6"/><feFlood flood-color="#0d0e59" flood-opacity=".2"/><feComposite in2="blur-12" operator="in"/><feComposite in="SourceGraphic"/></filter><filter id="drop-shadow-54" filterUnits="userSpaceOnUse"><feOffset dx="0" dy="3"/><feGaussianBlur result="blur-13" stdDeviation="6"/><feFlood flood-color="#0d0e59" flood-opacity=".2"/><feComposite in2="blur-13" operator="in"/><feComposite in="SourceGraphic"/></filter></defs><g id="back"><rect class="cls-42" x="60" y="60" width="1800" height="720" rx="30" ry="30"/></g><g id="lines"><line class="cls-23" x1="360" y1="210" x2="480" y2="210"/><line class="cls-27" x1="1440" y1="210" x2="1560" y2="210"/><line class="cls-24" x1="120" y1="570" x2="360" y2="570"/><line class="cls-25" x1="120" y1="690" x2="360" y2="690"/><g><path class="cls-39" d="M201.14,521.94l-5.27,.58c-.15-.53-.41-1.03-.77-1.5s-.86-.85-1.48-1.13c-.62-.29-1.37-.43-2.27-.43-1.2,0-2.21,.26-3.03,.78-.82,.52-1.22,1.2-1.21,2.03-.01,.71,.25,1.29,.79,1.74,.54,.45,1.43,.82,2.68,1.1l4.19,.89c2.32,.5,4.05,1.29,5.19,2.38,1.13,1.09,1.71,2.51,1.72,4.27-.01,1.54-.46,2.91-1.35,4.08-.89,1.18-2.12,2.1-3.7,2.76-1.58,.66-3.39,.99-5.43,.99-3,0-5.42-.63-7.25-1.89-1.83-1.26-2.92-3.02-3.28-5.28l5.64-.54c.26,1.11,.8,1.94,1.63,2.51,.83,.57,1.91,.85,3.24,.85s2.48-.28,3.32-.85c.84-.56,1.25-1.26,1.25-2.09,0-.7-.27-1.28-.81-1.74-.54-.46-1.37-.81-2.5-1.05l-4.19-.88c-2.35-.49-4.1-1.32-5.23-2.48-1.13-1.17-1.69-2.65-1.68-4.43-.01-1.51,.4-2.83,1.24-3.94s2-1.98,3.5-2.59c1.5-.61,3.23-.92,5.19-.92,2.88,0,5.14,.61,6.8,1.84,1.66,1.23,2.68,2.88,3.08,4.97Z"/><path class="cls-39" d="M218.7,515.45v4.47h-14.11v-4.47h14.11Zm-10.63-5.88h5.79v23.04c0,.78,.12,1.37,.36,1.78s.56,.69,.95,.84,.83,.22,1.31,.22c.36,0,.7-.03,1-.08,.3-.05,.54-.1,.7-.14l.97,4.52c-.31,.11-.75,.22-1.32,.35-.57,.13-1.27,.2-2.08,.22-1.45,.04-2.75-.18-3.92-.66-1.16-.49-2.08-1.24-2.76-2.26-.68-1.02-1.01-2.3-1-3.83v-24Z"/><path class="cls-39" d="M230.6,540.5c-1.56,0-2.95-.28-4.19-.84-1.24-.56-2.22-1.39-2.94-2.48-.72-1.1-1.08-2.45-1.08-4.06,0-1.38,.26-2.53,.77-3.44s1.21-1.63,2.09-2.17c.88-.54,1.88-.96,3-1.24,1.11-.28,2.27-.49,3.46-.62,1.44-.15,2.6-.28,3.5-.41,.9-.12,1.55-.31,1.96-.58,.41-.26,.62-.67,.62-1.22v-.1c0-1.2-.36-2.14-1.07-2.8-.71-.66-1.74-.99-3.08-.99-1.42,0-2.54,.31-3.36,.93s-1.38,1.35-1.67,2.19l-5.4-.77c.43-1.49,1.13-2.74,2.11-3.75s2.18-1.76,3.6-2.27c1.42-.51,2.98-.76,4.7-.76,1.18,0,2.36,.14,3.53,.42,1.17,.28,2.24,.73,3.21,1.37,.97,.63,1.75,1.49,2.34,2.58,.59,1.09,.89,2.45,.89,4.08v16.43h-5.56v-3.37h-.19c-.35,.68-.84,1.32-1.48,1.91-.63,.59-1.43,1.07-2.38,1.42-.95,.36-2.07,.54-3.35,.54Zm1.5-4.25c1.16,0,2.17-.23,3.02-.7,.85-.46,1.51-1.08,1.97-1.85,.46-.77,.7-1.6,.7-2.51v-2.89c-.18,.15-.49,.29-.92,.42-.43,.13-.91,.24-1.45,.34s-1.06,.18-1.58,.26-.97,.14-1.36,.19c-.86,.12-1.64,.31-2.32,.58-.68,.27-1.22,.64-1.61,1.11-.39,.47-.59,1.08-.59,1.83,0,1.07,.39,1.87,1.17,2.41,.78,.54,1.77,.82,2.97,.82Z"/><path class="cls-39" d="M261.65,515.45v4.47h-14.11v-4.47h14.11Zm-10.63-5.88h5.79v23.04c0,.78,.12,1.37,.36,1.78s.56,.69,.95,.84,.83,.22,1.31,.22c.36,0,.7-.03,1-.08,.3-.05,.54-.1,.7-.14l.97,4.52c-.31,.11-.75,.22-1.32,.35-.57,.13-1.27,.2-2.08,.22-1.45,.04-2.75-.18-3.92-.66-1.16-.49-2.08-1.24-2.76-2.26-.68-1.02-1.01-2.3-1-3.83v-24Z"/><path class="cls-39" d="M269.4,511.97c-.93,0-1.72-.31-2.37-.92-.66-.61-.98-1.35-.98-2.21s.33-1.62,.99-2.23c.66-.61,1.45-.92,2.37-.92s1.7,.31,2.36,.92c.66,.61,.98,1.36,.98,2.23s-.33,1.6-.98,2.21c-.66,.61-1.44,.92-2.36,.92Zm-2.91,28.03v-24.55h5.79v24.55h-5.79Z"/><path class="cls-39" d="M288.93,540.48c-2.45,0-4.55-.54-6.3-1.61-1.75-1.08-3.1-2.56-4.04-4.47-.94-1.9-1.41-4.09-1.41-6.58s.48-4.7,1.44-6.61c.96-1.91,2.31-3.4,4.07-4.47,1.75-1.07,3.83-1.61,6.22-1.61,1.99,0,3.76,.37,5.3,1.09s2.77,1.76,3.68,3.08c.92,1.33,1.44,2.87,1.57,4.64h-5.53c-.22-1.18-.75-2.17-1.59-2.96-.84-.79-1.95-1.19-3.35-1.19-1.18,0-2.22,.32-3.12,.95s-1.59,1.54-2.09,2.72-.74,2.6-.74,4.25,.25,3.11,.74,4.31c.49,1.2,1.18,2.12,2.07,2.76,.89,.64,1.94,.97,3.14,.97,.85,0,1.62-.16,2.29-.49,.68-.33,1.24-.8,1.7-1.42,.46-.62,.77-1.37,.94-2.25h5.53c-.14,1.74-.65,3.27-1.53,4.61s-2.09,2.38-3.61,3.13-3.31,1.13-5.37,1.13Z"/></g><g><path class="cls-32" d="M159.22,660.43c-1.93,0-3.65-.5-5.18-1.49s-2.73-2.43-3.61-4.31-1.33-4.18-1.33-6.87,.45-5.03,1.35-6.91c.9-1.88,2.12-3.3,3.65-4.27,1.53-.96,3.24-1.45,5.13-1.45,1.44,0,2.62,.24,3.55,.73,.93,.48,1.66,1.07,2.21,1.74,.54,.68,.96,1.31,1.26,1.91h.24v-12.24h5.8v32.73h-5.69v-3.87h-.35c-.3,.6-.73,1.23-1.29,1.89-.56,.67-1.31,1.23-2.24,1.7s-2.09,.7-3.5,.7Zm1.61-4.75c1.23,0,2.27-.33,3.13-1s1.52-1.59,1.97-2.79c.45-1.19,.67-2.58,.67-4.17s-.22-2.97-.66-4.14c-.44-1.17-1.09-2.08-1.95-2.73-.86-.65-1.91-.97-3.16-.97s-2.36,.34-3.23,1.01c-.86,.67-1.51,1.6-1.95,2.78-.44,1.18-.66,2.54-.66,4.06s.22,2.9,.66,4.1c.44,1.2,1.1,2.14,1.97,2.83,.87,.69,1.94,1.03,3.2,1.03Z"/><path class="cls-32" d="M182.07,669.16c-.79,0-1.52-.06-2.18-.18-.67-.12-1.2-.27-1.59-.44l1.34-4.49c1.26,.36,2.31,.42,3.17,.18,.86-.24,1.56-1.04,2.12-2.39l.5-1.33-8.9-25.06h6.14l5.66,18.54h.26l5.67-18.54,6.18,.03-9.86,27.49c-.46,1.28-1.07,2.38-1.82,3.31-.76,.93-1.68,1.64-2.77,2.13-1.09,.5-2.39,.74-3.91,.74Z"/><path class="cls-32" d="M210.21,645.62v14.38h-5.79v-24.55h5.53v4.17h.29c.56-1.37,1.47-2.47,2.71-3.28s2.78-1.21,4.61-1.21c1.69,0,3.17,.36,4.43,1.09,1.26,.72,2.24,1.77,2.94,3.15,.7,1.37,1.04,3.04,1.03,5v15.63h-5.79v-14.73c0-1.64-.42-2.92-1.27-3.85-.85-.93-2.02-1.39-3.51-1.39-1.01,0-1.91,.22-2.69,.66-.78,.44-1.4,1.08-1.84,1.91-.44,.83-.66,1.84-.66,3.02Z"/><path class="cls-32" d="M238.93,660.5c-1.56,0-2.95-.28-4.19-.84-1.24-.56-2.22-1.39-2.94-2.48-.72-1.1-1.08-2.45-1.08-4.06,0-1.38,.26-2.53,.77-3.44s1.21-1.63,2.09-2.17c.88-.54,1.88-.96,3-1.24,1.11-.28,2.27-.49,3.46-.62,1.44-.15,2.6-.28,3.5-.41,.9-.12,1.55-.31,1.96-.58,.41-.26,.62-.67,.62-1.22v-.1c0-1.2-.36-2.14-1.07-2.8-.71-.66-1.74-.99-3.08-.99-1.42,0-2.54,.31-3.36,.93s-1.38,1.35-1.67,2.19l-5.4-.77c.43-1.49,1.13-2.74,2.11-3.75s2.18-1.76,3.6-2.27c1.42-.51,2.98-.76,4.7-.76,1.18,0,2.36,.14,3.53,.42,1.17,.28,2.24,.73,3.21,1.37,.97,.63,1.75,1.49,2.34,2.58,.59,1.09,.89,2.45,.89,4.08v16.43h-5.56v-3.37h-.19c-.35,.68-.84,1.32-1.48,1.91-.63,.59-1.43,1.07-2.38,1.42-.95,.36-2.07,.54-3.35,.54Zm1.5-4.25c1.16,0,2.17-.23,3.02-.7,.85-.46,1.51-1.08,1.97-1.85,.46-.77,.7-1.6,.7-2.51v-2.89c-.18,.15-.49,.29-.92,.42-.43,.13-.91,.24-1.45,.34s-1.06,.18-1.58,.26-.97,.14-1.36,.19c-.86,.12-1.64,.31-2.32,.58-.68,.27-1.22,.64-1.61,1.11-.39,.47-.59,1.08-.59,1.83,0,1.07,.39,1.87,1.17,2.41,.78,.54,1.77,.82,2.97,.82Z"/><path class="cls-32" d="M257.72,660v-24.55h5.53v4.17h.29c.51-1.41,1.36-2.51,2.54-3.3,1.18-.79,2.59-1.19,4.23-1.19s3.07,.4,4.21,1.21c1.15,.8,1.95,1.9,2.42,3.28h.26c.54-1.36,1.46-2.45,2.76-3.27s2.83-1.22,4.61-1.22c2.26,0,4.1,.71,5.53,2.14,1.43,1.43,2.14,3.51,2.14,6.25v16.48h-5.8v-15.58c0-1.52-.4-2.64-1.21-3.35-.81-.71-1.8-1.06-2.97-1.06-1.4,0-2.48,.43-3.27,1.3s-1.17,2-1.17,3.38v15.31h-5.67v-15.82c0-1.27-.38-2.28-1.14-3.04s-1.76-1.13-2.98-1.13c-.83,0-1.59,.21-2.27,.63-.68,.42-1.23,1.01-1.63,1.77s-.61,1.65-.61,2.66v14.93h-5.79Z"/><path class="cls-32" d="M301.03,631.97c-.93,0-1.72-.31-2.37-.92-.66-.61-.98-1.35-.98-2.21s.33-1.62,.99-2.23c.66-.61,1.45-.92,2.37-.92s1.7,.31,2.36,.92c.66,.61,.98,1.36,.98,2.23s-.33,1.6-.98,2.21c-.66,.61-1.44,.92-2.36,.92Zm-2.91,28.03v-24.55h5.79v24.55h-5.79Z"/><path class="cls-32" d="M320.56,660.48c-2.45,0-4.55-.54-6.3-1.61-1.75-1.08-3.1-2.56-4.04-4.47-.94-1.9-1.41-4.09-1.41-6.58s.48-4.7,1.44-6.61c.96-1.91,2.31-3.4,4.07-4.47,1.75-1.07,3.83-1.61,6.22-1.61,1.99,0,3.76,.37,5.3,1.09s2.77,1.76,3.68,3.08c.92,1.33,1.44,2.87,1.57,4.64h-5.53c-.22-1.18-.75-2.17-1.59-2.96-.84-.79-1.95-1.19-3.35-1.19-1.18,0-2.22,.32-3.12,.95s-1.59,1.54-2.09,2.72-.74,2.6-.74,4.25,.25,3.11,.74,4.31c.49,1.2,1.18,2.12,2.07,2.76,.89,.64,1.94,.97,3.14,.97,.85,0,1.62-.16,2.29-.49,.68-.33,1.24-.8,1.7-1.42,.46-.62,.77-1.37,.94-2.25h5.53c-.14,1.74-.65,3.27-1.53,4.61s-2.09,2.38-3.61,3.13-3.31,1.13-5.37,1.13Z"/></g><polyline class="cls-26" points="360 270 1680 270 1680 480"/></g><g id="papers"><rect class="cls-1" x="120" y="120" width="240" height="240" rx="15" ry="15"/><rect class="cls-3" x="480" y="120" width="240" height="240" rx="15" ry="15"/><rect class="cls-9" x="1560" y="120" width="240" height="240" rx="15" ry="15"/><rect class="cls-6" x="1200" y="120" width="240" height="240" rx="15" ry="15"/><rect class="cls-11" x="1560" y="480" width="240" height="240" rx="15" ry="15"/><rect class="cls-8" x="870" y="150" width="180" height="180" rx="15" ry="15"/></g><g id="objects"><g class="cls-20"><circle class="cls-5" cx="959.79" cy="239.79" r="58.21"/><ellipse class="cls-28" cx="959.79" cy="239.79" rx="29.1" ry="58.21"/><line class="cls-5" x1="959.79" y1="298" x2="959.79" y2="181.58"/><line class="cls-5" x1="909.38" y1="210.69" x2="1010.2" y2="210.69"/><line class="cls-5" x1="1010.2" y1="268.89" x2="909.38" y2="268.89"/><line class="cls-5" x1="901.58" y1="239.79" x2="1018" y2="239.79"/></g><g><path class="cls-38" d="M1699.95,216.65h4.77v-17.5h-4.77v17.5Zm-.2-22.03c0-1.55,.87-2.33,2.6-2.33s2.6,.78,2.6,2.33c0,.74-.22,1.32-.65,1.73-.43,.41-1.08,.62-1.95,.62-1.73,0-2.6-.78-2.6-2.35Z"/><path class="cls-15" d="M1680.63,206.55c1.54-1.3,2.31-3.19,2.31-5.65s-.72-4.15-2.17-5.35c-1.45-1.19-3.56-1.79-6.33-1.79h-7.31v22.89h4.85v-8.14h2.08c2.84,0,5.03-.65,6.57-1.96Zm-7.05-2.02h-1.6v-6.79h2.21c1.33,0,2.3,.27,2.92,.81,.62,.54,.93,1.38,.93,2.52s-.37,1.98-1.11,2.57-1.86,.88-3.35,.88h0Z"/><path class="cls-38" d="M1697.42,198.96c-.43-.09-.97-.14-1.61-.14-1.09,0-2.09,.3-3.01,.9-.92,.6-1.68,1.41-2.2,2.37h-.23l-.7-2.94h-3.62v17.5h4.77v-8.91c0-1.41,.43-2.51,1.28-3.29,.85-.78,2.04-1.17,3.56-1.17,.55,0,1.02,.05,1.41,.16l.36-4.48Zm22.25,16.59c1.25-.94,1.87-2.31,1.87-4.1,0-.87-.15-1.61-.45-2.24-.3-.63-.77-1.18-1.41-1.66-.64-.48-1.64-1-3.01-1.55-1.53-.62-2.53-1.08-2.98-1.39s-.68-.68-.68-1.11c0-.76,.7-1.14,2.11-1.14,.79,0,1.57,.12,2.33,.36,.76,.24,1.58,.55,2.46,.92l1.44-3.44c-1.99-.92-4.04-1.38-6.15-1.38-2.21,0-3.92,.43-5.13,1.28-1.21,.85-1.81,2.05-1.81,3.61,0,.91,.14,1.67,.43,2.29,.29,.62,.75,1.17,1.38,1.65,.63,.48,1.62,1,2.97,1.57,.94,.4,1.69,.74,2.25,1.04,.56,.3,.96,.56,1.19,.8,.23,.23,.34,.54,.34,.92,0,1-.87,1.5-2.6,1.5-.85,0-1.82-.14-2.93-.42-1.11-.28-2.11-.63-3-1.05v3.95c.81,.34,1.66,.6,2.52,.76,.9,.17,1.98,.26,3.26,.26,2.48,0,4.35-.47,5.6-1.41h0Zm20.79,1.1h-4.77v-10.22c0-1.26-.21-2.21-.63-2.84-.42-.63-1.09-.95-2-.95-1.22,0-2.11,.45-2.66,1.35-.55,.9-.83,2.37-.83,4.43v8.23h-4.77v-17.5h3.65l.64,2.24h.27c.47-.8,1.15-1.43,2.03-1.89,.89-.45,1.9-.68,3.05-.68,2.62,0,4.39,.86,5.32,2.57h.42c.47-.81,1.16-1.45,2.07-1.89,.91-.45,1.94-.67,3.09-.67,1.98,0,3.48,.51,4.5,1.53,1.02,1.02,1.53,2.65,1.53,4.89v11.41h-4.79v-10.22c0-1.26-.21-2.21-.63-2.84-.42-.63-1.09-.95-2-.95-1.17,0-2.04,.42-2.62,1.25-.58,.84-.87,2.16-.87,3.98v8.78Z"/><path class="cls-15" d="M1765.74,214.27l.92,2.38h3.33v-11.66c0-2.09-.63-3.64-1.88-4.66-1.25-1.02-3.05-1.53-5.4-1.53s-4.69,.53-6.7,1.58l1.58,3.22c1.89-.85,3.53-1.27,4.93-1.27,1.82,0,2.72,.89,2.72,2.66v.77l-3.04,.09c-2.62,.09-4.58,.58-5.88,1.46-1.3,.88-1.95,2.25-1.95,4.11s.48,3.14,1.45,4.1c.97,.96,2.29,1.44,3.97,1.44,1.37,0,2.48-.2,3.33-.59,.85-.39,1.68-1.09,2.48-2.11h.13Zm-2.33-5.67l1.85-.06v1.44c0,1.05-.33,1.9-.99,2.54-.66,.64-1.55,.96-2.65,.96-1.54,0-2.32-.67-2.32-2.02,0-.94,.34-1.64,1.02-2.1,.68-.46,1.71-.71,3.1-.75Zm-120.65,16.77l-31.77,9.4c-.97,.29-1.9-.55-1.7-1.53l11.35-54.36c.21-1.02,1.62-1.18,2.06-.24l21.02,44.63c.4,.84-.06,1.83-.96,2.1h0Zm5.45-2.22l-24.33-51.67h0c-.62-1.3-1.89-2.15-3.33-2.22-1.48-.09-2.81,.63-3.56,1.84l-26.39,42.74c-.82,1.32-.8,2.99,.05,4.29l12.9,19.98c.77,1.19,2.1,1.88,3.49,1.88,.39,0,.79-.06,1.18-.17l37.45-11.08c1.14-.33,2.08-1.15,2.58-2.23,.49-1.07,.48-2.31-.02-3.38h0Z"/></g><g><path class="cls-16" d="M1648.85,584.44h-4.63c-.16-7.84-.61-15.2-1.35-22.11h-.04l-7.05,22.11h-3.53l-7.01-22.11h-.04c-.52,6.63-.85,14-.98,22.11h-4.22c.27-9.86,.96-19.11,2.05-27.74h5.74l6.68,20.38h.04l6.72-20.38h5.49c1.2,10.11,1.91,19.36,2.13,27.74"/><path class="cls-16" d="M1668.93,563.98c-1.89,10.26-4.37,17.71-7.46,22.36-2.41,3.58-5.04,5.37-7.91,5.37-.76,0-1.71-.23-2.83-.69v-2.47c.55,.08,1.19,.12,1.93,.12,1.34,0,2.42-.37,3.24-1.11,.98-.9,1.47-1.92,1.47-3.04,0-.77-.38-2.34-1.15-4.72l-5.08-15.82h4.55l3.65,11.83c.82,2.69,1.16,4.56,1.02,5.63,1.99-5.34,3.39-11.16,4.18-17.46h4.39"/><path class="cls-17" d="M1689.22,576.75c0,2.35-.86,4.28-2.58,5.79-1.72,1.5-4.03,2.26-6.92,2.26-2.71,0-5.33-.87-7.87-2.59l1.19-2.38c2.19,1.1,4.16,1.64,5.94,1.64,1.67,0,2.97-.37,3.91-1.11,.94-.74,1.51-1.77,1.51-3.08,0-1.65-1.15-3.05-3.25-4.24-1.94-1.07-5.82-3.3-5.82-3.3-2.1-1.54-3.15-3.19-3.15-5.9,0-2.25,.79-4.06,2.35-5.44,1.57-1.38,3.6-2.08,6.09-2.08s4.9,.69,7.01,2.06l-1.07,2.38c-1.8-.77-3.57-1.15-5.32-1.15-1.42,0-2.51,.34-3.28,1.03-.77,.68-1.24,1.56-1.24,2.63,0,1.64,1.17,3.07,3.33,4.27,1.96,1.07,5.94,3.34,5.94,3.34,2.16,1.53,3.24,3.17,3.24,5.86"/><path class="cls-13" d="M1697.49,578.89c-1.12-1.81-1.68-4.71-1.68-8.71,0-6.98,2.12-10.48,6.35-10.48,2.21,0,3.84,.84,4.88,2.51,1.12,1.81,1.68,4.69,1.68,8.63,0,7.04-2.12,10.56-6.35,10.56-2.21,0-3.84-.83-4.88-2.51m16.47,6.22l-5.08-2.51c.45-.37,.88-.77,1.27-1.24,2.16-2.54,3.24-6.31,3.24-11.3,0-9.18-3.59-13.77-10.78-13.77-3.52,0-6.27,1.16-8.24,3.49-2.16,2.55-3.24,6.3-3.24,11.26s.96,8.45,2.87,10.72c1.74,2.05,4.38,3.08,7.91,3.08,1.32,0,2.52-.16,3.62-.49l6.62,3.86,1.81-3.12"/><path class="cls-17" d="M1730.57,584.44h-13.15v-27.74h4.43v24.33h8.73v3.41"/><path class="cls-17" d="M1733.72,584.44h.73v-2.82h.96v-.58h-2.69v.58h1v2.82h0Zm5.58,0h.69v-3.4h-1.04l-.85,2.32-.92-2.32h-1v3.4h.65v-2.59h.04l.96,2.59h.5l.96-2.59v2.59"/><path class="cls-12" d="M1736.12,547.41c-2.68-.07-4.75,.2-6.48,.94-.5,.2-1.3,.2-1.37,.84,.27,.27,.3,.7,.54,1.07,.4,.67,1.1,1.57,1.74,2.04,.7,.54,1.4,1.07,2.14,1.54,1.3,.81,2.77,1.27,4.04,2.08,.74,.47,1.47,1.07,2.21,1.58,.37,.27,.6,.7,1.07,.87v-.1c-.24-.3-.3-.74-.53-1.07-.33-.33-.67-.64-1-.97-.97-1.31-2.17-2.45-3.48-3.38-1.07-.74-3.41-1.74-3.84-2.98,0,0-.03-.04-.07-.07,.74-.07,1.61-.34,2.31-.54,1.13-.3,2.17-.23,3.34-.53,.54-.14,1.07-.3,1.61-.47v-.3c-.6-.6-1.04-1.41-1.67-1.98-1.7-1.47-3.58-2.91-5.52-4.12-1.04-.67-2.37-1.1-3.48-1.68-.4-.2-1.07-.3-1.3-.64-.6-.74-.94-1.71-1.37-2.58-.97-1.84-1.91-3.88-2.74-5.83-.6-1.31-.97-2.61-1.7-3.82-3.44-5.7-7.19-9.15-12.94-12.53-1.24-.7-2.71-1.01-4.28-1.37-.84-.04-1.67-.1-2.51-.13-.54-.24-1.07-.87-1.54-1.17-1.91-1.21-6.82-3.82-8.22-.37-.9,2.18,1.34,4.32,2.11,5.43,.57,.77,1.3,1.64,1.7,2.51,.23,.57,.3,1.17,.54,1.78,.53,1.47,1.03,3.12,1.74,4.49,.37,.7,.77,1.44,1.23,2.08,.27,.37,.74,.54,.84,1.14-.47,.67-.5,1.67-.77,2.51-1.2,3.79-.74,8.48,.97,11.26,.53,.84,1.81,2.68,3.51,1.98,1.5-.6,1.17-2.51,1.6-4.19,.1-.41,.03-.67,.23-.94v.07c.47,.94,.94,1.84,1.37,2.78,1.04,1.64,2.84,3.35,4.35,4.49,.8,.61,1.44,1.64,2.44,2.01v-.1h-.07c-.2-.3-.5-.44-.77-.67-.6-.6-1.27-1.34-1.74-2.01-1.4-1.88-2.64-3.96-3.74-6.1-.54-1.04-1-2.18-1.44-3.22-.2-.4-.2-1.01-.53-1.21-.5,.74-1.24,1.37-1.6,2.28-.64,1.44-.7,3.22-.94,5.06-.13,.04-.07,0-.13,.07-1.07-.27-1.44-1.37-1.84-2.31-1-2.38-1.17-6.2-.3-8.95,.23-.7,1.24-2.91,.84-3.58-.2-.64-.87-1-1.24-1.51-.43-.64-.9-1.44-1.2-2.14-.8-1.88-1.21-3.95-2.07-5.83-.4-.87-1.1-1.78-1.67-2.58-.64-.91-1.34-1.54-1.84-2.61-.17-.37-.4-.97-.13-1.37,.07-.27,.2-.37,.47-.44,.43-.37,1.67,.1,2.1,.3,1.24,.5,2.27,.97,3.31,1.68,.47,.34,.97,.97,1.57,1.14h.7c1.07,.23,2.27,.07,3.28,.37,1.77,.57,3.37,1.41,4.81,2.31,4.38,2.78,7.99,6.74,10.43,11.46,.4,.77,.57,1.47,.94,2.28,.7,1.65,1.57,3.32,2.27,4.93,.7,1.58,1.37,3.18,2.38,4.49,.5,.7,2.51,1.07,3.41,1.44,.67,.3,1.7,.57,2.31,.94,1.14,.7,2.27,1.51,3.34,2.28,.53,.4,2.21,1.24,2.31,1.91"/><path class="cls-12" d="M1702.03,518.28c-.57,0-.97,.07-1.37,.17v.07h.06c.27,.53,.74,.91,1.07,1.37,.27,.54,.5,1.07,.77,1.61,.03-.03,.06-.07,.06-.07,.47-.33,.7-.87,.7-1.67-.2-.24-.23-.47-.4-.7-.2-.33-.63-.5-.9-.77"/></g><g><path class="cls-22" d="M1611.31,675.7h-7.62v-7.66h8.03c2.94,0,4.41,1.31,4.41,3.89s-1.61,3.77-4.82,3.77m5.48-7.75c-1.04-.93-2.5-1.4-4.38-1.4l-10.91,.06v18.33h2.2l-.02-7.8h8.12c2.04,0,3.64-.47,4.81-1.4,1.17-.93,1.75-2.23,1.75-3.89s-.52-2.96-1.57-3.89h0Zm14.22,13.14c-.21,.6-.57,1.14-1.04,1.56-.99,.96-2.49,1.44-4.52,1.44-1.82,0-3.21-.47-4.2-1.4s-1.47-2.18-1.47-3.75c0-.82,.13-1.54,.38-2.17,.24-.61,.62-1.16,1.11-1.6,1.01-.92,2.4-1.38,4.17-1.38,3.94,0,5.89,1.72,5.89,5.15,0,.82-.11,1.53-.34,2.15m.4-6.76c-1.34-1.22-3.32-1.83-5.95-1.83-2.48,0-4.4,.62-5.75,1.87-1.22,1.13-1.83,2.65-1.83,4.57s.63,3.44,1.89,4.61c.7,.63,1.51,1.09,2.43,1.37s2.01,.44,3.26,.44c2.63,0,4.6-.6,5.98-1.81,1.22-1.1,1.83-2.63,1.83-4.59s-.62-3.51-1.85-4.61h-.01Zm16.64,7.28c0,2.48-2.21,3.7-6.63,3.7-1.35,0-2.49-.09-3.41-.26-.93-.17-1.68-.46-2.25-.85-.44-.3-.81-.7-1.06-1.17-.26-.47-.43-1.09-.51-1.83l2.04-.02c0,.97,.36,1.69,1.08,2.15,.77,.55,2.14,.83,4.11,.83,3.09,0,4.63-.77,4.63-2.32,0-.9-.52-1.53-1.55-1.87-.21-.07-1.46-.24-3.75-.52s-3.72-.54-4.28-.76c-1.22-.49-1.83-1.36-1.83-2.62-.05-1.16,.59-2.24,1.63-2.76,.54-.25,1.21-.44,2.02-.58s1.74-.21,2.81-.21c4.26,0,6.38,1.34,6.38,4.01h-1.96c0-1.88-1.5-2.82-4.49-2.82-1.52,0-2.66,.19-3.4,.58s-1.12,.96-1.12,1.75c0,.74,.5,1.27,1.51,1.6,.59,.17,1.95,.37,4.07,.59,1.9,.17,3.21,.41,3.92,.73,1.35,.53,2.04,1.42,2.04,2.68v-.03Zm8.08,3.36l-.84,.12-.52,.04c-1.34,0-2.31-.19-2.9-.58s-.88-1.07-.88-2.04v-8.36h-2.44v-1.23h2.42l.02-3.95h1.88v3.95h3.27v1.25l-3.27-.02v8.14c0,.61,.15,1.02,.48,1.26s.9,.35,1.72,.35c.12,.01,.25,0,.39-.01s.36-.07,.65-.15l.02,1.26h-.02Zm12.97-2.79c-.52,.42-1.11,.75-1.75,.96-.66,.22-1.41,.34-2.26,.34-3.92,0-5.88-1.61-5.88-4.86,0-1.51,.5-2.69,1.5-3.54,1-.85,2.42-1.28,4.24-1.28s3.23,.43,4.18,1.29,1.43,2.01,1.43,3.45c0,1.57-.49,2.77-1.46,3.64m3.33-9.28h-1.88l-.02,2.07c-.83-.84-1.42-1.37-1.77-1.59-1.05-.58-2.41-.87-4.07-.87-2.44,0-4.31,.56-5.59,1.67-1.22,1.02-1.83,2.51-1.83,4.45,0,.96,.15,1.81,.46,2.57s.76,1.39,1.35,1.92c1.29,1.08,3.11,1.61,5.46,1.61,2.83,0,4.82-.77,6.01-2.33v2.14c0,1.36-.43,2.42-1.29,3.17s-2.27,1.12-4.24,1.12c-1.85,0-3.17-.26-3.94-.76-.59-.39-1-1.07-1.22-2.04h-1.92c.21,1.35,.78,2.33,1.71,2.93,1.08,.69,2.9,1.04,5.46,1.04,4.9,0,7.35-1.82,7.35-5.46v-11.65h-.03Zm10.14,1.23c-.52-.09-1.05-.13-1.57-.14-3.08,0-4.62,1.69-4.62,5.07v5.88h-1.85l-.02-12.03,1.88,.02v2.15h.1c.32-.85,.81-1.49,1.5-1.92,.75-.44,1.86-.63,3.34-.63h1.26v1.61h0Zm1.75,4.04c.24-1.37,.77-2.43,1.59-3.18,.54-.43,1.15-.76,1.83-.98s1.45-.33,2.3-.33c1.67,0,3.03,.46,4.08,1.37,1.06,.92,1.6,1.95,1.6,3.11h-11.39m11.58-3.71c-.69-.68-1.52-1.18-2.44-1.46-.97-.32-2.11-.47-3.41-.47-2.43,0-4.31,.56-5.65,1.69-1.34,1.13-2.01,2.67-2.01,4.61s.64,3.5,1.93,4.63c1.39,1.26,3.35,1.89,5.89,1.89,1.01,0,1.95-.12,2.8-.34s1.61-.55,2.25-.97c1.13-.81,1.84-1.81,2.15-3h-2.04c-.7,2.04-2.43,3.09-5.2,3.09-1.96,0-3.46-.5-4.52-1.51-.9-.88-1.36-1.98-1.36-3.35h13.37c0-2.04-.58-3.64-1.79-4.82h.04Z"/><path class="cls-36" d="M1717.5,680.02c0,3.57-2.88,5.36-8.64,5.36-3.45,0-5.97-.61-7.56-1.85-1.31-1.01-1.95-2.55-1.95-4.63h2.33c0,3.33,2.39,5,7.19,5,2.3,0,3.96-.34,4.98-1.02,.87-.6,1.31-1.55,1.31-2.83s-.59-2.16-1.77-2.68c-.67-.29-2.31-.62-4.9-1.04-3.27-.5-5.39-1-6.36-1.49-1.4-.73-2.11-1.98-2.11-3.74,0-1.64,.58-2.86,1.79-3.66,1.28-.88,3.49-1.32,6.62-1.32,5.65,0,8.47,1.88,8.47,5.63h-2.35c0-2.81-2.1-4.21-6.28-4.21-2.1,0-3.64,.28-4.61,.85-.92,.6-1.38,1.49-1.38,2.66s.59,2.08,1.77,2.58c.63,.29,2.48,.69,5.55,1.2,2.89,.43,4.84,.94,5.84,1.52,1.38,.71,2.07,1.94,2.07,3.68h-.02Zm18.84,1.82c-.87,.7-1.87,1.23-2.94,1.56-1.09,.35-2.31,.52-3.67,.52-2.77,0-4.99-.73-6.69-2.23s-2.55-3.47-2.55-5.95,.84-4.59,2.53-6.03,3.94-2.16,6.71-2.16,5.05,.75,6.66,2.26c.85,.73,1.48,1.61,1.89,2.58s.61,2.1,.61,3.36c0,2.57-.86,4.6-2.56,6.09m1.23,1.22c1.21-.85,2.1-1.9,2.68-3.1s.87-2.63,.87-4.2c0-2.85-.95-5.13-2.84-6.86-1.01-.94-2.23-1.65-3.65-2.1-1.42-.46-3.06-.69-4.9-.69-3.57,0-6.37,.87-8.41,2.6s-3.05,4.08-3.05,7.04,1.03,5.21,3.06,6.98c2.04,1.77,4.86,2.66,8.42,2.66,1.39,0,2.6-.09,3.64-.28s1.92-.48,2.64-.87l3.43,2.37,1.43-1.31-3.32-2.25h0Zm20.91,1.88h-15.85v-18.35l2.18-.04v16.86h13.69l-.02,1.53h0Z"/><path class="cls-21" d="M1689.91,651.81c.29-2.39,.2-2.74,1.98-2.36l.44,.04c1.37,.06,3.16-.22,4.22-.71,2.27-1.05,3.61-2.81,1.38-2.35-5.1,1.05-5.45-.67-5.45-.67,5.38-7.99,7.63-18.13,5.69-20.61-5.3-6.77-14.47-3.57-14.62-3.48h-.05c-1.01-.2-2.14-.33-3.4-.35-2.31-.04-4.06,.6-5.4,1.61,0,0-16.36-6.74-15.62,8.48,.16,3.24,4.64,24.5,9.98,18.08,1.95-2.35,3.84-4.33,3.84-4.33,.94,.62,2.04,.94,3.24,.83l.09-.08c-.03,.3-.02,.61,.04,.91-1.38,1.54-.97,1.81-3.72,2.37-2.78,.57-1.15,1.6-.08,1.86,1.29,.32,4.29,.78,6.31-2.05l-.08,.32c.54,.43,.5,3.1,.58,5.01,.08,1.91,.2,3.69,.59,4.74,.39,1.05,.85,3.76,4.47,2.98,3.02-.65,5.33-1.58,5.54-10.25"/><path class="cls-18" d="M1697.93,646.44c-5.1,1.05-5.45-.67-5.45-.67,5.38-7.99,7.63-18.13,5.69-20.61-5.3-6.77-14.47-3.57-14.62-3.48h-.05c-1.01-.2-2.14-.33-3.4-.35-2.31-.04-4.06,.6-5.4,1.61,0,0-16.36-6.74-15.62,8.48,.16,3.24,4.64,24.5,9.98,18.08,1.95-2.35,3.84-4.33,3.84-4.33,.94,.62,2.06,.94,3.23,.83l.09-.08c-.03,.29-.01,.58,.04,.91-1.38,1.54-.97,1.81-3.72,2.37-2.78,.57-1.15,1.6-.08,1.86,1.29,.32,4.29,.78,6.31-2.05l-.08,.32c.54,.43,.92,2.81,.85,4.96s-.11,3.63,.32,4.79c.43,1.16,.85,3.76,4.47,2.98,3.02-.65,4.59-2.33,4.81-5.13,.15-1.99,.5-1.7,.53-3.47l.28-.84c.32-2.7,.05-3.57,1.91-3.16l.44,.04c1.37,.06,3.16-.22,4.22-.71,2.27-1.05,3.61-2.81,1.38-2.35h.04Z"/><g><g><path class="cls-29" d="M1679.03,647.98c-.14,5.02,.04,10.07,.53,11.3,.49,1.23,1.54,3.62,5.16,2.84,3.02-.65,4.12-1.9,4.6-4.67l1.12-8.85m-15.72-25.79s-16.37-6.69-15.62,8.53c.15,3.24,4.64,24.5,9.98,18.08,1.95-2.33,3.72-4.19,3.72-4.19m10.75-23.64c-.58,.18,9.11-3.54,14.61,3.5,1.94,2.48-.29,12.62-5.69,20.61"/><path class="cls-31" d="M1692.45,645.7s.35,1.73,5.45,.67c2.23-.46,.88,1.29-1.38,2.35-1.86,.86-6.03,1.08-6.1-.11-.18-3.08,2.19-2.14,2.02-2.91-.15-.69-1.21-1.38-1.91-3.07-.61-1.48-8.39-12.86,2.16-11.17,.39-.08-2.75-10.04-12.63-10.2s-9.55,12.14-9.55,12.14"/></g><g><path class="cls-30" d="M1676.26,646.75c-1.38,1.54-.97,1.81-3.72,2.37-2.78,.57-1.15,1.6-.08,1.86,1.29,.32,4.29,.78,6.31-2.05,.62-.86,0-2.24-.85-2.59-.41-.17-.96-.38-1.66,.4h0Z"/><path class="cls-29" d="M1676.17,646.72c-.14-.9,.3-1.98,.76-3.24,.7-1.89,2.33-3.78,1.03-9.77-.96-4.46-7.44-.93-7.44-.32s.29,3.07-.11,5.94c-.53,3.74,2.38,6.91,5.73,6.58"/></g></g><g><path class="cls-7" d="M1674.63,633.3c-.03,.21,.38,.76,.91,.83s.99-.36,1.01-.56-.38-.43-.91-.51-.99,.03-1.01,.24h0Z"/><path class="cls-10" d="M1690.79,632.88c.03,.21-.38,.76-.91,.83s-.99-.36-1.01-.56,.38-.43,.91-.51,.99,.03,1.01,.24h0Z"/></g><path class="cls-29" d="M1692.69,631.45c.09,1.62-.35,2.73-.4,4.45-.08,2.51,1.2,5.38-.73,8.26"/></g><g><path d="M1407.39,180.06l2.61-6.76-.11-.42-25.84,6.81c2.75-3.98,1.81-7.18,1.81-7.18,0,0-8.25,5.27-14.49,5.13-6.24-.14-8.25-1.8-17.82,1.25-9.57,3.05-12.27,12.41-15.04,14.42-2.77,2.01-11.48,8.56-11.48,8.56l.02,.12,7.85-2.5s-2.15,2.03-6.72,8.19c0,0-.08-.07-.21-.2v.04s3.68,5.62,7.29,4.58c.36-.11,.77-.28,1.22-.51,1.45,.81,3.35,1.6,5.44,1.82,0,0-1.42-1.65-2.6-3.52,.32-.21,.65-.42,.98-.64l-.15,.11,2.99,1.1-.33-2.81s.02-.01,.03-.02l2.94,1.08-.36-2.55c.37-.19,.74-.38,1.11-.55l3.06-11.58,12.65-8.63-1.01,2.53c-2.57,6.31-7.38,7.8-7.38,7.8l-2.01,.76c-1.49,1.77-2.12,2.2-2.64,8.14,1.21-.3,2.36-.38,3.4-.09,5.41,1.46,7.28,7.97,5.82,9.78-.36,.45-1.23,1.22-2.33,2.13h-2.2l-.03,1.78c-.08,.06-.15,.12-.22,.18h-2.23l-.03,1.74c-.2,.15-.39,.3-.58,.44-2.1,.04-4.76-1.79-4.76-1.79,0,1.67,1.39,4.23,1.39,4.23,0,0,.09-.04,.25-.12-.14,.1-.21,.15-.21,.15,0,0,5.62,3.74,9.15,2.36,3.14-1.23,11.28-7.65,18.31-10.69l21.26-5.6,2.8-7.26-16.2,4.27v-6.52l19.01-5.01,2.8-7.26-21.81,5.75v-6.53l24.61-6.49Zm-38.59,13.83l5.04-1.33,.07,.25-1.57,4.08-5.23,1.38,1.69-4.38Zm1.74,8.73l-5.23,1.38,1.69-4.38,5.04-1.33,.07,.25-1.57,4.08Zm6.81-1.46l-5.23,1.38,1.69-4.38,5.04-1.33,.07,.25-1.57,4.08Z"/><g><path d="M1233.92,188.84l.16-.83c.46-2.41,1.38-4.5,3.08-6.08,1.25-1.17,3.08-1.87,5.16-1.87,1.33,0,2.33,.21,2.96,.42l-1.17,4c-.5-.17-.96-.25-1.62-.25-1.87,0-2.96,1.96-3.29,3.75l-.17,.87h3.96l-.71,3.67h-3.87l-3.21,16.7h-5.21l3.21-16.7"/><path d="M1250.95,209.2c.04-1.08,.12-2.21,.16-3.41h-.12c-1.62,2.71-3.58,3.75-5.21,3.75-2.96,0-4.41-2.54-4.41-6.12,0-6.16,3.08-14.91,11.83-14.91,2.04,0,4.08,.33,5.33,.83l-2.25,11.32c-.5,2.37-.88,6.33-.83,8.54h-4.5Zm1.87-16.7c-.42-.08-.79-.12-1.08-.12-3.41,0-5.25,6.79-5.29,9.79,0,1.79,.25,3.08,1.54,3.08,1.42,0,2.75-2.33,3.5-6.04l1.33-6.71Z"/><path d="M1259.16,204.75c.83,.46,1.83,.87,3.29,.83,1.5-.04,2.33-1,2.33-2.29,0-1.12-.54-1.92-1.96-3.04-1.75-1.42-2.58-3.21-2.58-4.96,0-3.75,2.91-6.79,7.54-6.79,1.79,0,3.08,.33,3.83,.75l-1.12,3.79c-.58-.33-1.54-.62-2.41-.62-1.67,0-2.71,.87-2.71,2.25,0,1.04,.58,1.67,1.54,2.46,2.29,1.75,3.04,3.75,3.04,5.33,0,4.5-3.13,7-7.79,7-1.87,0-3.54-.54-4.25-1.04l1.25-3.67Z"/><path d="M1282.15,183.34l-1.04,5.5h8l-.67,3.67h-8.04l-1.79,9.45c-.12,.71-.17,1.33-.17,1.71,0,1.25,.62,1.71,1.58,1.71,.38,0,.92,0,1.42-.08l-.62,3.91c-.96,.25-2.12,.33-3.13,.33-3.12,0-4.67-1.75-4.67-4.5,0-.92,.17-2.04,.38-3.04l1.79-9.5h-2.37l.71-3.67h2.37l.83-4.21,5.41-1.29Z"/><path d="M1283.4,209.2l3.91-20.37h5.21l-3.91,20.37h-5.21Zm4.87-25.57c0-1.5,1.08-3.21,2.91-3.21,1.71,0,2.5,1.29,2.46,2.71-.04,2.08-1.46,3.25-3,3.25-1.67,0-2.41-1.21-2.37-2.75Z"/><path d="M1295.75,188.84l.16-.83c.46-2.41,1.38-4.5,3.08-6.08,1.25-1.17,3.08-1.87,5.16-1.87,1.33,0,2.33,.21,2.96,.42l-1.17,4c-.5-.17-.96-.25-1.62-.25-1.87,0-2.96,1.96-3.29,3.75l-.17,.87h6.04l-.71,3.67h-5.96l-3.21,16.7h-5.21l3.21-16.7"/><path d="M1310.16,188.84l.12,9.79c.04,1.92,.08,3.33,.04,4.83h.08c.42-1.67,.83-3.04,1.54-5.21l3.08-9.41h5.25l-6.66,16.03c-2,4.67-4.29,8.58-6.79,10.87-1.21,1.12-2.62,2-3.5,2.37l-2.08-4.25c.92-.46,1.87-1,2.71-1.67,1.17-.96,2.29-2.12,2.79-3.25,.08-.29,.16-.5,.12-.92l-2.17-19.2h5.46Z"/></g></g><path class="cls-19" d="M1243.95,290.17v-17.15h21.41v-1h-21.41v-15.65h22.77v-1h-23.77v35.81h23.97v-1h-22.97Zm42.27-24.77l-8.88,11.68-8.68-11.68h-1.3l9.38,12.44-10.28,13.34h1.2l9.68-12.59,9.73,12.59h1.25l-10.33-13.34,9.43-12.44h-1.2Zm5.11,34.6v-16.05h.1c.6,2.34,1.79,4.22,3.56,5.64,1.77,1.42,4.03,2.13,6.77,2.13,1.77,0,3.34-.36,4.71-1.08,1.37-.72,2.52-1.7,3.44-2.93,.92-1.24,1.62-2.67,2.11-4.31,.48-1.64,.73-3.36,.73-5.16,0-1.94-.25-3.73-.75-5.37-.5-1.64-1.23-3.06-2.18-4.26-.95-1.2-2.11-2.14-3.46-2.81-1.35-.67-2.88-1-4.59-1-1.3,0-2.52,.19-3.64,.58-1.12,.38-2.11,.93-2.98,1.63-.87,.71-1.64,1.54-2.26,2.48-.64,.95-1.12,2-1.45,3.13h-.1v-7.22h-1v34.6h1Zm10.43-9.23c-3.14,0-5.67-1.08-7.57-3.23-1.91-2.16-2.86-5.26-2.86-9.3,0-1.67,.23-3.26,.7-4.76,.47-1.5,1.14-2.83,2.03-3.96,.89-1.14,1.98-2.04,3.28-2.71,1.3-.67,2.78-1,4.41-1s3.13,.33,4.39,1c1.25,.67,2.29,1.58,3.11,2.73,.82,1.15,1.44,2.47,1.86,3.96,.42,1.49,.63,3.07,.63,4.74,0,1.5-.19,3-.58,4.49-.38,1.49-.98,2.83-1.78,4.01-.8,1.19-1.83,2.16-3.08,2.91-1.25,.75-2.77,1.13-4.54,1.13h0Zm16.5,.4v-14.59c0-1.4,.2-2.78,.6-4.11,.4-1.34,1.02-2.52,1.86-3.54,.84-1.02,1.9-1.82,3.18-2.41,1.29-.59,2.82-.83,4.59-.73v-1c-1.54-.03-2.88,.13-4.04,.5-1.15,.37-2.15,.87-2.98,1.5-.84,.64-1.5,1.38-2.01,2.23-.5,.85-.87,1.77-1.1,2.73h-.1v-6.37h-1v25.78h1Zm11.48-12.69h21.56c.07-1.77-.11-3.48-.53-5.11-.42-1.64-1.09-3.09-2.01-4.36-.92-1.27-2.11-2.29-3.56-3.06s-3.18-1.15-5.19-1.15c-1.44,0-2.84,.3-4.21,.9-1.37,.6-2.57,1.48-3.61,2.63s-1.87,2.57-2.51,4.24c-.64,1.67-.95,3.58-.95,5.72,0,1.91,.22,3.69,.65,5.34,.43,1.65,1.1,3.09,2.01,4.31,.9,1.22,2.06,2.16,3.49,2.83,1.42,.67,3.13,.99,5.14,.95,2.94,0,5.42-.83,7.42-2.48,2.01-1.66,3.19-3.99,3.56-7h-1c-.43,2.84-1.55,4.97-3.33,6.39-1.79,1.42-4.04,2.13-6.75,2.13-1.84,0-3.39-.32-4.66-.95-1.27-.64-2.31-1.5-3.11-2.61-.8-1.1-1.4-2.4-1.78-3.89-.38-1.49-.59-3.1-.63-4.84h0Zm20.56-1h-20.56c.1-1.81,.43-3.43,1-4.86,.57-1.44,1.31-2.67,2.23-3.69,.92-1.02,1.99-1.8,3.21-2.33,1.22-.53,2.53-.8,3.94-.8,1.67,0,3.14,.31,4.41,.93,1.27,.62,2.33,1.46,3.18,2.53,.85,1.07,1.5,2.32,1.93,3.74,.43,1.42,.65,2.92,.65,4.49h0Zm21.81-4.46h1c0-2.88-.84-4.96-2.51-6.27-1.67-1.3-3.95-1.96-6.82-1.96-1.6,0-2.96,.2-4.06,.6-1.1,.4-2.01,.92-2.71,1.55-.7,.64-1.2,1.34-1.5,2.11-.3,.77-.45,1.5-.45,2.21,0,1.4,.25,2.52,.75,3.36,.5,.84,1.29,1.49,2.36,1.96,.74,.33,1.57,.64,2.51,.9,.94,.27,2.02,.55,3.26,.85,1.1,.27,2.19,.54,3.26,.8,1.07,.27,2.01,.63,2.83,1.08,.82,.45,1.49,1.03,2.01,1.73,.52,.7,.78,1.62,.78,2.76s-.26,2.04-.78,2.81c-.51,.77-1.19,1.41-1.98,1.88-.8,.48-1.7,.84-2.68,1.05-.99,.22-1.95,.33-2.88,.33-3.04,0-5.37-.68-7-2.03-1.62-1.35-2.43-3.49-2.43-6.39h-1c0,3.24,.88,5.62,2.63,7.12,1.76,1.5,4.35,2.26,7.8,2.26,1.1,0,2.21-.13,3.33-.38,1.12-.25,2.12-.66,3.01-1.23,.88-.56,1.62-1.32,2.16-2.21,.55-.9,.83-2.01,.83-3.31s-.24-2.24-.73-3.01c-.48-.77-1.12-1.4-1.91-1.91-.79-.5-1.67-.89-2.66-1.18-.99-.29-1.99-.56-2.98-.83-1.23-.32-2.46-.64-3.69-.95-1.05-.27-2.03-.59-2.93-.95-.87-.37-1.56-.89-2.08-1.58-.52-.69-.78-1.66-.78-2.93,0-.23,.07-.65,.2-1.25,.13-.6,.45-1.21,.95-1.83,.5-.62,1.27-1.17,2.31-1.65,1.04-.48,2.46-.73,4.26-.73,1.24,0,2.37,.13,3.38,.4,1.02,.27,1.9,.69,2.63,1.28,.74,.59,1.3,1.33,1.71,2.23,.4,.9,.6,2.01,.6,3.31h0Zm23.22,0h1c0-2.88-.84-4.96-2.51-6.27s-3.94-1.96-6.82-1.96c-1.6,0-2.96,.2-4.06,.6-1.1,.4-2.01,.92-2.71,1.55-.7,.64-1.2,1.34-1.5,2.11-.3,.77-.45,1.5-.45,2.21,0,1.4,.25,2.52,.75,3.36,.5,.84,1.29,1.49,2.36,1.96,.74,.33,1.57,.64,2.51,.9,.94,.27,2.02,.55,3.26,.85,1.1,.27,2.19,.54,3.26,.8,1.07,.27,2.01,.63,2.83,1.08,.82,.45,1.49,1.03,2.01,1.73,.52,.7,.78,1.62,.78,2.76s-.26,2.04-.78,2.81c-.51,.76-1.19,1.41-1.98,1.88-.8,.48-1.7,.84-2.68,1.05-.99,.22-1.95,.33-2.88,.33-3.04,0-5.37-.68-7-2.03-1.62-1.35-2.43-3.49-2.43-6.39h-1c0,3.24,.88,5.62,2.63,7.12,1.76,1.5,4.35,2.26,7.8,2.26,1.1,0,2.21-.13,3.33-.38,1.12-.25,2.12-.66,3.01-1.23,.88-.56,1.62-1.32,2.16-2.21,.55-.9,.83-2.01,.83-3.31s-.24-2.24-.73-3.01c-.48-.77-1.12-1.4-1.91-1.91-.79-.5-1.67-.89-2.66-1.18-.99-.29-1.99-.56-2.98-.83-1.23-.32-2.46-.64-3.69-.95-1.05-.27-2.03-.59-2.93-.95-.87-.37-1.56-.89-2.08-1.58-.52-.69-.78-1.66-.78-2.93,0-.23,.07-.65,.2-1.25,.13-.6,.45-1.21,.95-1.83,.5-.62,1.27-1.17,2.31-1.65,1.04-.48,2.46-.73,4.26-.73,1.24,0,2.37,.13,3.38,.4,1.02,.27,1.9,.69,2.63,1.28s1.3,1.33,1.71,2.23c.4,.9,.6,2.01,.6,3.31h0Z"/><g><path class="cls-41" d="M551.37,218.01c-1.59,0-3.03-.29-4.3-.86s-2.28-1.42-3.01-2.55c-.74-1.12-1.11-2.51-1.11-4.16,0-1.42,.26-2.59,.79-3.52,.52-.93,1.24-1.67,2.15-2.23,.91-.56,1.93-.98,3.07-1.27,1.14-.29,2.32-.5,3.55-.63,1.47-.15,2.67-.29,3.59-.42,.92-.13,1.59-.32,2.01-.59s.63-.69,.63-1.25v-.1c0-1.23-.37-2.19-1.1-2.87s-1.79-1.02-3.16-1.02c-1.45,0-2.6,.32-3.45,.95-.85,.63-1.42,1.38-1.71,2.24l-5.54-.79c.44-1.53,1.16-2.81,2.16-3.84,1-1.03,2.23-1.81,3.69-2.33,1.45-.52,3.06-.78,4.82-.78,1.21,0,2.42,.14,3.62,.43s2.3,.75,3.29,1.4,1.79,1.53,2.4,2.65c.61,1.11,.91,2.51,.91,4.18v16.84h-5.7v-3.46h-.2c-.36,.7-.87,1.35-1.52,1.96-.65,.61-1.46,1.09-2.44,1.46-.98,.37-2.12,.55-3.43,.55Zm1.54-4.36c1.19,0,2.22-.24,3.1-.71,.87-.48,1.55-1.11,2.02-1.89s.71-1.64,.71-2.57v-2.96c-.19,.15-.5,.29-.94,.43-.44,.13-.94,.25-1.48,.34-.55,.1-1.09,.19-1.62,.26s-1,.14-1.39,.2c-.88,.12-1.68,.32-2.38,.59-.7,.27-1.25,.65-1.65,1.14-.4,.49-.61,1.11-.61,1.88,0,1.09,.4,1.92,1.2,2.47,.8,.56,1.81,.83,3.05,.83Z"/><path class="cls-41" d="M575.48,192.34l5.08,9.29,5.16-9.29h6.27l-7.58,12.58,7.72,12.58h-6.24l-5.32-9.06-5.27,9.06h-6.29l7.67-12.58-7.47-12.58h6.29Z"/><path class="cls-41" d="M599.56,188.77c-.95,0-1.76-.31-2.43-.94-.67-.63-1.01-1.38-1.01-2.27s.34-1.66,1.02-2.29,1.48-.94,2.42-.94,1.74,.31,2.42,.94c.67,.63,1.01,1.39,1.01,2.29s-.34,1.64-1.01,2.27c-.67,.63-1.48,.94-2.42,.94Zm-2.98,28.73v-25.16h5.93v25.16h-5.93Z"/><path class="cls-41" d="M619.57,217.99c-2.46,0-4.59-.54-6.39-1.62s-3.2-2.59-4.19-4.54c-.99-1.94-1.48-4.21-1.48-6.81s.49-4.88,1.48-6.83c.99-1.95,2.38-3.47,4.19-4.55s3.93-1.62,6.39-1.62,4.59,.54,6.39,1.62,3.2,2.6,4.19,4.55c.99,1.96,1.48,4.23,1.48,6.83s-.49,4.87-1.48,6.81c-.99,1.94-2.38,3.46-4.19,4.54s-3.93,1.62-6.39,1.62Zm.03-4.75c1.33,0,2.45-.37,3.34-1.11,.9-.74,1.56-1.73,2.01-2.97,.44-1.24,.66-2.63,.66-4.16s-.22-2.93-.66-4.19c-.44-1.25-1.11-2.25-2.01-2.99-.9-.74-2.01-1.11-3.34-1.11s-2.5,.37-3.4,1.11c-.9,.74-1.57,1.74-2.01,2.99-.44,1.25-.66,2.65-.66,4.19s.22,2.92,.66,4.16c.44,1.25,1.11,2.24,2.01,2.97s2.03,1.11,3.4,1.11Z"/><path class="cls-41" d="M656.53,198.99l-5.41,.59c-.15-.55-.42-1.06-.79-1.54-.38-.48-.88-.87-1.52-1.16s-1.41-.44-2.33-.44c-1.23,0-2.27,.27-3.1,.8-.84,.54-1.25,1.23-1.24,2.08-.01,.73,.26,1.33,.81,1.79,.55,.46,1.47,.83,2.74,1.13l4.29,.92c2.38,.51,4.15,1.33,5.32,2.44,1.16,1.11,1.75,2.57,1.76,4.37-.01,1.58-.47,2.98-1.38,4.19-.91,1.21-2.18,2.15-3.79,2.83-1.62,.68-3.47,1.02-5.57,1.02-3.08,0-5.56-.65-7.44-1.94-1.88-1.29-3-3.1-3.36-5.41l5.78-.56c.26,1.14,.82,1.99,1.67,2.57,.85,.58,1.96,.87,3.33,.87s2.54-.29,3.4-.87c.86-.58,1.29-1.29,1.29-2.15,0-.72-.28-1.32-.83-1.79-.55-.47-1.41-.83-2.56-1.08l-4.29-.9c-2.41-.5-4.2-1.35-5.36-2.55-1.16-1.2-1.73-2.71-1.72-4.55-.01-1.55,.41-2.9,1.27-4.04,.86-1.14,2.05-2.03,3.59-2.65,1.53-.63,3.31-.94,5.31-.94,2.95,0,5.27,.63,6.97,1.88,1.7,1.26,2.75,2.95,3.15,5.09Z"/></g><g><path class="cls-41" d="M557.21,274.84v4.59h-14.87v-4.59h14.87Zm-11.15,25.16v-27.54c0-1.69,.35-3.1,1.06-4.23,.7-1.12,1.65-1.97,2.84-2.52,1.19-.56,2.51-.83,3.96-.83,1.03,0,1.94,.08,2.74,.25,.8,.16,1.39,.31,1.77,.44l-1.18,4.59c-.25-.08-.57-.16-.95-.24s-.81-.12-1.28-.12c-1.1,0-1.88,.26-2.33,.79-.45,.53-.68,1.29-.68,2.27v27.14h-5.95Z"/><path class="cls-41" d="M573,300.49c-2.52,0-4.7-.53-6.53-1.58s-3.23-2.55-4.22-4.49-1.47-4.22-1.47-6.86,.49-4.86,1.48-6.82c.99-1.96,2.37-3.49,4.15-4.59,1.78-1.1,3.87-1.65,6.27-1.65,1.55,0,3.02,.25,4.4,.75s2.6,1.26,3.67,2.3c1.06,1.04,1.9,2.36,2.51,3.96,.61,1.6,.92,3.5,.92,5.71v1.82h-20.62v-4h14.94c-.01-1.14-.26-2.15-.74-3.04-.48-.89-1.15-1.59-2.01-2.1-.86-.51-1.85-.77-2.99-.77-1.21,0-2.28,.29-3.19,.88-.92,.58-1.63,1.35-2.14,2.29-.51,.95-.77,1.98-.78,3.1v3.49c0,1.46,.27,2.72,.8,3.76,.53,1.04,1.28,1.84,2.24,2.39,.96,.55,2.09,.83,3.37,.83,.86,0,1.64-.12,2.34-.37,.7-.25,1.31-.61,1.82-1.09s.9-1.08,1.16-1.79l5.54,.62c-.35,1.46-1.01,2.74-1.99,3.83-.98,1.09-2.23,1.93-3.74,2.52s-3.25,.89-5.21,.89Z"/><path class="cls-41" d="M601.76,274.84v4.59h-14.46v-4.59h14.46Zm-10.89-6.03h5.93v23.62c0,.8,.12,1.41,.37,1.83,.25,.42,.57,.71,.97,.86,.4,.15,.85,.23,1.34,.23,.37,0,.71-.03,1.02-.08,.31-.05,.55-.1,.71-.15l1,4.63c-.32,.11-.77,.23-1.35,.36-.58,.13-1.3,.21-2.14,.23-1.49,.04-2.82-.18-4.01-.68-1.19-.5-2.13-1.27-2.83-2.32-.69-1.05-1.03-2.36-1.02-3.93v-24.6Z"/><path class="cls-41" d="M617.7,300.49c-2.51,0-4.67-.55-6.46-1.65-1.8-1.1-3.18-2.63-4.14-4.58-.97-1.95-1.45-4.2-1.45-6.74s.49-4.81,1.47-6.77,2.37-3.49,4.17-4.59c1.8-1.1,3.92-1.65,6.38-1.65,2.04,0,3.85,.37,5.43,1.12,1.58,.75,2.84,1.8,3.78,3.16,.94,1.36,1.47,2.95,1.61,4.76h-5.67c-.23-1.21-.77-2.23-1.63-3.04-.86-.81-2-1.22-3.43-1.22-1.21,0-2.28,.32-3.19,.97-.92,.65-1.63,1.58-2.14,2.79-.51,1.21-.76,2.67-.76,4.36s.25,3.19,.75,4.41,1.21,2.17,2.12,2.83c.91,.66,1.98,.99,3.22,.99,.87,0,1.66-.17,2.35-.5,.69-.33,1.27-.82,1.74-1.45,.47-.63,.79-1.4,.97-2.31h5.67c-.14,1.78-.67,3.36-1.57,4.73-.91,1.37-2.14,2.44-3.7,3.21-1.56,.77-3.4,1.15-5.5,1.15Z"/><path class="cls-41" d="M639.29,285.26v14.74h-5.93v-33.55h5.8v12.66h.29c.59-1.42,1.5-2.54,2.74-3.37,1.24-.82,2.82-1.24,4.74-1.24,1.75,0,3.27,.37,4.57,1.1,1.3,.73,2.31,1.8,3.02,3.21,.71,1.41,1.07,3.13,1.07,5.16v16.02h-5.93v-15.1c0-1.69-.43-3.01-1.3-3.96-.87-.94-2.08-1.42-3.64-1.42-1.05,0-1.98,.23-2.81,.68-.82,.45-1.47,1.11-1.93,1.96s-.7,1.88-.7,3.1Z"/></g><g><g><path class="cls-40" d="M933.99,246.77l-3.99-13.54h2.72l2.65,9.95h.13l2.66-9.95h2.72l2.65,9.9h.13l2.64-9.9h2.72l-3.98,13.54h-2.69l-2.75-9.78h-.2l-2.75,9.78h-2.68Z"/><path class="cls-40" d="M954.47,246.77l-3.99-13.54h2.72l2.65,9.95h.13l2.66-9.95h2.72l2.64,9.9h.13l2.64-9.9h2.72l-3.98,13.54h-2.69l-2.75-9.78h-.2l-2.75,9.78h-2.68Z"/><path class="cls-40" d="M974.95,246.77l-3.99-13.54h2.72l2.65,9.95h.13l2.66-9.95h2.72l2.64,9.9h.13l2.64-9.9h2.72l-3.98,13.54h-2.69l-2.75-9.78h-.2l-2.75,9.78h-2.68Z"/></g><g><polygon class="cls-2" points="930.99 250.77 924.65 229.23 954.38 229.23 948.05 250.77 930.99 250.77"/><polygon class="cls-2" points="951.47 250.77 945.14 229.23 974.86 229.23 968.54 250.77 951.47 250.77"/><polygon class="cls-2" points="971.96 250.77 965.62 229.23 995.34 229.23 989.02 250.77 971.96 250.77"/></g><g><path class="cls-40" d="M933.99,246.77l-3.99-13.54h2.72l2.65,9.95h.13l2.66-9.95h2.72l2.65,9.9h.13l2.64-9.9h2.72l-3.98,13.54h-2.69l-2.75-9.78h-.2l-2.75,9.78h-2.68Z"/><path class="cls-40" d="M954.47,246.77l-3.99-13.54h2.72l2.65,9.95h.13l2.66-9.95h2.72l2.64,9.9h.13l2.64-9.9h2.72l-3.98,13.54h-2.69l-2.75-9.78h-.2l-2.75,9.78h-2.68Z"/><path class="cls-40" d="M974.95,246.77l-3.99-13.54h2.72l2.65,9.95h.13l2.66-9.95h2.72l2.64,9.9h.13l2.64-9.9h2.72l-3.98,13.54h-2.69l-2.75-9.78h-.2l-2.75,9.78h-2.68Z"/></g></g><g><path class="cls-34" d="M1599.66,269.72h-9.53v-3.39h22.82v3.39h-9.53v26.82h-3.77v-26.82h0Z"/><path class="cls-34" d="M1616.51,303.71v-2.97c.31,.06,.73,.13,1.17,.13,2.3,0,3.58-.59,4.46-3.06l.44-1.24-8.08-21.8h3.89l6.01,18.13h.08l6.03-18.13h3.83l-8.5,23.14c-1.55,4.17-3.45,5.97-7.39,5.97-.71,0-1.49-.08-1.95-.17Z"/><path class="cls-34" d="M1637.22,274.77h3.64v3.69h.08c1.36-2.53,3.79-4.1,6.91-4.1,5.57,0,9.25,4.44,9.25,11.31v.02c0,6.87-3.73,11.29-9.19,11.29-3.08,0-5.61-1.55-6.97-4.06h-.08v10.97h-3.64v-29.1h0Zm16.16,10.91v-.02c0-5-2.39-8.08-6.24-8.08s-6.3,3.2-6.3,8.08v.02c0,4.86,2.64,8.06,6.3,8.06,3.85,0,6.24-3.1,6.24-8.06Z"/><path class="cls-34" d="M1659.71,285.74v-.02c0-6.74,3.85-11.37,9.8-11.37s9.57,4.42,9.57,10.95v1.34h-15.68c.08,4.48,2.55,7.1,6.43,7.1,2.76,0,4.71-1.38,5.34-3.25l.06-.19h3.58l-.04,.21c-.71,3.6-4.27,6.45-9.02,6.45-6.26,0-10.03-4.38-10.03-11.22h0Zm3.75-1.95h11.91c-.36-4.23-2.7-6.22-5.88-6.22s-5.63,2.16-6.03,6.22Z"/><path d="M1682.13,281.45v-.04c0-9.57,5.38-15.58,13.94-15.58s13.9,6.01,13.9,15.58v.04c0,9.59-5.34,15.6-13.9,15.6s-13.94-6.01-13.94-15.6Zm23.99,0v-.04c0-7.41-3.89-12.1-10.05-12.1s-10.09,4.67-10.09,12.1v.04c0,7.43,3.89,12.12,10.09,12.12s10.05-4.75,10.05-12.12Z"/><path d="M1714.67,266.33h11.33c5.82,0,9.63,3.56,9.63,9v.04c0,4.19-2.3,7.43-6.07,8.63l6.99,12.54h-4.42l-6.47-11.96h-7.22v11.96h-3.77v-30.21h0Zm10.99,14.93c3.87,0,6.07-2.09,6.07-5.8v-.04c0-3.6-2.37-5.74-6.24-5.74h-7.06v11.57h7.22Z"/><path d="M1740.36,266.33h4.36l10.47,25.46h.13l10.47-25.46h4.36v30.21h-3.52v-23.35h-.13l-9.65,23.35h-3.18l-9.65-23.35h-.13v23.35h-3.52v-30.21h0Z"/></g><g><path class="cls-37" d="M210.61,273.73h5.39l11.42,18.26v-18.26h4.97v25.87h-5.35l-11.46-18.22v18.22h-4.97v-25.87Zm44.01,25.87h-4.63v-2.89c-1.06,2.03-3.2,3.18-5.92,3.18-4.3,0-7.09-3.03-7.09-7.39v-11.52h4.63v10.57c0,2.55,1.58,4.32,3.96,4.32,2.6,0,4.41-2,4.41-4.73v-10.16h4.63v18.63h0Zm16.13-.29l-4.45-6.21-4.45,6.21h-4.94l6.86-9.72-6.33-8.91h5.05l3.81,5.36,3.77-5.36h5.09l-6.37,8.91,6.86,9.72h-4.9Zm14.32-23.95v5.62h5.28v3.81h-5.28v9.25c0,.31,.13,.61,.35,.83,.22,.22,.53,.34,.84,.34h4.08v4.39h-3.05c-4.15,0-6.86-2.37-6.86-6.5v-8.31h-3.73v-3.81h2.34c1.09,0,1.73-.64,1.73-1.69v-3.92h4.3Zm16.96,18.39v-20.01h4.97v18.48c0,4.99-2.45,7.39-6.59,7.39h-5.79v-4.39h5.92c.4,0,.78-.15,1.06-.43,.28-.27,.44-.65,.44-1.04m7.95-2.83h4.79c.27,2.89,2.22,4.73,5.39,4.73,2.83,0,4.79-1.11,4.79-3.4,0-5.54-14.18-1.7-14.18-11.61,0-4.25,3.73-7.2,9.09-7.2s9.35,3.14,9.58,7.98h-4.76c-.22-2.25-2.03-3.77-4.82-3.77-2.6,0-4.22,1.18-4.22,2.99,0,5.73,14.36,1.44,14.36,11.53,0,4.8-4.03,7.72-9.84,7.72s-9.91-3.55-10.17-8.98"/><path class="cls-14" d="M171.91,268.55c-1.39-2.39-4.87-2.39-6.26,0l-15.16,26.07c-1.39,2.39,.35,5.38,3.13,5.38h11.84c-1.19-1.04-1.63-2.84-.73-4.38l11.48-19.68-4.3-7.39Z"/><path class="cls-35" d="M181.52,274.27c1.15-1.96,4.03-1.96,5.18,0l12.55,21.33c1.15,1.96-.29,4.4-2.59,4.4h-25.1c-2.3,0-3.74-2.45-2.59-4.4l12.55-21.33h0Z"/></g><g><path d="M264.72,180.01h26.13v4.82h-10.36v25.37h-5.18v-25.37h-10.58v-4.82Zm-42.97,0v4.82h-20.94v7.76h16.84v4.82h-16.84v7.97h20.94v4.82h-26.13v-25.37h0v-4.82h26.13Zm13.05,.01h-6.78l24.29,30.19h6.8l-12.15-15.09,12.13-15.08h-6.78s-8.74,10.87-8.74,10.87l-8.77-10.89Zm6.96,21.57l-3.4-4.22-10.36,12.87h6.8l6.96-8.65Z"/><path d="M195.8,210.21l-24.32-30.21h-6.48v30.19h5.18v-23.74l19.11,23.75h6.51Z"/><path d="M292.01,210.02c-.36,0-.72-.14-.97-.39-.27-.26-.4-.58-.4-.96,0-.37,.13-.68,.4-.94,.26-.26,.61-.4,.97-.39,.37,0,.68,.13,.95,.39,.27,.26,.41,.58,.41,.94,0,.24-.07,.48-.19,.68-.12,.2-.3,.37-.5,.49-.2,.12-.44,.19-.67,.18Zm8.85-12.72h2.3v8.85c0,.81-.18,1.51-.52,2.09-.35,.58-.83,1.03-1.45,1.35-.61,.31-1.33,.47-2.15,.47-.75,0-1.42-.14-2.02-.4-.6-.26-1.07-.66-1.42-1.18-.35-.52-.52-1.17-.52-1.94h2.3c0,.34,.08,.63,.23,.88,.15,.24,.36,.44,.61,.56,.26,.13,.57,.2,.91,.2,.37,0,.68-.08,.94-.23,.26-.15,.45-.38,.59-.68,.13-.3,.2-.67,.21-1.12v-8.85h0Zm11.75,3.46c-.06-.54-.3-.96-.73-1.25-.43-.3-.99-.45-1.68-.45-.48,0-.9,.07-1.24,.21-.34,.15-.61,.34-.79,.58-.18,.25-.27,.53-.28,.84,0,.26,.06,.49,.19,.68,.13,.2,.3,.37,.5,.49,.22,.14,.46,.25,.7,.34,.26,.09,.52,.17,.78,.23l1.2,.29c.48,.11,.94,.26,1.39,.45,.43,.18,.84,.42,1.2,.71,.35,.28,.64,.64,.84,1.04,.21,.41,.31,.88,.31,1.43,0,.74-.19,1.38-.57,1.94-.38,.56-.93,.99-1.66,1.31-.72,.31-1.59,.47-2.62,.47s-1.85-.15-2.58-.46c-.73-.3-1.3-.74-1.71-1.32-.41-.58-.63-1.29-.66-2.12h2.28c.03,.44,.17,.8,.41,1.09,.24,.29,.56,.51,.94,.65,.39,.14,.82,.21,1.31,.21s.94-.08,1.33-.22c.38-.15,.68-.36,.89-.63,.22-.27,.33-.58,.33-.94,0-.33-.1-.6-.29-.82-.19-.21-.46-.39-.8-.54-.39-.16-.79-.29-1.2-.39l-1.45-.37c-1.05-.27-1.88-.67-2.49-1.21-.61-.54-.91-1.26-.91-2.17,0-.74,.2-1.39,.61-1.95,.41-.56,.97-.99,1.67-1.3,.71-.31,1.51-.46,2.4-.46s1.7,.15,2.38,.46c.68,.31,1.22,.74,1.61,1.28,.39,.55,.59,1.17,.6,1.88h-2.23Z"/></g></g><g id="title"><g><path class="cls-33" d="M395.86,120h48.29c3.23,0,5.86,2.63,5.86,5.86v48.29c0,3.23-2.63,5.86-5.86,5.86h-48.29c-3.23,0-5.86-2.63-5.86-5.86v-48.29c0-3.23,2.63-5.86,5.86-5.86Z"/><path class="cls-4" d="M427.14,167.74v5.86c.94,.49,2.09,.86,3.37,1.09,1.31,.26,2.69,.37,4.11,.37s2.74-.14,4-.4,2.37-.71,3.34-1.34c.94-.63,1.71-1.43,2.26-2.43s.83-2.23,.83-3.69c0-1.06-.17-2-.49-2.8s-.77-1.51-1.37-2.14-1.31-1.17-2.14-1.69c-.83-.49-1.77-.97-2.83-1.4-.77-.31-1.46-.63-2.09-.91-.6-.29-1.14-.6-1.57-.91-.43-.31-.77-.63-1-1-.23-.34-.34-.74-.34-1.17,0-.4,.11-.77,.31-1.09,.2-.31,.51-.6,.89-.83s.86-.4,1.4-.54c.54-.11,1.17-.2,1.83-.2,.49,0,1,.03,1.54,.11s1.09,.2,1.63,.34,1.09,.34,1.6,.57,1,.51,1.43,.8v-5.49c-.89-.34-1.86-.6-2.91-.77s-2.26-.26-3.63-.26-2.71,.14-3.97,.46c-1.26,.29-2.34,.77-3.29,1.4-.94,.63-1.69,1.46-2.26,2.43-.54,.97-.83,2.17-.83,3.54,0,1.74,.51,3.23,1.51,4.49,1,1.23,2.54,2.29,4.6,3.14,.8,.34,1.57,.66,2.26,.97s1.29,.66,1.8,1,.91,.71,1.2,1.11,.43,.86,.43,1.37c0,.37-.09,.74-.29,1.06-.17,.31-.46,.6-.83,.86-.37,.23-.83,.43-1.4,.57-.54,.14-1.2,.2-1.94,.2-1.29,0-2.54-.23-3.77-.66-1.17-.46-2.34-1.14-3.4-2.03h0Zm-9.86-14.46h7.51v-4.8h-20.97v4.83h7.49v21.43h5.97v-21.46Z"/></g><g><path class="cls-33" d="M1475.86,120h48.29c3.23,0,5.86,2.63,5.86,5.86v48.29c0,3.23-2.63,5.86-5.86,5.86h-48.29c-3.23,0-5.86-2.63-5.86-5.86v-48.29c0-3.23,2.63-5.86,5.86-5.86Z"/><path class="cls-4" d="M1507.14,167.74v5.86c.94,.49,2.09,.86,3.37,1.09,1.31,.26,2.69,.37,4.11,.37s2.74-.14,4-.4,2.37-.71,3.34-1.34c.94-.63,1.71-1.43,2.26-2.43,.54-1,.83-2.23,.83-3.69,0-1.06-.17-2-.49-2.8s-.77-1.51-1.37-2.14-1.31-1.17-2.14-1.69c-.83-.49-1.77-.97-2.83-1.4-.77-.31-1.46-.63-2.09-.91-.6-.29-1.14-.6-1.57-.91-.43-.31-.77-.63-1-1-.23-.34-.34-.74-.34-1.17,0-.4,.11-.77,.31-1.09,.2-.31,.51-.6,.89-.83s.86-.4,1.4-.54c.54-.11,1.17-.2,1.83-.2,.49,0,1,.03,1.54,.11s1.09,.2,1.63,.34,1.09,.34,1.6,.57,1,.51,1.43,.8v-5.49c-.89-.34-1.86-.6-2.91-.77s-2.26-.26-3.63-.26-2.71,.14-3.97,.46c-1.26,.29-2.34,.77-3.29,1.4-.94,.63-1.69,1.46-2.26,2.43-.54,.97-.83,2.17-.83,3.54,0,1.74,.51,3.23,1.51,4.49,1,1.23,2.54,2.29,4.6,3.14,.8,.34,1.57,.66,2.26,.97s1.29,.66,1.8,1,.91,.71,1.2,1.11,.43,.86,.43,1.37c0,.37-.09,.74-.29,1.06-.17,.31-.46,.6-.83,.86-.37,.23-.83,.43-1.4,.57-.54,.14-1.2,.2-1.94,.2-1.29,0-2.54-.23-3.77-.66-1.17-.46-2.34-1.14-3.4-2.03h0Zm-9.86-14.46h7.51v-4.8h-20.97v4.83h7.49v21.43h5.97v-21.46Z"/></g></g></svg>